<svg width="37" height="37" viewBox="0 0 37 37" fill="none" xmlns="http://www.w3.org/2000/svg">
<circle cx="18.5" cy="18.5" r="18.5" fill="#0196CE"/>
<path d="M23.45 28.75C22.32 28.75 21.13 28.48 19.9 27.96C18.7 27.45 17.49 26.75 16.31 25.9C15.14 25.04 14.01 24.08 12.94 23.03C11.88 21.96 10.92 20.83 10.07 19.67C9.21 18.47 8.52 17.27 8.03 16.11C7.51 14.87 7.25 13.67 7.25 12.54C7.25 11.76 7.39 11.02 7.66 10.33C7.94 9.62 8.39 8.96 9 8.39C9.77 7.63 10.65 7.25 11.59 7.25C11.98 7.25 12.38 7.34 12.72 7.5C13.11 7.68 13.44 7.95 13.68 8.31L16 11.58C16.21 11.87 16.37 12.15 16.48 12.43C16.61 12.73 16.68 13.03 16.68 13.32C16.68 13.7 16.57 14.07 16.36 14.42C16.21 14.69 15.98 14.98 15.69 15.27L15.01 15.98C15.02 16.01 15.03 16.03 15.04 16.05C15.16 16.26 15.4 16.62 15.86 17.16C16.35 17.72 16.81 18.23 17.27 18.7C17.86 19.28 18.35 19.74 18.81 20.12C19.38 20.6 19.75 20.84 19.97 20.95L19.95 21L20.68 20.28C20.99 19.97 21.29 19.74 21.58 19.59C22.13 19.25 22.83 19.19 23.53 19.48C23.79 19.59 24.07 19.74 24.37 19.95L27.69 22.31C28.06 22.56 28.33 22.88 28.49 23.26C28.64 23.64 28.71 23.99 28.71 24.34C28.71 24.82 28.6 25.3 28.39 25.75C28.18 26.2 27.92 26.59 27.59 26.95C27.02 27.58 26.4 28.03 25.68 28.32C24.99 28.6 24.24 28.75 23.45 28.75ZM11.59 8.75C11.04 8.75 10.53 8.99 10.04 9.47C9.58 9.9 9.26 10.37 9.06 10.88C8.85 11.4 8.75 11.95 8.75 12.54C8.75 13.47 8.97 14.48 9.41 15.52C9.86 16.58 10.49 17.68 11.29 18.78C12.09 19.88 13 20.95 14 21.96C15 22.95 16.08 23.87 17.19 24.68C18.27 25.47 19.38 26.11 20.48 26.57C22.19 27.3 23.79 27.47 25.11 26.92C25.62 26.71 26.07 26.39 26.48 25.93C26.71 25.68 26.89 25.41 27.04 25.09C27.16 24.84 27.22 24.58 27.22 24.32C27.22 24.16 27.19 24 27.11 23.82C27.08 23.76 27.02 23.65 26.83 23.52L23.51 21.16C23.31 21.02 23.13 20.92 22.96 20.85C22.74 20.76 22.65 20.67 22.31 20.88C22.11 20.98 21.93 21.13 21.73 21.33L20.97 22.08C20.58 22.46 19.98 22.55 19.52 22.38L19.25 22.26C18.84 22.04 18.36 21.7 17.83 21.25C17.35 20.84 16.83 20.36 16.2 19.74C15.71 19.24 15.22 18.71 14.71 18.12C14.24 17.57 13.9 17.1 13.69 16.71L13.57 16.41C13.51 16.18 13.49 16.05 13.49 15.91C13.49 15.55 13.62 15.23 13.87 14.98L14.62 14.2C14.82 14 14.97 13.81 15.07 13.64C15.15 13.51 15.18 13.4 15.18 13.3C15.18 13.22 15.15 13.1 15.1 12.98C15.03 12.82 14.92 12.64 14.78 12.45L12.46 9.17C12.36 9.03 12.24 8.93 12.09 8.86C11.93 8.79 11.76 8.75 11.59 8.75ZM19.95 21.01L19.79 21.69L20.06 20.99C20.01 20.98 19.97 20.99 19.95 21.01Z" fill="white"/>
</svg>
