<svg width="30" height="30" viewBox="0 0 30 30" fill="none" xmlns="http://www.w3.org/2000/svg">
<path d="M21.55 28.4375H8.45C4.95 28.4375 2.725 26.35 2.525 22.8625L1.875 12.55C1.775 10.9875 2.3125 9.4875 3.3875 8.35C4.45 7.2125 5.95 6.5625 7.5 6.5625C7.9 6.5625 8.2875 6.325 8.475 5.95L9.375 4.1625C10.1125 2.7 11.9625 1.5625 13.575 1.5625H16.4375C18.05 1.5625 19.8875 2.7 20.625 4.15L21.525 5.975C21.7125 6.325 22.0875 6.5625 22.5 6.5625C24.05 6.5625 25.55 7.2125 26.6125 8.35C27.6875 9.5 28.225 10.9875 28.125 12.55L27.475 22.875C27.25 26.4125 25.0875 28.4375 21.55 28.4375ZM13.575 3.4375C12.65 3.4375 11.475 4.1625 11.05 5L10.15 6.8C9.625 7.8125 8.6125 8.4375 7.5 8.4375C6.45 8.4375 5.475 8.8625 4.75 9.625C4.0375 10.3875 3.675 11.3875 3.75 12.425L4.4 22.75C4.55 25.275 5.9125 26.5625 8.45 26.5625H21.55C24.075 26.5625 25.4375 25.275 25.6 22.75L26.25 12.425C26.3125 11.3875 25.9625 10.3875 25.25 9.625C24.525 8.8625 23.55 8.4375 22.5 8.4375C21.3875 8.4375 20.375 7.8125 19.85 6.825L18.9375 5C18.525 4.175 17.35 3.45 16.425 3.45H13.575V3.4375Z" fill="#EFFAFF"/>
<path d="M16.875 10.9375H13.125C12.6125 10.9375 12.1875 10.5125 12.1875 10C12.1875 9.4875 12.6125 9.0625 13.125 9.0625H16.875C17.3875 9.0625 17.8125 9.4875 17.8125 10C17.8125 10.5125 17.3875 10.9375 16.875 10.9375Z" fill="#EFFAFF"/>
<path d="M15 23.4375C12.2375 23.4375 10 21.2 10 18.4375C10 15.675 12.2375 13.4375 15 13.4375C17.7625 13.4375 20 15.675 20 18.4375C20 21.2 17.7625 23.4375 15 23.4375ZM15 15.3125C13.275 15.3125 11.875 16.7125 11.875 18.4375C11.875 20.1625 13.275 21.5625 15 21.5625C16.725 21.5625 18.125 20.1625 18.125 18.4375C18.125 16.7125 16.725 15.3125 15 15.3125Z" fill="#EFFAFF"/>
</svg>
