<svg width="37" height="37" viewBox="0 0 37 37" fill="none" xmlns="http://www.w3.org/2000/svg">
<circle cx="18.5" cy="18.5" r="18.5" fill="#0196CE"/>
<path d="M12.76 28H23.24C26 28 27.1 26.31 27.23 24.25L27.75 15.99C27.89 13.83 26.17 12 24 12C23.39 12 22.83 11.65 22.55 11.11L21.83 9.66C21.37 8.75 20.17 8 19.15 8H16.86C15.83 8 14.63 8.75 14.17 9.66L13.45 11.11C13.17 11.65 12.61 12 12 12C9.83 12 8.11 13.83 8.25 15.99L8.77 24.25C8.89 26.31 10 28 12.76 28Z" stroke="white" stroke-width="1.5" stroke-linecap="round" stroke-linejoin="round"/>
<path d="M16.5 14H19.5" stroke="white" stroke-width="1.5" stroke-linecap="round" stroke-linejoin="round"/>
<path d="M18 24C19.79 24 21.25 22.54 21.25 20.75C21.25 18.96 19.79 17.5 18 17.5C16.21 17.5 14.75 18.96 14.75 20.75C14.75 22.54 16.21 24 18 24Z" stroke="white" stroke-width="1.5" stroke-linecap="round" stroke-linejoin="round"/>
</svg>
