<svg width="25" height="25" viewBox="0 0 25 25" fill="none" xmlns="http://www.w3.org/2000/svg">
<rect width="25" height="25" rx="5" fill="#DD636E"/>
<path d="M19 8.98667C16.78 8.76667 14.5467 8.65334 12.32 8.65334C11 8.65334 9.68 8.72 8.36 8.85334L7 8.98667" stroke="white" stroke-width="1.5" stroke-linecap="round" stroke-linejoin="round"/>
<path d="M10.6667 8.31334L10.8134 7.44C10.9201 6.80667 11.0001 6.33334 12.1267 6.33334H13.8734C15.0001 6.33334 15.0867 6.83334 15.1867 7.44667L15.3334 8.31334" stroke="white" stroke-width="1.5" stroke-linecap="round" stroke-linejoin="round"/>
<path d="M17.5667 11.0933L17.1334 17.8067C17.06 18.8533 17 19.6667 15.14 19.6667H10.86C9.00002 19.6667 8.94002 18.8533 8.86668 17.8067L8.43335 11.0933" stroke="white" stroke-width="1.5" stroke-linecap="round" stroke-linejoin="round"/>
<path d="M11.8867 16H14.1067" stroke="white" stroke-width="1.5" stroke-linecap="round" stroke-linejoin="round"/>
<path d="M11.3333 13.3333H14.6666" stroke="white" stroke-width="1.5" stroke-linecap="round" stroke-linejoin="round"/>
</svg>
