<svg width="37" height="37" viewBox="0 0 37 37" fill="none" xmlns="http://www.w3.org/2000/svg">
<circle cx="18.5" cy="18.5" r="18.5" fill="#0196CE"/>
<path d="M23 28.75H13C8.59 28.75 7.25 27.41 7.25 23V13C7.25 8.59 8.59 7.25 13 7.25H14.5C16.25 7.25 16.8 7.82 17.5 8.75L19 10.75C19.33 11.19 19.38 11.25 20 11.25H23C27.41 11.25 28.75 12.59 28.75 17V23C28.75 27.41 27.41 28.75 23 28.75ZM13 8.75C9.42 8.75 8.75 9.43 8.75 13V23C8.75 26.57 9.42 27.25 13 27.25H23C26.58 27.25 27.25 26.57 27.25 23V17C27.25 13.43 26.58 12.75 23 12.75H20C18.72 12.75 18.3 12.31 17.8 11.65L16.3 9.65C15.78 8.96 15.62 8.75 14.5 8.75H13V8.75Z" fill="white"/>
<path d="M26 13.13C25.59 13.13 25.25 12.79 25.25 12.38V11C25.25 9.42 24.58 8.75 23 8.75H14C13.59 8.75 13.25 8.41 13.25 8C13.25 7.59 13.59 7.25 14 7.25H23C25.42 7.25 26.75 8.58 26.75 11V12.38C26.75 12.79 26.41 13.13 26 13.13Z" fill="white"/>
</svg>
