<svg width="40" height="40" viewBox="0 0 40 40" fill="none" xmlns="http://www.w3.org/2000/svg">
<path d="M15 36.6667H25C33.3333 36.6667 36.6667 33.3333 36.6667 25V15C36.6667 6.66666 33.3333 3.33333 25 3.33333H15C6.66668 3.33333 3.33334 6.66666 3.33334 15V25C3.33334 33.3333 6.66668 36.6667 15 36.6667Z" stroke="#0196CE" stroke-width="1.5" stroke-linecap="round" stroke-linejoin="round"/>
<path d="M15 16.6667C16.8409 16.6667 18.3333 15.1743 18.3333 13.3333C18.3333 11.4924 16.8409 10 15 10C13.159 10 11.6667 11.4924 11.6667 13.3333C11.6667 15.1743 13.159 16.6667 15 16.6667Z" stroke="#0196CE" stroke-width="1.5" stroke-linecap="round" stroke-linejoin="round"/>
<path d="M4.45001 31.5833L12.6667 26.0667C13.9833 25.1833 15.8833 25.2833 17.0667 26.3L17.6167 26.7833C18.9167 27.9 21.0167 27.9 22.3167 26.7833L29.25 20.8333C30.55 19.7167 32.65 19.7167 33.95 20.8333L36.6667 23.1667" stroke="#0196CE" stroke-width="1.5" stroke-linecap="round" stroke-linejoin="round"/>
</svg>
