<svg width="60" height="60" viewBox="0 0 60 60" fill="none" xmlns="http://www.w3.org/2000/svg">
<rect width="60" height="60" rx="8" fill="#0196CE"/>
<path d="M36.55 43.4375H23.45C19.95 43.4375 17.725 41.35 17.525 37.8625L16.875 27.55C16.775 25.9875 17.3125 24.4875 18.3875 23.35C19.45 22.2125 20.95 21.5625 22.5 21.5625C22.9 21.5625 23.2875 21.325 23.475 20.95L24.375 19.1625C25.1125 17.7 26.9625 16.5625 28.575 16.5625H31.4375C33.05 16.5625 34.8875 17.7 35.625 19.15L36.525 20.975C36.7125 21.325 37.0875 21.5625 37.5 21.5625C39.05 21.5625 40.55 22.2125 41.6125 23.35C42.6875 24.5 43.225 25.9875 43.125 27.55L42.475 37.875C42.25 41.4125 40.0875 43.4375 36.55 43.4375ZM28.575 18.4375C27.65 18.4375 26.475 19.1625 26.05 20L25.15 21.8C24.625 22.8125 23.6125 23.4375 22.5 23.4375C21.45 23.4375 20.475 23.8625 19.75 24.625C19.0375 25.3875 18.675 26.3875 18.75 27.425L19.4 37.75C19.55 40.275 20.9125 41.5625 23.45 41.5625H36.55C39.075 41.5625 40.4375 40.275 40.6 37.75L41.25 27.425C41.3125 26.3875 40.9625 25.3875 40.25 24.625C39.525 23.8625 38.55 23.4375 37.5 23.4375C36.3875 23.4375 35.375 22.8125 34.85 21.825L33.9375 20C33.525 19.175 32.35 18.45 31.425 18.45H28.575V18.4375Z" fill="#EFFAFF"/>
<path d="M31.875 25.9375H28.125C27.6125 25.9375 27.1875 25.5125 27.1875 25C27.1875 24.4875 27.6125 24.0625 28.125 24.0625H31.875C32.3875 24.0625 32.8125 24.4875 32.8125 25C32.8125 25.5125 32.3875 25.9375 31.875 25.9375Z" fill="#EFFAFF"/>
<path d="M30 38.4375C27.2375 38.4375 25 36.2 25 33.4375C25 30.675 27.2375 28.4375 30 28.4375C32.7625 28.4375 35 30.675 35 33.4375C35 36.2 32.7625 38.4375 30 38.4375ZM30 30.3125C28.275 30.3125 26.875 31.7125 26.875 33.4375C26.875 35.1625 28.275 36.5625 30 36.5625C31.725 36.5625 33.125 35.1625 33.125 33.4375C33.125 31.7125 31.725 30.3125 30 30.3125Z" fill="#EFFAFF"/>
</svg>
