<svg width="20" height="20" viewBox="0 0 20 20" fill="none" xmlns="http://www.w3.org/2000/svg">
<path d="M14.167 8.33335H15.8337C17.5003 8.33335 18.3337 7.50002 18.3337 5.83335V4.16669C18.3337 2.50002 17.5003 1.66669 15.8337 1.66669H14.167C12.5003 1.66669 11.667 2.50002 11.667 4.16669V5.83335C11.667 7.50002 12.5003 8.33335 14.167 8.33335Z" stroke="black" stroke-width="1.5" stroke-miterlimit="10" stroke-linecap="round" stroke-linejoin="round"/>
<path d="M4.16699 18.3334H5.83366C7.50033 18.3334 8.33366 17.5 8.33366 15.8334V14.1667C8.33366 12.5 7.50033 11.6667 5.83366 11.6667H4.16699C2.50033 11.6667 1.66699 12.5 1.66699 14.1667V15.8334C1.66699 17.5 2.50033 18.3334 4.16699 18.3334Z" stroke="black" stroke-width="1.5" stroke-miterlimit="10" stroke-linecap="round" stroke-linejoin="round"/>
<path d="M5.00033 8.33335C6.84127 8.33335 8.33366 6.84097 8.33366 5.00002C8.33366 3.15907 6.84127 1.66669 5.00033 1.66669C3.15938 1.66669 1.66699 3.15907 1.66699 5.00002C1.66699 6.84097 3.15938 8.33335 5.00033 8.33335Z" stroke="black" stroke-width="1.5" stroke-miterlimit="10" stroke-linecap="round" stroke-linejoin="round"/>
<path d="M15.0003 18.3334C16.8413 18.3334 18.3337 16.841 18.3337 15C18.3337 13.1591 16.8413 11.6667 15.0003 11.6667C13.1594 11.6667 11.667 13.1591 11.667 15C11.667 16.841 13.1594 18.3334 15.0003 18.3334Z" stroke="black" stroke-width="1.5" stroke-miterlimit="10" stroke-linecap="round" stroke-linejoin="round"/>
</svg>
