<svg width="240" height="240" viewBox="0 0 240 240" fill="none" xmlns="http://www.w3.org/2000/svg">
<path d="M172.304 150.919H206.991V124.166H172.304V150.919Z" fill="#EBEBEB"/>
<path d="M174.784 148.585H178.964V143.86H174.784V148.585Z" fill="white"/>
<path d="M196.41 124.235H192.47V129.944H196.41V124.235Z" fill="#FAFAFA"/>
<path d="M196.41 145.131H192.47V150.84H196.41V145.131Z" fill="#FAFAFA"/>
<path d="M180.963 151.104C180.902 151.104 180.853 145.219 180.853 137.963C180.853 130.704 180.902 124.821 180.963 124.821C181.024 124.821 181.073 130.704 181.073 137.963C181.073 145.219 181.024 151.104 180.963 151.104Z" fill="#E0E0E0"/>
<path d="M158.158 196.991H218.006V150.831H158.158V196.991Z" fill="#EBEBEB"/>
<path d="M162.436 192.963H169.647V184.81H162.436V192.963Z" fill="white"/>
<path d="M199.747 150.95H192.949V160.8H199.747V150.95Z" fill="#FAFAFA"/>
<path d="M199.747 187.005H192.949V196.854H199.747V187.005Z" fill="#FAFAFA"/>
<path d="M173.095 197.309C172.99 197.309 172.904 187.156 172.904 174.636C172.904 162.11 172.99 151.96 173.095 151.96C173.201 151.96 173.286 162.11 173.286 174.636C173.286 187.156 173.2 197.309 173.095 197.309Z" fill="#E0E0E0"/>
<path d="M216.105 54.8213L219.311 61.3171L226.48 62.3592L221.293 67.4155L222.517 74.5555L216.105 71.1845L209.693 74.5555L210.918 67.4155L205.73 62.3592L212.899 61.3171L216.105 54.8213Z" fill="#EBEBEB"/>
<path d="M25.2041 138.704L27.2249 142.798L31.7427 143.455L28.4734 146.641L29.2452 151.141L25.2041 149.016L21.1635 151.141L21.9348 146.641L18.666 143.455L23.1838 142.798L25.2041 138.704Z" fill="#EBEBEB"/>
<path d="M27.7109 103.037L32.1975 112.128L42.23 113.586L34.9705 120.662L36.6841 130.654L27.7109 125.937L18.7378 130.654L20.4519 120.662L13.1924 113.586L23.2244 112.128L27.7109 103.037Z" fill="#EBEBEB"/>
<path d="M213.25 84.1555L215.184 88.0738L219.508 88.7021L216.379 91.752L217.118 96.0586L213.25 94.0253L209.383 96.0586L210.121 91.752L206.992 88.7021L211.316 88.0738L213.25 84.1555Z" fill="#EBEBEB"/>
<path d="M149.783 20.6726L151.717 24.5909L156.041 25.2192L152.912 28.2696L153.651 32.5762L149.783 30.5429L145.915 32.5762L146.654 28.2696L143.525 25.2192L147.849 24.5909L149.783 20.6726Z" fill="#EBEBEB"/>
<path d="M194.027 62.5963L195.293 65.161L198.123 65.5723L196.075 67.5686L196.559 70.3872L194.027 69.0562L191.496 70.3872L191.979 67.5686L189.932 65.5723L192.762 65.161L194.027 62.5963Z" fill="#EBEBEB"/>
<path d="M77.2432 192.052L79.7085 197.047L85.2208 197.848L81.232 201.736L82.1738 207.226L77.2432 204.634L72.3127 207.226L73.2544 201.736L69.2656 197.848L74.7779 197.047L77.2432 192.052Z" fill="#EBEBEB"/>
<path d="M83.7508 187.087L84.7693 189.151L87.0469 189.481L85.3991 191.088L85.7879 193.356L83.7508 192.285L81.7136 193.356L82.1029 191.088L80.4551 189.481L82.7322 189.151L83.7508 187.087Z" fill="#EBEBEB"/>
<path d="M174.785 167.962L176.953 172.354L181.799 173.058L178.293 176.476L179.121 181.304L174.785 179.024L170.45 181.304L171.278 176.476L167.771 173.058L172.618 172.354L174.785 167.962Z" fill="#0196CE"/>
<path d="M185.126 164.069L186.147 166.139L188.431 166.471L186.778 168.082L187.168 170.356L185.126 169.282L183.083 170.356L183.473 168.082L181.82 166.471L184.104 166.139L185.126 164.069Z" fill="#0196CE"/>
<path d="M171.573 49.7568L173.267 44.4485C171.948 41.8022 171.321 38.771 171.607 35.6117C172.429 26.5248 180.472 19.8259 189.571 20.6491C198.671 21.4718 205.38 29.5051 204.559 38.592C203.737 47.6784 195.694 54.3773 186.595 53.5546C182.795 53.2109 179.666 51.8352 177.074 49.4256L171.573 49.7568Z" fill="#FAFAFA"/>
<path d="M171.572 49.7568C171.572 49.7568 171.7 49.7438 171.939 49.7261C172.185 49.7083 172.537 49.6829 172.997 49.6502C173.929 49.5864 175.295 49.4928 177.07 49.3714L177.093 49.3699L177.111 49.3858C178.674 50.8291 181.061 52.4309 184.29 53.1134C185.09 53.2853 185.934 53.4192 186.815 53.4739C187.255 53.4907 187.703 53.5075 188.159 53.5243C188.614 53.521 189.076 53.4734 189.545 53.4494C191.415 53.2757 193.376 52.7726 195.258 51.853C197.139 50.9376 198.936 49.608 200.439 47.8925C201.938 46.1798 203.156 44.0851 203.835 41.7384C204.51 39.3955 204.681 36.827 204.243 34.2936C204.167 33.6533 203.965 33.0365 203.804 32.4067C203.734 32.0885 203.599 31.7899 203.49 31.4822C203.372 31.1774 203.265 30.8674 203.139 30.565C202.574 29.3822 201.954 28.1981 201.109 27.156C200.728 26.6059 200.254 26.1355 199.81 25.6454C199.597 25.391 199.331 25.1909 199.091 24.9648C198.843 24.7488 198.609 24.516 198.351 24.3154L197.562 23.7331L197.168 23.4437L196.75 23.1936L195.917 22.6954C195.637 22.536 195.337 22.4146 195.05 22.2725C192.728 21.1834 190.209 20.6544 187.773 20.7072C185.336 20.7552 182.995 21.3494 180.948 22.3392C178.896 23.327 177.137 24.7022 175.754 26.2675C174.366 27.8333 173.357 29.5858 172.693 31.3402C172.614 31.5614 172.535 31.7803 172.458 31.9982C172.374 32.2147 172.302 32.4317 172.255 32.6554C172.145 33.097 172.037 33.5318 171.93 33.9595C171.813 34.8322 171.653 35.6707 171.636 36.4915C171.503 39.7814 172.371 42.5098 173.316 44.424L173.326 44.4442L173.319 44.4648C172.758 46.175 172.326 47.4902 172.031 48.3878C171.884 48.8299 171.772 49.1683 171.693 49.4054C171.617 49.6354 171.572 49.7568 171.572 49.7568C171.572 49.7568 171.602 49.6474 171.67 49.4218C171.742 49.1861 171.845 48.8501 171.98 48.4114C172.263 47.5008 172.677 46.1664 173.215 44.4317L173.219 44.4725C172.249 42.5554 171.354 39.8088 171.47 36.4853C171.483 35.6563 171.64 34.8082 171.756 33.9254C171.861 33.493 171.968 33.0528 172.078 32.6054C172.124 32.3794 172.197 32.159 172.28 31.9402C172.358 31.7198 172.437 31.4976 172.516 31.2734C173.18 29.496 174.196 27.7181 175.597 26.1278C176.993 24.5386 178.772 23.1403 180.85 22.1342C182.924 21.1267 185.298 20.519 187.77 20.4677C190.241 20.411 192.798 20.9443 195.155 22.0488C195.447 22.1923 195.751 22.3157 196.036 22.4774L196.882 22.9824L197.307 23.2363L197.706 23.5296L198.508 24.1205C198.771 24.324 199.008 24.5602 199.26 24.7795C199.503 25.009 199.773 25.212 199.99 25.4702C200.441 25.9675 200.921 26.4456 201.309 27.0038C202.165 28.0622 202.796 29.2637 203.368 30.4651C203.496 30.7723 203.605 31.0872 203.724 31.3968C203.836 31.7088 203.972 32.0122 204.043 32.3352C204.207 32.9741 204.411 33.601 204.488 34.2509C204.931 36.8232 204.754 39.4291 204.066 41.8056C203.374 44.1859 202.134 46.309 200.611 48.0422C199.084 49.7784 197.258 51.121 195.351 52.0426C193.442 52.968 191.455 53.471 189.563 53.639C189.088 53.6616 188.621 53.7077 188.161 53.7086C187.7 53.6894 187.248 53.6702 186.802 53.6515C185.914 53.592 185.063 53.4528 184.255 53.2752C180.998 52.5691 178.597 50.9328 177.038 49.465L177.078 49.4794C175.284 49.573 173.904 49.645 172.962 49.6944C172.509 49.7165 172.162 49.7333 171.918 49.7453C171.684 49.7554 171.572 49.7568 171.572 49.7568Z" fill="#263238"/>
<path d="M178.707 36.4781L181.43 34.1208L186.015 38.8267L196.295 30.2654L198.471 32.9746L185.3 43.6992L178.707 36.4781Z" fill="#0196CE"/>
<path d="M143.094 167.757L51.0482 188.27C48.8138 188.768 46.5991 187.361 46.1013 185.126L16.229 51.0874C15.7312 48.853 17.1386 46.6382 19.373 46.1405L111.419 25.6272C113.654 25.1294 115.868 26.5368 116.366 28.7712L146.238 162.811C146.736 165.045 145.328 167.259 143.094 167.757Z" fill="#E0E0E0"/>
<path d="M143.093 167.757C143.093 167.757 143.196 167.725 143.399 167.667C143.601 167.607 143.897 167.493 144.261 167.292C144.618 167.079 145.039 166.762 145.424 166.279C145.803 165.796 146.144 165.139 146.266 164.335C146.335 163.935 146.327 163.5 146.256 163.054C146.18 162.607 146.057 162.141 145.953 161.65C145.733 160.669 145.492 159.596 145.231 158.433C144.71 156.108 144.109 153.425 143.432 150.405C140.732 138.322 136.825 120.839 131.996 99.2362C129.585 88.4338 126.944 76.6013 124.109 63.899C122.692 57.5477 121.226 50.9789 119.717 44.2128C118.962 40.8298 118.196 37.3973 117.42 33.9178C117.029 32.1797 116.637 30.4296 116.242 28.668C116.033 27.8074 115.512 27.0336 114.818 26.4806C114.114 25.9402 113.232 25.6181 112.336 25.6214C111.886 25.6195 111.45 25.7078 111 25.8139C110.552 25.9138 110.104 26.0136 109.654 26.1139C108.756 26.3141 107.855 26.5152 106.951 26.7168C105.144 27.12 103.326 27.5251 101.498 27.9331C97.8405 28.7486 94.1421 29.5733 90.4039 30.407C82.9274 32.0741 75.2935 33.7762 67.5223 35.509C51.9794 38.9736 35.8865 42.5606 19.4042 46.2346C18.3953 46.4558 17.4861 47.076 16.9169 47.9333C16.3404 48.7853 16.1109 49.8595 16.2909 50.8685C16.7253 52.9114 17.1962 54.9576 17.645 56.9918C18.5522 61.0627 19.4532 65.1067 20.3479 69.121C22.1369 77.1499 23.8994 85.0613 25.6313 92.8344C29.094 108.382 32.4343 123.378 35.6162 137.664C38.7967 151.95 41.8188 165.526 44.6474 178.231C45.0007 179.819 45.3511 181.393 45.6986 182.954C45.8757 183.732 46.0375 184.517 46.2252 185.279C46.4196 186.032 46.8458 186.715 47.4141 187.233C47.9839 187.752 48.7001 188.097 49.4508 188.231C49.8276 188.294 50.2101 188.303 50.5879 188.267C50.9618 188.217 51.3386 188.125 51.7149 188.042C53.2188 187.707 54.7077 187.376 56.1823 187.048C62.0796 185.736 67.7393 184.476 73.1412 183.275C94.7493 178.473 112.235 174.587 124.321 171.901C130.363 170.563 135.055 169.524 138.238 168.819C139.828 168.469 141.041 168.202 141.858 168.022C142.674 167.844 143.093 167.757 143.093 167.757C143.093 167.757 142.677 167.857 141.863 168.042C141.047 168.226 139.836 168.499 138.247 168.858C135.066 169.571 130.377 170.622 124.338 171.976C112.256 174.677 94.7748 178.584 73.1724 183.411C67.7714 184.617 62.1127 185.88 56.2164 187.197C54.7423 187.526 53.2533 187.858 51.75 188.194C51.3746 188.277 51.0002 188.369 50.6066 188.422C50.214 188.46 49.8165 188.451 49.4249 188.386C48.6444 188.247 47.9004 187.889 47.3081 187.35C46.7167 186.813 46.2737 186.102 46.0711 185.32C45.8796 184.544 45.7197 183.769 45.5417 182.988C45.1932 181.428 44.8423 179.854 44.4876 178.266C41.6537 165.562 38.6253 151.988 35.4386 137.703C32.2533 123.419 28.9092 108.422 25.4426 92.8762C23.7098 85.103 21.9463 77.1917 20.1564 69.1632C19.2617 65.149 18.3602 61.105 17.453 57.0341C17.0033 54.9955 16.5353 52.9632 16.097 50.9016C15.9084 49.8432 16.1493 48.7152 16.7537 47.8224C17.3503 46.9234 18.306 46.272 19.3629 46.0406C35.8457 42.3682 51.9386 38.7821 67.482 35.3189C75.2537 33.5875 82.8881 31.8874 90.365 30.2218C94.1033 29.3894 97.8026 28.5653 101.46 27.7507C103.289 27.3437 105.106 26.9386 106.914 26.5358C107.818 26.3347 108.719 26.1341 109.617 25.9339C110.066 25.8341 110.514 25.7342 110.962 25.6344C111.404 25.5302 111.871 25.4352 112.339 25.4381C113.276 25.4347 114.198 25.7717 114.932 26.3366C115.658 26.9141 116.201 27.7238 116.42 28.6224C116.815 30.3859 117.207 32.1379 117.597 33.8779C118.372 37.3579 119.136 40.7904 119.889 44.1739C121.396 50.941 122.858 57.5107 124.272 63.8626C127.099 76.5667 129.732 88.4011 132.136 99.205C136.938 120.813 140.824 138.3 143.51 150.387C144.18 153.409 144.775 156.093 145.291 158.42C145.548 159.583 145.786 160.656 146.003 161.639C146.106 162.131 146.227 162.594 146.302 163.046C146.372 163.497 146.378 163.937 146.307 164.341C146.181 165.152 145.833 165.814 145.45 166.297C145.059 166.782 144.634 167.099 144.273 167.309C143.905 167.508 143.607 167.62 143.403 167.677C143.198 167.732 143.093 167.757 143.093 167.757Z" fill="#263238"/>
<g opacity="0.3">
<path d="M55.7148 183.525L139.581 164.353L136.927 147.915L132.174 138.704L51.9473 170.217L55.7148 183.525Z" fill="black"/>
</g>
<g opacity="0.3">
<path d="M90.7275 30.5429L93.8999 35.7811L94.5186 38.5565L92.3648 39.0365L90.7275 30.5429Z" fill="black"/>
</g>
<path d="M21.0068 51.864L50.103 182.425L141.308 162.099L136.106 138.753L112.212 31.5384L21.0068 51.864Z" fill="white"/>
<path d="M21.0068 51.864C21.6568 51.7186 56.762 43.8629 112.194 31.4592L112.274 31.4414L112.291 31.5206C120.383 67.8034 130.48 113.082 141.404 162.067L141.407 162.077L141.429 162.175L141.331 162.197C108.724 169.461 77.763 176.358 50.1241 182.514L50.0344 182.534L50.0147 182.445C32.8868 105.345 21.1835 52.6594 21.0068 51.864C21.1844 52.6584 32.9603 105.329 50.1928 182.405L50.0833 182.335C77.7212 176.173 108.681 169.271 141.286 162L141.21 162.12L141.207 162.11C130.298 113.122 120.213 67.8408 112.132 31.5557L112.229 31.6171C56.7755 43.9253 21.6563 51.72 21.0068 51.864Z" fill="#263238"/>
<path d="M92.8573 40.0968L46.7101 50.3813L44.3878 39.96C44.023 38.3232 45.0541 36.7008 46.6909 36.336L86.911 27.3725C88.5478 27.0077 90.1702 28.0387 90.535 29.6755L92.8573 40.0968Z" fill="#263238"/>
<path d="M71.5522 25.512L59.8066 28.1294L63.4234 37.8912L72.2703 35.9194L71.5522 25.512Z" fill="#263238"/>
<path d="M86.9097 27.373C86.9217 27.4262 77.9274 29.4763 66.8231 31.9512C55.7149 34.4266 46.7034 36.3898 46.6914 36.336C46.6794 36.2827 55.6717 34.2331 66.7799 31.7573C77.8842 29.2829 86.8977 27.3197 86.9097 27.373Z" fill="#455A64"/>
<path d="M47.262 47.9918C47.2088 48.0038 46.7432 46.1203 46.2228 43.7851C45.702 41.4494 45.3238 39.5467 45.3771 39.5347C45.4304 39.5227 45.896 41.4062 46.4163 43.7419C46.9366 46.0771 47.3153 47.9798 47.262 47.9918Z" fill="#455A64"/>
<path d="M90.6591 37.2691C90.6053 37.2811 90.1791 35.5718 89.7068 33.4517C89.234 31.331 88.8946 29.6026 88.9479 29.591C89.0012 29.579 89.4279 31.2878 89.9002 33.409C90.3725 35.5286 90.7124 37.2571 90.6591 37.2691Z" fill="#455A64"/>
<path d="M88.8307 39.5453C88.8427 39.599 79.6099 41.7019 68.2114 44.2421C56.809 46.7832 47.5589 48.7992 47.5469 48.7454C47.5349 48.6922 56.7658 46.5893 68.1682 44.0482C79.5667 41.5085 88.8187 39.492 88.8307 39.5453Z" fill="#455A64"/>
<path d="M64.536 77.5267C64.548 77.581 58.3209 79.0147 50.6294 80.7288C42.935 82.4434 36.6898 83.7893 36.6778 83.735C36.6658 83.6808 42.8914 82.2475 50.5858 80.5325C58.2773 78.8184 64.524 77.4725 64.536 77.5267Z" fill="#263238"/>
<path d="M110.959 72.2986C110.971 72.3528 94.6997 76.0248 74.6213 80.4998C54.5357 84.9763 38.2483 88.5595 38.2363 88.5058C38.2243 88.4515 54.492 84.78 74.5776 80.304C94.6565 75.829 110.947 72.2448 110.959 72.2986Z" fill="#263238"/>
<path d="M111.959 76.7856C111.971 76.8398 95.6997 80.5123 75.6213 84.9869C55.5357 89.4634 39.2483 93.0466 39.2363 92.9923C39.2243 92.9381 55.492 89.2666 75.5776 84.7906C95.656 80.316 111.946 76.7314 111.959 76.7856Z" fill="#263238"/>
<path d="M112.959 81.2726C112.971 81.3269 96.6997 84.9989 76.6213 89.4739C56.5357 93.9504 40.2483 97.5336 40.2363 97.4794C40.2243 97.4251 56.492 93.7536 76.5776 89.2776C96.656 84.803 112.947 81.2184 112.959 81.2726Z" fill="#263238"/>
<path d="M113.959 85.7597C113.971 85.8139 97.6997 89.4864 77.6213 93.961C57.5357 98.4374 41.2483 102.021 41.2363 101.966C41.2243 101.912 57.492 98.2406 77.5776 93.7646C97.656 89.2896 113.947 85.7054 113.959 85.7597Z" fill="#263238"/>
<path d="M114.959 90.2467C114.971 90.301 98.6997 93.9734 78.6213 98.448C58.5357 102.924 42.2488 106.508 42.2363 106.453C42.2243 106.399 58.492 102.728 78.5776 98.2517C98.6565 93.7766 114.947 90.1925 114.959 90.2467Z" fill="#263238"/>
<path d="M56.3389 121.831C56.3351 121.828 56.3202 121.776 56.2952 121.679C56.2679 121.567 56.2328 121.427 56.1896 121.251C56.0975 120.862 55.9693 120.324 55.809 119.647C55.4884 118.26 55.0381 116.309 54.4996 113.976L54.6032 114.042C52.3112 114.557 49.6127 115.163 46.7336 115.81C46.7159 115.836 46.8772 115.584 46.8095 115.692L46.81 115.693L46.8109 115.698L46.8128 115.706L46.8167 115.723L46.8244 115.757L46.8392 115.824L46.8695 115.959L46.9295 116.228C46.9693 116.406 47.0087 116.584 47.048 116.761C47.1268 117.116 47.205 117.467 47.2818 117.814C47.4359 118.509 47.5861 119.188 47.733 119.85C48.0239 121.172 48.2984 122.42 48.5509 123.566L48.4472 123.5C50.7882 122.997 52.7452 122.577 54.1376 122.278C54.8183 122.136 55.3602 122.023 55.7514 121.941C55.928 121.906 56.0706 121.878 56.1834 121.855C56.2818 121.836 56.3351 121.828 56.3389 121.831C56.3428 121.833 56.2976 121.847 56.206 121.871C56.0984 121.897 55.9631 121.931 55.7951 121.972C55.4106 122.064 54.8783 122.19 54.2101 122.349C52.809 122.672 50.8405 123.126 48.4852 123.67L48.4007 123.69L48.3815 123.604C48.1232 122.46 47.842 121.213 47.5439 119.892C47.3956 119.232 47.2434 118.552 47.0879 117.858C47.0101 117.51 46.9319 117.159 46.8527 116.805C46.8133 116.628 46.7735 116.45 46.7336 116.271L46.6736 116.003L46.6434 115.868L46.6285 115.8L46.6208 115.766L46.617 115.75L46.6151 115.741L46.6141 115.737L46.6136 115.735C46.5455 115.841 46.7058 115.587 46.6904 115.613C49.5719 114.976 52.2724 114.379 54.5658 113.872L54.6512 113.853L54.6695 113.938C55.1773 116.301 55.6021 118.276 55.904 119.682C56.0442 120.355 56.1556 120.89 56.2362 121.277C56.2698 121.447 56.2972 121.584 56.3183 121.693C56.3356 121.786 56.3428 121.833 56.3389 121.831Z" fill="#263238"/>
<path d="M114.856 102.425L59.9365 114.662L60.9575 119.244L115.877 107.007L114.856 102.425Z" fill="#E0E0E0"/>
<path d="M59.3824 135.487C59.3785 135.485 59.3637 135.433 59.3387 135.336C59.3113 135.224 59.2763 135.083 59.2331 134.908C59.1409 134.519 59.0128 133.98 58.8525 133.304C58.5318 131.916 58.082 129.966 57.543 127.633L57.6467 127.699C55.3547 128.214 52.6561 128.82 49.7771 129.467C49.7593 129.492 49.9206 129.24 49.8529 129.348L49.8534 129.35L49.8544 129.354L49.8563 129.363L49.8601 129.38L49.8678 129.413L49.8827 129.481L49.9129 129.616L49.9729 129.885C50.0128 130.063 50.0521 130.241 50.092 130.418C50.1707 130.773 50.2485 131.124 50.3257 131.471C50.4798 132.166 50.6301 132.845 50.7769 133.507C51.0678 134.829 51.3424 136.077 51.5948 137.223L51.4912 137.157C53.8321 136.654 55.7891 136.234 57.1816 135.935C57.8622 135.792 58.4041 135.68 58.7953 135.598C58.972 135.563 59.1145 135.535 59.2273 135.512C59.3252 135.493 59.378 135.485 59.3824 135.487C59.3862 135.49 59.3411 135.503 59.2494 135.527C59.1419 135.553 59.0065 135.587 58.8385 135.629C58.4541 135.72 57.9217 135.847 57.2536 136.006C55.8524 136.329 53.8835 136.783 51.5281 137.327L51.4437 137.347L51.4245 137.261C51.1662 136.116 50.8849 134.87 50.5868 133.549C50.4385 132.888 50.2864 132.209 50.1309 131.515C50.0531 131.168 49.9748 130.816 49.8956 130.462C49.8563 130.285 49.8164 130.107 49.7766 129.928L49.7166 129.66L49.6864 129.525L49.6715 129.457L49.6638 129.423L49.66 129.407L49.6581 129.398L49.6571 129.394L49.6566 129.392C49.5884 129.498 49.7488 129.244 49.7334 129.27C52.6148 128.633 55.3153 128.036 57.6088 127.529L57.6942 127.51L57.7125 127.595C58.2203 129.958 58.6451 131.933 58.9475 133.339C59.0876 134.012 59.199 134.547 59.2797 134.934C59.3133 135.104 59.3401 135.241 59.3617 135.35C59.379 135.443 59.3862 135.49 59.3824 135.487Z" fill="#263238"/>
<path d="M117.9 116.082L62.9805 128.32L64.0014 132.902L118.921 120.664L117.9 116.082Z" fill="#E0E0E0"/>
<path d="M62.4258 149.144C62.422 149.142 62.4071 149.09 62.3822 148.992C62.3548 148.881 62.3198 148.74 62.2766 148.565C62.1844 148.176 62.0562 147.637 61.8959 146.961C61.5753 145.572 61.1255 143.623 60.5865 141.29L60.6902 141.356C58.3982 141.871 55.6996 142.476 52.8206 143.124C52.8028 143.149 52.9646 142.897 52.8964 143.005L52.8969 143.007L52.8978 143.012L52.8998 143.02L52.9036 143.037L52.9113 143.071L52.9262 143.138L52.9564 143.273L53.0164 143.542C53.0562 143.721 53.0956 143.899 53.135 144.076C53.2137 144.43 53.2919 144.781 53.3687 145.128C53.5228 145.823 53.673 146.503 53.8194 147.164C54.1103 148.486 54.3849 149.734 54.6374 150.88L54.5337 150.815C56.8746 150.312 58.8316 149.891 60.2241 149.592C60.9047 149.449 61.4466 149.337 61.8383 149.255C62.015 149.22 62.1575 149.192 62.2703 149.169C62.3692 149.15 62.422 149.142 62.4258 149.144C62.4297 149.147 62.3846 149.16 62.2929 149.184C62.1854 149.211 62.05 149.244 61.882 149.286C61.4975 149.377 60.9652 149.504 60.297 149.663C58.8959 149.986 56.9274 150.44 54.5721 150.984L54.4876 151.004L54.4684 150.918C54.2102 149.773 53.9289 148.527 53.6308 147.206C53.4825 146.545 53.3303 145.866 53.1748 145.172C53.097 144.824 53.0188 144.473 52.9396 144.119C52.9002 143.942 52.8604 143.764 52.8206 143.585L52.7606 143.316L52.7303 143.182L52.7154 143.114L52.7078 143.08L52.7039 143.064L52.702 143.055L52.701 143.051L52.7006 143.049C52.6324 143.155 52.7927 142.901 52.7774 142.927C55.6588 142.29 58.3593 141.693 60.6527 141.186L60.7382 141.167L60.7564 141.252C61.2642 143.615 61.689 145.59 61.991 146.996C62.1311 147.669 62.2425 148.204 62.3231 148.591C62.3567 148.761 62.3841 148.898 62.4052 149.007C62.423 149.1 62.4297 149.147 62.4258 149.144Z" fill="#263238"/>
<path d="M120.943 129.74L66.0234 141.978L67.0444 146.559L121.964 134.322L120.943 129.74Z" fill="#E0E0E0"/>
<path d="M48.7754 119.009L49.6 117.711L52.0524 119.074L55.2079 114.313L56.4295 115.155L52.3567 121.154L48.7754 119.009Z" fill="#0196CE"/>
<path d="M51.7178 132.209L52.5424 130.911L54.9943 132.274L58.1502 127.513L59.3719 128.355L55.2991 134.354L51.7178 132.209Z" fill="#0196CE"/>
<path d="M54.7334 145.743L55.558 144.445L58.0099 145.808L61.1654 141.048L62.3875 141.889L58.3142 147.888L54.7334 145.743Z" fill="#0196CE"/>
<path d="M79.87 162.727C79.882 162.781 75.2452 163.86 69.5149 165.137C63.7823 166.415 59.1273 167.406 59.1153 167.352C59.1033 167.298 63.7386 166.219 69.4713 164.941C75.2015 163.664 79.8575 162.673 79.87 162.727Z" fill="#263238"/>
<path d="M90.2116 160.255C90.2236 160.309 88.5177 160.735 86.4018 161.207C84.285 161.678 82.5604 162.017 82.5479 161.963C82.5359 161.908 84.2413 161.482 86.3581 161.01C88.474 160.539 90.1996 160.2 90.2116 160.255Z" fill="#263238"/>
<path d="M124.455 149.476C124.467 149.531 120.294 150.506 115.137 151.656C109.978 152.805 105.787 153.693 105.775 153.639C105.763 153.585 109.935 152.609 115.094 151.459C120.251 150.31 124.443 149.422 124.455 149.476Z" fill="#263238"/>
<path d="M119.997 162.112C119.985 162.108 120.037 161.98 120.088 161.73C120.144 161.48 120.147 161.093 120.03 160.621C119.91 160.148 119.662 159.601 119.366 158.969C119.083 158.339 118.715 157.591 118.709 156.68C118.723 155.786 119.117 154.793 119.926 154.096C120.725 153.386 121.978 153.136 123.116 153.502C123.682 153.686 124.228 154.006 124.634 154.499C124.828 154.75 124.983 155.051 124.994 155.397C125.025 155.75 124.754 156.1 124.431 156.208C124.112 156.331 123.801 156.367 123.487 156.443C123.171 156.507 122.854 156.573 122.533 156.639C121.892 156.766 121.237 156.883 120.569 156.971C119.236 157.149 117.897 157.174 116.642 156.993C116.028 156.928 115.38 156.918 114.918 157.274C114.457 157.626 114.224 158.197 113.879 158.677C113.71 158.919 113.494 159.15 113.21 159.275C112.93 159.405 112.604 159.401 112.33 159.312C111.776 159.125 111.369 158.754 110.929 158.505C110.711 158.377 110.485 158.272 110.254 158.249C110.024 158.227 109.793 158.283 109.61 158.412C109.239 158.676 109.043 159.112 108.797 159.478C108.311 160.254 107.476 160.621 106.771 160.647C106.047 160.682 105.46 160.375 105.09 160.051C104.712 159.721 104.524 159.37 104.425 159.13C104.329 158.887 104.316 158.749 104.316 158.749C104.327 158.746 104.356 158.88 104.462 159.114C104.571 159.344 104.766 159.68 105.141 159.991C105.508 160.297 106.077 160.579 106.764 160.534C107.439 160.499 108.226 160.14 108.678 159.4C108.917 159.043 109.103 158.592 109.522 158.284C109.731 158.135 110.003 158.064 110.27 158.089C110.538 158.115 110.785 158.23 111.012 158.361C111.468 158.619 111.881 158.981 112.381 159.144C112.629 159.221 112.899 159.22 113.136 159.11C113.374 159.004 113.568 158.802 113.729 158.57C114.059 158.114 114.286 157.526 114.803 157.121C115.061 156.922 115.384 156.819 115.703 156.783C116.024 156.747 116.345 156.767 116.662 156.798C117.915 156.975 119.218 156.948 120.543 156.772C121.205 156.685 121.856 156.569 122.495 156.444C122.815 156.378 123.131 156.313 123.446 156.249C123.757 156.176 124.085 156.132 124.357 156.027C124.633 155.926 124.816 155.684 124.8 155.401C124.794 155.122 124.659 154.844 124.484 154.618C124.114 154.166 123.594 153.853 123.06 153.679C121.981 153.327 120.795 153.557 120.035 154.224C119.261 154.88 118.873 155.829 118.852 156.683C118.848 157.548 119.195 158.29 119.47 158.923C119.755 159.559 119.996 160.118 120.106 160.603C120.214 161.089 120.198 161.486 120.128 161.738C120.063 161.99 119.997 162.112 119.997 162.112Z" fill="#263238"/>
<path d="M129.921 155.967C129.922 155.974 129.836 155.999 129.67 156.041C129.484 156.086 129.243 156.144 128.944 156.216C128.288 156.369 127.379 156.579 126.267 156.837C124.006 157.361 120.888 158.101 117.457 158.971C114.025 159.842 110.931 160.678 108.694 161.295C107.593 161.598 106.694 161.846 106.045 162.025C105.747 162.104 105.508 162.168 105.322 162.217C105.157 162.259 105.068 162.277 105.066 162.271C105.065 162.264 105.149 162.232 105.311 162.178C105.493 162.12 105.729 162.044 106.023 161.95C106.642 161.754 107.541 161.484 108.655 161.158C110.883 160.506 113.973 159.647 117.407 158.775C120.841 157.905 123.966 157.187 126.235 156.698C127.37 156.453 128.29 156.263 128.927 156.139C129.23 156.082 129.473 156.036 129.661 156.001C129.831 155.972 129.919 155.96 129.921 155.967Z" fill="#263238"/>
<path d="M90.5557 50.6438L53.2744 58.951L54.8352 65.9555L92.1164 57.6483L90.5557 50.6438Z" fill="#E0E0E0"/>
<path d="M125.816 164.307L137.861 227.937L148.867 207.6L169.729 219.844L147.584 157.884L125.816 164.307Z" fill="#0196CE"/>
<g opacity="0.3">
<path d="M129.867 185.707C132.093 186.166 134.692 185.378 136.272 183.744C137.369 182.609 138.101 181.067 139.485 180.306C140.727 179.624 142.259 179.721 143.625 180.098C144.991 180.476 146.277 181.109 147.649 181.464C150.338 182.162 153.303 181.722 155.674 180.273L152.2 170.625L136.07 168.611L128.38 177.849L129.867 185.707Z" fill="black"/>
</g>
<path d="M148.082 205.073C148.016 205.091 146.222 198.482 144.077 190.315C141.931 182.144 140.246 175.509 140.312 175.491C140.379 175.474 142.172 182.081 144.319 190.251C146.464 198.419 148.149 205.056 148.082 205.073Z" fill="#263238"/>
<path d="M127.58 167.617L115.535 231.246L104.529 210.91L83.667 223.154L105.812 161.194L127.58 167.617Z" fill="#0196CE"/>
<g opacity="0.3">
<path d="M99.1885 179.726C99.1885 179.726 102.614 182.546 106.701 181.247C110.788 179.947 113.325 179.674 115.536 181.247C117.747 182.819 123.732 187.945 123.732 187.945L125.122 180.604L117.084 169.565L108.689 171.26L102.711 171.857L100.488 176.064L99.1885 179.726Z" fill="black"/>
</g>
<path d="M198.193 110.178C198.193 114.743 192.358 118.676 191.505 122.99C190.625 127.436 194.495 133.296 192.799 137.387C191.073 141.549 184.176 142.948 181.699 146.648C179.204 150.375 180.535 157.28 177.374 160.44C174.213 163.601 167.309 162.27 163.581 164.765C159.882 167.242 158.482 174.139 154.32 175.865C150.23 177.562 144.369 173.691 139.924 174.571C135.609 175.424 131.676 181.26 127.111 181.26C122.546 181.26 118.613 175.424 114.298 174.571C109.853 173.691 103.992 177.561 99.9018 175.865C95.7397 174.14 94.3405 167.242 90.6411 164.765C86.9135 162.27 80.0087 163.601 76.8483 160.44C73.688 157.28 75.0191 150.375 72.5235 146.647C70.0472 142.948 63.1496 141.549 61.4235 137.387C59.7272 133.296 63.5975 127.436 62.7181 122.99C61.8647 118.675 56.0293 114.743 56.0293 110.177C56.0293 105.612 61.8647 101.679 62.7181 97.3646C63.5975 92.9189 59.7272 87.0586 61.4235 82.968C63.1491 78.8059 70.0467 77.4067 72.5235 73.7074C75.0191 69.9797 73.688 63.0749 76.8488 59.9146C80.0091 56.7542 86.9139 58.0853 90.6416 55.5898C94.341 53.113 95.7402 46.2158 99.9023 44.4898C103.993 42.7934 109.853 46.6637 114.299 45.7843C118.614 44.9309 122.546 39.0955 127.112 39.0955C131.677 39.0955 135.609 44.9309 139.924 45.7843C144.37 46.6637 150.23 42.7939 154.321 44.4898C158.483 46.2154 159.882 53.113 163.581 55.5898C167.309 58.0853 174.214 56.7542 177.374 59.9146C180.535 63.0749 179.204 69.9797 181.699 73.7074C184.175 77.4067 191.073 78.8059 192.799 82.968C194.495 87.0586 190.625 92.9189 191.505 97.3646C192.358 101.68 198.193 105.612 198.193 110.178Z" fill="#0196CE"/>
<path d="M110.481 70.3349C110.473 70.3387 110.429 70.271 110.351 70.1386C110.263 69.9792 110.155 69.7862 110.024 69.5534C109.743 69.0437 109.354 68.2958 108.892 67.3637C107.964 65.4998 106.765 62.8824 105.609 59.9222C104.455 56.9602 103.564 54.2218 102.985 52.2226C102.694 51.2232 102.474 50.4101 102.335 49.8446C102.273 49.585 102.222 49.3699 102.18 49.1928C102.147 49.043 102.134 48.9634 102.142 48.961C102.15 48.9586 102.18 49.0339 102.228 49.1794C102.283 49.3531 102.349 49.5638 102.429 49.8187C102.612 50.4115 102.857 51.2064 103.154 52.1717C103.776 54.1546 104.691 56.8771 105.842 59.832C106.995 62.785 108.165 65.4072 109.051 67.2878C109.485 68.1994 109.844 68.9501 110.11 69.5098C110.224 69.7512 110.318 69.9514 110.396 70.116C110.458 70.2552 110.488 70.3306 110.481 70.3349Z" fill="#263238"/>
<path d="M116.806 67.9291C116.789 67.9334 116.725 67.7448 116.623 67.3997C116.52 67.055 116.384 66.5525 116.225 65.9294C115.909 64.6829 115.516 62.9491 115.161 61.019C114.807 59.088 114.557 57.3274 114.411 56.0496C114.338 55.4107 114.286 54.8928 114.26 54.5342C114.233 54.1757 114.227 53.9765 114.244 53.9746C114.261 53.9726 114.3 54.168 114.357 54.5227C114.419 54.9302 114.496 55.4328 114.586 56.0261C114.777 57.2957 115.053 59.0472 115.407 60.9734C115.761 62.8992 116.125 64.6344 116.397 65.8886C116.524 66.4757 116.631 66.9725 116.717 67.3757C116.79 67.728 116.823 67.9248 116.806 67.9291Z" fill="#263238"/>
<path d="M127.966 66.8203C127.897 66.8218 127.719 61.4376 127.569 54.7958C127.419 48.1517 127.353 42.7661 127.422 42.7646C127.491 42.7632 127.669 48.1464 127.819 54.7906C127.969 61.4318 128.034 66.8189 127.966 66.8203Z" fill="#263238"/>
<path d="M139.195 55.7573C139.261 55.7779 138.486 58.4702 137.465 61.7698C136.443 65.0707 135.561 67.7294 135.495 67.7093C135.429 67.6891 136.204 64.9973 137.226 61.6958C138.247 58.3958 139.129 55.7366 139.195 55.7573Z" fill="#263238"/>
<path d="M143.779 69.6706C143.771 69.6677 143.792 69.5894 143.84 69.4435C143.899 69.2712 143.972 69.0624 144.058 68.8104C144.251 68.2613 144.55 67.4746 144.923 66.5035C145.673 64.5634 146.752 61.9003 147.98 58.9747C149.208 56.0477 150.349 53.411 151.19 51.5093C151.605 50.5882 151.946 49.8293 152.201 49.2634C152.315 49.0224 152.41 48.8227 152.489 48.6586C152.557 48.5213 152.597 48.4512 152.605 48.4546C152.613 48.4579 152.588 48.5352 152.535 48.6787C152.468 48.8482 152.388 49.0541 152.29 49.3022C152.054 49.8763 151.737 50.6453 151.353 51.5794C150.535 53.5301 149.431 56.1624 148.211 59.0717C146.998 61.9824 145.901 64.6166 145.088 66.5693C144.703 67.5029 144.386 68.2718 144.15 68.8454C144.045 69.0907 143.959 69.2942 143.887 69.4618C143.824 69.6014 143.787 69.6734 143.779 69.6706Z" fill="#263238"/>
<path d="M149.78 72.7997C149.765 72.7901 149.864 72.6168 150.053 72.311C150.242 72.0048 150.528 71.5694 150.888 71.0371C151.609 69.972 152.644 68.5267 153.851 66.9787C155.059 65.4307 156.209 64.0752 157.066 63.1166C157.495 62.6371 157.848 62.255 158.099 61.9968C158.349 61.7381 158.493 61.6008 158.506 61.6123C158.519 61.6238 158.399 61.7832 158.172 62.0611C157.909 62.3784 157.584 62.7696 157.201 63.2318C156.379 64.2182 155.253 65.5882 154.048 67.1323C152.844 68.6765 151.789 70.1016 151.033 71.1389C150.678 71.6232 150.377 72.0336 150.133 72.3658C149.919 72.6542 149.794 72.8093 149.78 72.7997Z" fill="#263238"/>
<path d="M158.505 79.9541C158.458 79.9037 162.256 76.2936 166.987 71.8925C171.719 67.4899 175.593 63.9629 175.64 64.0133C175.687 64.0637 171.89 67.6728 167.157 72.0754C162.426 76.477 158.552 80.0045 158.505 79.9541Z" fill="#263238"/>
<path d="M173.752 81.445C173.768 81.4795 173.205 81.7613 172.306 82.2331C171.405 82.7035 170.178 83.3822 168.825 84.1421C167.471 84.9024 166.224 85.56 165.3 85.991C164.838 86.2066 164.461 86.3741 164.195 86.4787C163.931 86.5853 163.781 86.6366 163.774 86.6208C163.758 86.5867 164.321 86.3045 165.22 85.8326C166.121 85.3622 167.348 84.6835 168.702 83.9232C170.056 83.1634 171.303 82.5058 172.227 82.0742C172.688 81.8587 173.066 81.6912 173.331 81.5866C173.596 81.4805 173.745 81.4291 173.752 81.445Z" fill="#263238"/>
<path d="M187.866 87.2995C187.889 87.3648 183.368 89.0155 177.769 90.9864C172.169 92.9578 167.612 94.5029 167.589 94.4381C167.566 94.3728 172.086 92.7226 177.686 90.7507C183.285 88.7798 187.843 87.2342 187.866 87.2995Z" fill="#263238"/>
<path d="M192.359 112.963C192.352 113.032 187.439 112.62 181.386 112.044C175.332 111.468 170.43 110.945 170.437 110.877C170.443 110.808 175.355 111.219 181.41 111.796C187.463 112.372 192.365 112.895 192.359 112.963Z" fill="#263238"/>
<path d="M188.745 135.983C188.716 136.045 184.122 133.937 178.487 131.274C172.849 128.611 168.304 126.402 168.334 126.34C168.363 126.277 172.956 128.385 178.594 131.049C184.229 133.711 188.774 135.92 188.745 135.983Z" fill="#263238"/>
<path d="M173.635 157.884C173.582 157.929 170.269 154.086 166.236 149.302C162.201 144.517 158.974 140.603 159.027 140.558C159.08 140.514 162.392 144.356 166.427 149.141C170.46 153.925 173.688 157.84 173.635 157.884Z" fill="#263238"/>
<path d="M161.023 160.777C161.008 160.787 160.866 160.594 160.622 160.238C160.377 159.882 160.034 159.36 159.617 158.71C158.782 157.411 157.663 155.593 156.486 153.552C155.308 151.51 154.294 149.632 153.587 148.259C153.233 147.573 152.953 147.014 152.767 146.624C152.581 146.234 152.485 146.015 152.501 146.007C152.516 145.999 152.641 146.203 152.853 146.579C153.087 146.998 153.385 147.534 153.742 148.176C154.489 149.526 155.526 151.388 156.702 153.427C157.879 155.465 158.971 157.295 159.767 158.617C160.144 159.248 160.459 159.774 160.704 160.186C160.923 160.558 161.037 160.768 161.023 160.777Z" fill="#263238"/>
<path d="M153.187 171.792C153.179 171.796 153.137 171.729 153.062 171.596C152.977 171.436 152.873 171.242 152.748 171.009C152.479 170.498 152.107 169.749 151.665 168.816C150.781 166.949 149.644 164.327 148.563 161.364C147.484 158.399 146.667 155.66 146.144 153.662C145.881 152.663 145.683 151.85 145.561 151.286C145.507 151.027 145.462 150.812 145.424 150.635C145.396 150.486 145.385 150.406 145.393 150.404C145.402 150.402 145.429 150.478 145.473 150.623C145.523 150.797 145.583 151.008 145.656 151.262C145.822 151.856 146.044 152.651 146.314 153.615C146.88 155.598 147.721 158.321 148.797 161.278C149.876 164.233 150.984 166.859 151.826 168.742C152.24 169.654 152.581 170.405 152.836 170.966C152.944 171.208 153.033 171.408 153.107 171.573C153.167 171.713 153.195 171.789 153.187 171.792Z" fill="#263238"/>
<path d="M137.318 164.07C137.281 164.072 137.222 163.431 137.11 162.399C136.999 161.366 136.825 159.943 136.565 158.382C136.302 156.82 136.004 155.417 135.773 154.405C135.542 153.393 135.39 152.767 135.425 152.757C135.442 152.752 135.5 152.903 135.593 153.18C135.686 153.456 135.807 153.86 135.944 154.362C136.22 155.367 136.548 156.771 136.811 158.34C137.073 159.91 137.22 161.344 137.286 162.384C137.32 162.903 137.337 163.325 137.339 163.616C137.341 163.908 137.335 164.069 137.318 164.07Z" fill="#263238"/>
<path d="M126.936 177.888C126.928 177.888 126.92 177.803 126.915 177.641C126.912 177.451 126.908 177.218 126.904 176.936C126.898 176.323 126.902 175.436 126.922 174.341C126.958 172.15 127.059 169.124 127.234 165.785C127.408 162.445 127.623 159.426 127.799 157.242C127.889 156.15 127.968 155.267 128.031 154.657C128.062 154.377 128.088 154.145 128.109 153.956C128.13 153.796 128.146 153.712 128.155 153.713C128.163 153.714 128.165 153.799 128.16 153.96C128.151 154.15 128.141 154.383 128.128 154.666C128.09 155.315 128.038 156.19 127.975 157.255C127.848 159.476 127.675 162.48 127.484 165.799C127.309 169.136 127.181 172.158 127.099 174.347C127.059 175.413 127.026 176.289 127.002 176.939C126.987 177.221 126.976 177.454 126.966 177.643C126.955 177.803 126.945 177.888 126.936 177.888Z" fill="#263238"/>
<path d="M118.497 153.712C118.531 153.719 118.479 154.187 118.353 154.937C118.229 155.688 118.027 156.72 117.762 157.849C117.497 158.98 117.22 159.994 116.998 160.722C116.777 161.45 116.615 161.892 116.583 161.883C116.549 161.873 116.65 161.413 116.828 160.676C117.025 159.852 117.26 158.874 117.519 157.793C117.767 156.709 117.991 155.73 118.18 154.903C118.349 154.163 118.462 153.706 118.497 153.712Z" fill="#263238"/>
<path d="M103.239 146.381C103.295 146.423 102.354 147.756 101.139 149.357C99.9245 150.96 98.8949 152.224 98.8402 152.182C98.785 152.14 99.7253 150.808 100.941 149.206C102.155 147.604 103.184 146.34 103.239 146.381Z" fill="#263238"/>
<path d="M95.2347 141.003C95.2865 141.049 92.3081 144.547 88.5823 148.815C84.8556 153.085 81.7927 156.508 81.7409 156.463C81.6891 156.417 84.667 152.92 88.3942 148.651C92.1195 144.382 95.1823 140.958 95.2347 141.003Z" fill="#263238"/>
<path d="M91.2288 135.05C91.2725 135.104 89.6155 136.542 87.5275 138.263C85.439 139.984 83.711 141.336 83.6669 141.282C83.6232 141.229 85.2797 139.791 87.3681 138.07C89.4561 136.349 91.1846 134.997 91.2288 135.05Z" fill="#263238"/>
<path d="M86.5428 126.068C86.5731 126.13 82.4239 128.191 77.2774 130.671C72.1289 133.152 67.9323 135.113 67.9025 135.05C67.8727 134.988 72.0204 132.927 77.1689 130.446C82.3155 127.966 86.5131 126.006 86.5428 126.068Z" fill="#263238"/>
<path d="M84.66 121.587C84.6633 121.604 84.5097 121.649 84.2289 121.715C83.9486 121.782 83.5401 121.866 83.0332 121.96C82.02 122.148 80.6107 122.362 79.0454 122.519C77.4792 122.675 76.0555 122.745 75.0249 122.761C74.5094 122.77 74.0928 122.769 73.8043 122.758C73.5163 122.749 73.3569 122.736 73.3564 122.718C73.356 122.682 73.992 122.647 75.0177 122.585C76.044 122.523 77.46 122.426 79.02 122.27C80.5795 122.114 81.9864 121.928 83.0044 121.786C84.023 121.643 84.6532 121.551 84.66 121.587Z" fill="#263238"/>
<path d="M83.1401 111.246C83.1387 111.263 82.8396 111.255 82.3001 111.228C81.7198 111.198 80.9499 111.158 80.0172 111.11C78.09 111.017 75.4256 110.929 72.4822 110.943C69.5379 110.96 66.8744 111.077 64.9481 111.191C64.0164 111.249 63.247 111.297 62.6667 111.333C62.1281 111.367 61.8291 111.377 61.8272 111.36C61.8257 111.343 62.1214 111.3 62.658 111.236C63.1947 111.17 63.9728 111.094 64.9356 111.014C66.8614 110.855 69.5297 110.71 72.4803 110.693C75.4299 110.678 78.0996 110.795 80.0268 110.933C80.9907 111.002 81.7697 111.071 82.3068 111.13C82.8454 111.189 83.1416 111.228 83.1401 111.246Z" fill="#263238"/>
<path d="M84.083 102.163C84.0643 102.229 80.9563 101.42 77.1417 100.356C73.3257 99.2909 70.2484 98.3741 70.2667 98.3074C70.2854 98.2406 73.3929 99.0499 77.2089 100.115C81.0235 101.179 84.1017 102.096 84.083 102.163Z" fill="#263238"/>
<path d="M86.0912 94.5475C86.0883 94.5557 86.0105 94.5379 85.8646 94.4966C85.6913 94.4443 85.4821 94.3805 85.2296 94.3042C84.679 94.1342 83.8899 93.8654 82.9217 93.5131C80.9854 92.8099 78.3459 91.7333 75.523 90.3451C72.7011 88.9531 70.2382 87.517 68.5001 86.4106C67.6309 85.8581 66.9368 85.3963 66.4664 85.0637C66.2518 84.9101 66.0742 84.7829 65.9269 84.6778C65.8049 84.5875 65.7435 84.5362 65.7483 84.529C65.7531 84.5218 65.8241 84.5587 65.9547 84.636C66.1088 84.7306 66.295 84.8448 66.5197 84.9826C67.0059 85.2902 67.7134 85.7285 68.5928 86.2603C70.351 87.3259 72.8197 88.7333 75.6329 90.1205C78.4472 91.5043 81.0675 92.6035 82.9837 93.3475C83.9417 93.7205 84.7203 94.0142 85.2608 94.212C85.507 94.3061 85.711 94.3843 85.88 94.4486C86.0216 94.5058 86.0941 94.5394 86.0912 94.5475Z" fill="#263238"/>
<path d="M90.6102 86.892C90.5703 86.9486 88.1406 85.3056 85.1833 83.2234C82.225 81.1402 79.8601 79.4064 79.8999 79.3498C79.9398 79.2931 82.369 80.9357 85.3273 83.0189C88.2846 85.1016 90.65 86.8358 90.6102 86.892Z" fill="#263238"/>
<path d="M81.06 63.5602C81.0658 63.5539 81.1282 63.6 81.2419 63.6931C81.3758 63.8078 81.5366 63.9456 81.7301 64.1112C82.1779 64.5082 82.7746 65.0371 83.4979 65.6779C85.0142 67.031 87.0557 68.8522 89.3122 70.8653C91.5782 72.8688 93.6278 74.6818 95.1504 76.0277C95.8723 76.6704 96.468 77.2003 96.9149 77.5982C97.1021 77.7706 97.2576 77.9141 97.3872 78.0336C97.4933 78.1354 97.5466 78.192 97.5408 78.1982C97.535 78.205 97.4712 78.1613 97.3541 78.072C97.2163 77.9621 97.0502 77.8306 96.851 77.6722C96.4171 77.3208 95.7965 76.8053 95.0342 76.1616C93.5098 74.8747 91.4222 73.0742 89.1456 71.0525C86.8699 69.0307 84.8357 67.1712 83.3779 65.809C82.6493 65.1278 82.0632 64.572 81.6634 64.1832C81.4824 64.0042 81.3322 63.8549 81.2069 63.7306C81.1051 63.625 81.0543 63.5664 81.06 63.5602Z" fill="#263238"/>
<path d="M96.0337 63.9965C96.0471 63.9854 96.1628 64.1045 96.3601 64.3286C96.5578 64.5523 96.8343 64.8845 97.1684 65.3011C97.8365 66.1339 98.7255 67.3128 99.6457 68.6578C100.566 70.0037 101.342 71.2598 101.876 72.1848C102.143 72.647 102.352 73.0253 102.489 73.2907C102.626 73.5562 102.695 73.7069 102.68 73.715C102.649 73.7333 102.296 73.175 101.725 72.2765C101.154 71.377 100.357 70.1405 99.4397 68.7989C98.5225 67.4582 97.6594 66.2669 97.0282 65.4086C96.3975 64.5499 96.0053 64.0195 96.0337 63.9965Z" fill="#263238"/>
<g opacity="0.2">
<path d="M76.8496 59.915L97.731 78.1987L102.922 74.0453L90.8042 55.4774C90.8042 55.4774 89.8758 56.1605 87.4629 56.8498C85.1258 57.5179 78.2435 57.6965 76.8496 59.915Z" fill="black"/>
</g>
<g opacity="0.2">
<path d="M100.093 44.4485L110.29 69.971L116.805 67.9296L114.634 45.7934C114.634 45.7934 113.512 46.056 111.023 45.7397C108.611 45.433 102.758 43.1443 100.093 44.4485Z" fill="black"/>
</g>
<g opacity="0.3">
<path d="M127.282 39.1042L127.966 66.8203L134.074 67.1136L140.258 45.8414C140.14 45.8309 138.544 45.5549 136.662 44.352C134.547 43.0008 130.24 38.8838 127.282 39.1042Z" fill="black"/>
</g>
<g opacity="0.2">
<path d="M153.912 44.3405L143.778 69.8918L149.295 72.5294L163.24 55.3162C163.135 55.261 161.814 54.1603 160.592 52.2024C159.263 50.0726 156.998 45.1934 153.912 44.3405Z" fill="black"/>
</g>
<g opacity="0.2">
<path d="M177.71 60.2851L158.835 79.9541L163.042 85.6229L181.483 73.3142C181.483 73.3142 180.709 72.0864 180.27 69.7234C179.826 67.333 179.762 62.9774 177.71 60.2851Z" fill="black"/>
</g>
<g opacity="0.2">
<path d="M192.608 82.489L167.192 92.9496L169.301 99.443L191.414 97.0435C191.414 97.0435 191.275 96.36 191.566 93.8674C191.848 91.4525 194.383 86.0592 192.608 82.489Z" fill="black"/>
</g>
<g opacity="0.2">
<path d="M198.233 110.178L170.525 111.148L170.295 117.258L191.432 123.442C191.441 123.324 191.629 122.13 192.27 120.919C193.826 117.976 198.233 113.827 198.233 110.178Z" fill="black"/>
</g>
<g opacity="0.2">
<path d="M193.13 136.378L167.618 126.434L165.037 131.978L182.393 145.744C182.448 145.639 183.461 144.7 185.406 143.458C187.523 142.107 192.543 139.925 193.13 136.378Z" fill="black"/>
</g>
<g opacity="0.2">
<path d="M155.604 135.983L149.29 141.282C149.768 141.782 158.184 156.085 163.369 164.928C163.441 164.876 163.508 164.815 163.581 164.765C166.996 162.479 173.072 163.395 176.498 161.134L155.604 135.983Z" fill="black"/>
<path d="M144.001 146.007L134.573 149.221L139.037 174.817C139.331 174.714 139.627 174.63 139.925 174.571C144.371 173.691 150.231 177.562 154.321 175.865C154.884 175.632 155.392 175.298 155.867 174.9L144.001 146.007Z" fill="black"/>
<path d="M126.785 181.247L128.292 147.809L120.14 145.744L114.075 174.534C114.15 174.546 114.225 174.556 114.3 174.57C118.511 175.404 122.359 180.98 126.785 181.247Z" fill="black"/>
<path d="M106.289 142.133C106.289 142.133 95.5171 156.56 89.8857 164.33C90.1493 164.461 90.4027 164.605 90.6422 164.765C94.3416 167.242 95.7408 174.14 99.9029 175.865C100.094 175.944 100.29 176.008 100.488 176.064L115.536 147.581L106.289 142.133Z" fill="black"/>
<path d="M95.2345 130.516L72.2617 146.305C72.3496 146.419 72.4456 146.529 72.5248 146.647C75.0203 150.375 73.6892 157.28 76.8496 160.44C77.1404 160.731 77.4716 160.973 77.8206 161.194C85.9384 152.044 100.511 135.621 101.039 135.05L95.2345 130.516Z" fill="black"/>
<path d="M89.9709 119.243L62.8101 123.63C63.2425 127.986 59.8086 133.489 61.4248 137.387C61.5237 137.625 61.6437 137.852 61.7747 138.073C71.2797 133.341 91.1392 123.496 91.9653 123.442L89.9709 119.243Z" fill="black"/>
<path d="M88.4879 104.114L62.8122 96.7042C62.7906 96.9274 62.7623 97.1486 62.7191 97.3656C61.8656 101.68 56.0303 105.613 56.0303 110.178C56.0303 110.484 56.0586 110.788 56.1076 111.089H87.4482L88.4879 104.114Z" fill="black"/>
<path d="M61.5283 82.7645C71.1226 87.9067 89.8858 98.3078 89.8858 98.3078L94.5034 89.5387L72.8136 73.2086C72.721 73.3781 72.6307 73.5499 72.5242 73.7083C70.0901 77.3443 63.395 78.7646 61.5283 82.7645Z" fill="black"/>
</g>
<path d="M198.194 110.178C198.194 110.178 198.182 110.076 198.163 109.874C198.137 109.673 198.147 109.368 198.037 108.981C197.886 108.198 197.447 107.072 196.598 105.763C195.774 104.437 194.524 102.957 193.222 101.079C192.587 100.135 191.926 99.0686 191.573 97.789C191.222 96.5074 191.289 95.0645 191.565 93.6096C191.83 92.1461 192.266 90.6389 192.648 89.04C193 87.4498 193.381 85.7126 193.026 83.9448C192.837 83.0717 192.423 82.2389 191.833 81.5155C191.237 80.7946 190.489 80.1888 189.699 79.621C188.105 78.4906 186.275 77.5853 184.522 76.4059C183.65 75.8136 182.784 75.1541 182.072 74.3122C181.353 73.4726 180.887 72.4258 180.572 71.3429C179.955 69.1603 179.819 66.8242 179.35 64.4909C179.111 63.3298 178.788 62.1494 178.168 61.103C177.561 60.048 176.58 59.232 175.434 58.7376C174.291 58.2302 173.034 57.9672 171.763 57.7565C170.489 57.5472 169.187 57.3989 167.878 57.1666C166.574 56.9323 165.237 56.6232 164.03 55.955C162.816 55.2917 161.867 54.2251 161.071 53.0894C160.275 51.9446 159.59 50.7158 158.86 49.5029C158.129 48.2938 157.361 47.0779 156.365 46.0445C155.37 45.0206 154.043 44.2838 152.579 44.1878C151.122 44.0794 149.645 44.3582 148.19 44.7034C146.731 45.0538 145.27 45.48 143.757 45.7642C142.256 46.057 140.643 46.1602 139.121 45.6773C137.623 45.157 136.301 44.2483 135.026 43.3123C133.748 42.372 132.499 41.3702 131.13 40.5389C129.769 39.7344 128.214 39.0638 126.597 39.2453L126.297 39.2683C126.198 39.2851 126.1 39.311 126.002 39.3317C125.806 39.3782 125.607 39.4142 125.413 39.469C125.032 39.6091 124.642 39.7229 124.279 39.9125C123.534 40.2437 122.84 40.6925 122.152 41.1475C120.784 42.0797 119.496 43.1501 118.096 44.101C117.403 44.5862 116.661 45.012 115.887 45.3782C115.103 45.7315 114.251 45.9446 113.387 46.0099C111.649 46.0949 109.941 45.7027 108.267 45.2803C106.588 44.8598 104.909 44.3779 103.177 44.2118C102.313 44.1394 101.438 44.1758 100.6 44.3851C99.7557 44.5882 99.0069 45.0677 98.3426 45.6254C97.0187 46.7808 96.0933 48.335 95.1731 49.8634C94.2554 51.4003 93.3837 53.003 92.1645 54.3826C91.5496 55.0598 90.8382 55.6776 90.005 56.0957C89.1722 56.5046 88.2842 56.7782 87.3856 56.9904C85.5813 57.3864 83.7381 57.5558 81.9218 57.8846C80.1256 58.211 78.2565 58.7218 76.9245 60.0125C76.2837 60.6706 75.8349 61.4942 75.5056 62.3597C75.1691 63.2266 74.9762 64.1486 74.8058 65.0726C74.4693 66.9245 74.3142 68.8262 73.8654 70.6958C73.6518 71.6304 73.3307 72.5558 72.844 73.4002C72.3563 74.244 71.6805 74.976 70.9202 75.577C69.4034 76.7962 67.6782 77.6986 66.0304 78.7075C65.2086 79.2158 64.397 79.7448 63.6501 80.3558C62.9147 80.9755 62.2466 81.6869 61.7887 82.5269C61.3245 83.3621 61.1123 84.3259 61.12 85.2931C61.1166 86.2608 61.2616 87.2299 61.457 88.1894C61.863 90.108 62.4722 91.9978 62.7971 93.9706C62.9666 94.9531 63.0275 95.9698 62.896 96.9739C62.7669 97.9814 62.3776 98.939 61.8933 99.8198C60.8935 101.574 59.5879 103.112 58.4306 104.746C57.8459 105.558 57.3064 106.405 56.8826 107.307C56.4616 108.205 56.1635 109.174 56.1563 110.167C56.1626 111.159 56.4539 112.129 56.8734 113.029C57.2944 113.933 57.8354 114.78 58.419 115.593C59.5754 117.228 60.8829 118.765 61.8842 120.519C62.3699 121.4 62.7616 122.356 62.8946 123.364C63.0295 124.368 62.9694 125.386 62.8 126.369C62.4774 128.342 61.8669 130.233 61.4608 132.152C61.2655 133.112 61.1186 134.081 61.12 135.049C61.1094 136.017 61.3231 136.98 61.7834 137.818C62.2389 138.659 62.9066 139.372 63.6415 139.992C64.3888 140.603 65.199 141.134 66.0213 141.642C67.6701 142.652 69.3952 143.555 70.9134 144.772C71.6733 145.374 72.3511 146.104 72.8402 146.947C73.3288 147.791 73.6495 148.717 73.864 149.651C74.3142 151.521 74.4688 153.423 74.8048 155.275C74.9747 156.2 75.1682 157.122 75.5042 157.989C75.8334 158.855 76.2798 159.68 76.9216 160.338C78.2522 161.631 80.1218 162.143 81.9179 162.469C83.7347 162.799 85.5784 162.968 87.3832 163.364C88.2822 163.575 89.1698 163.849 90.003 164.257C90.8363 164.676 91.5482 165.293 92.1635 165.971C93.3832 167.35 94.2549 168.953 95.1731 170.49C96.0938 172.019 97.0192 173.573 98.343 174.729C99.0074 175.287 99.7562 175.766 100.601 175.97C101.439 176.179 102.315 176.216 103.179 176.143C104.91 175.977 106.59 175.495 108.268 175.074C109.943 174.652 111.652 174.26 113.39 174.345C114.254 174.411 115.106 174.624 115.889 174.978C116.664 175.344 117.406 175.77 118.098 176.256C119.499 177.207 120.787 178.277 122.155 179.209C122.843 179.664 123.537 180.113 124.283 180.444C124.646 180.634 125.037 180.747 125.417 180.888C125.611 180.942 125.81 180.978 126.006 181.025C126.104 181.045 126.202 181.072 126.301 181.088L126.601 181.111C128.219 181.292 129.773 180.62 131.135 179.816C132.504 178.983 133.752 177.982 135.03 177.041C136.306 176.106 137.627 175.196 139.127 174.677C140.648 174.195 142.262 174.3 143.763 174.593C145.276 174.877 146.737 175.304 148.196 175.654C149.652 175.999 151.128 176.277 152.585 176.168C154.048 176.07 155.376 175.333 156.37 174.308C157.366 173.274 158.134 172.057 158.864 170.848C159.593 169.635 160.278 168.407 161.075 167.262C161.872 166.127 162.821 165.06 164.036 164.398C165.244 163.731 166.581 163.423 167.884 163.189C169.194 162.957 170.496 162.808 171.77 162.599C173.041 162.388 174.297 162.125 175.44 161.616C176.585 161.121 177.567 160.304 178.172 159.248C178.792 158.201 179.114 157.021 179.353 155.86C179.821 153.527 179.957 151.19 180.575 149.008C180.889 147.925 181.357 146.879 182.077 146.04C182.789 145.199 183.655 144.54 184.528 143.948C186.281 142.769 188.111 141.863 189.704 140.733C190.494 140.165 191.242 139.558 191.837 138.838C192.426 138.114 192.84 137.28 193.028 136.407C193.232 135.534 193.18 134.642 193.101 133.792C193.017 132.936 192.825 132.114 192.648 131.313C192.266 129.714 191.83 128.207 191.565 126.744C191.29 125.289 191.224 123.846 191.575 122.565C191.929 121.286 192.589 120.22 193.224 119.276C194.527 117.398 195.776 115.919 196.6 114.592C197.449 113.283 197.888 112.158 198.038 111.375C198.148 110.988 198.139 110.683 198.164 110.483C198.182 110.28 198.194 110.178 198.194 110.178C198.194 110.178 198.19 110.28 198.176 110.482C198.155 110.683 198.168 110.99 198.062 111.379C197.92 112.167 197.486 113.302 196.642 114.618C195.822 115.952 194.577 117.44 193.285 119.316C192.655 120.26 192.002 121.323 191.657 122.586C191.314 123.851 191.382 125.278 191.66 126.726C191.928 128.182 192.366 129.685 192.753 131.287C192.932 132.091 193.126 132.915 193.214 133.778C193.294 134.637 193.35 135.538 193.144 136.431C192.954 137.323 192.532 138.178 191.933 138.915C191.328 139.65 190.573 140.264 189.778 140.837C188.176 141.978 186.345 142.887 184.604 144.062C183.739 144.652 182.884 145.306 182.187 146.132C181.484 146.953 181.028 147.976 180.718 149.049C180.109 151.208 179.975 153.541 179.508 155.891C179.269 157.06 178.945 158.256 178.312 159.331C177.693 160.415 176.675 161.264 175.508 161.769C174.342 162.289 173.073 162.555 171.797 162.768C170.518 162.981 169.216 163.13 167.915 163.363C166.619 163.596 165.299 163.905 164.123 164.556C162.943 165.201 162.015 166.241 161.226 167.368C160.438 168.503 159.755 169.728 159.025 170.945C158.294 172.159 157.522 173.386 156.507 174.443C155.498 175.491 154.108 176.264 152.602 176.364C151.106 176.477 149.612 176.194 148.149 175.849C146.683 175.498 145.224 175.074 143.725 174.793C142.236 174.504 140.661 174.408 139.191 174.875C137.733 175.38 136.425 176.277 135.155 177.211C133.881 178.15 132.63 179.155 131.245 179.999C130.888 180.192 130.547 180.416 130.17 180.576C129.984 180.661 129.802 180.755 129.613 180.832L129.032 181.038C128.249 181.276 127.412 181.436 126.581 181.327L126.269 181.303C126.166 181.286 126.065 181.259 125.964 181.238C125.761 181.19 125.555 181.152 125.355 181.096C124.964 180.953 124.562 180.836 124.192 180.643C123.429 180.304 122.727 179.85 122.031 179.391C120.652 178.452 119.361 177.382 117.973 176.44C117.286 175.958 116.556 175.541 115.798 175.182C115.032 174.838 114.214 174.635 113.375 174.57C111.685 174.488 109.994 174.873 108.324 175.296C106.649 175.715 104.962 176.202 103.198 176.373C102.316 176.447 101.414 176.412 100.54 176.194C99.6582 175.981 98.8749 175.481 98.1904 174.905C96.8258 173.713 95.8955 172.142 94.9706 170.61C94.0514 169.071 93.1806 167.477 91.9869 166.129C91.384 165.467 90.6995 164.874 89.8946 164.47C89.0867 164.074 88.2165 163.805 87.3299 163.596C85.5467 163.206 83.7059 163.036 81.8738 162.706C80.9608 162.529 80.0392 162.34 79.1599 161.992C78.2824 161.653 77.4357 161.183 76.7488 160.508C76.0758 159.818 75.6136 158.961 75.2757 158.074C74.9315 157.184 74.7362 156.25 74.5643 155.318C74.2254 153.451 74.0699 151.552 73.625 149.708C73.4133 148.786 73.0984 147.883 72.6271 147.07C72.1557 146.258 71.5043 145.553 70.757 144.962C69.2675 143.767 67.5486 142.865 65.8912 141.852C65.0637 141.34 64.2443 140.805 63.4821 140.182C62.7319 139.548 62.0407 138.814 61.564 137.934C61.0816 137.059 60.8599 136.044 60.8709 135.051C60.869 134.055 61.0192 133.069 61.2165 132.1C61.6269 130.164 62.2355 128.276 62.5533 126.329C62.7203 125.359 62.7765 124.366 62.6469 123.397C62.5192 122.428 62.1429 121.506 61.6658 120.64C60.6827 118.917 59.38 117.383 58.215 115.737C57.6275 114.918 57.0784 114.059 56.6469 113.134C56.2173 112.212 55.9125 111.206 55.9062 110.166C55.9139 109.125 56.225 108.12 56.656 107.201C57.0899 106.278 57.6381 105.419 58.2266 104.601C59.3925 102.957 60.6933 101.423 61.6749 99.6984C62.1506 98.8325 62.5245 97.9099 62.6488 96.9403C62.7755 95.9722 62.7184 94.9795 62.5509 94.0099C62.2312 92.064 61.623 90.1757 61.2136 88.2403C61.0168 87.2712 60.868 86.2858 60.8719 85.2902C60.8632 84.2976 61.084 83.2824 61.5703 82.4088C62.0493 81.5309 62.7414 80.7974 63.4922 80.1653C64.2539 79.5422 65.0742 79.008 65.9013 78.4968C67.5578 77.4835 69.2766 76.5826 70.7646 75.3864C71.512 74.7955 72.1619 74.0894 72.6318 73.2768C73.1013 72.4627 73.4167 71.5603 73.6274 70.6382C74.0709 68.795 74.2269 66.8962 74.5658 65.0299C74.7381 64.0982 74.9334 63.1642 75.2781 62.2747C75.616 61.3877 76.0802 60.5318 76.7526 59.8421C77.4405 59.1686 78.2877 58.6997 79.1651 58.3608C80.0445 58.0138 80.9656 57.8246 81.8786 57.6485C83.7102 57.3178 85.5501 57.1488 87.3333 56.7576C88.2199 56.5488 89.0896 56.28 89.897 55.884C90.7019 55.4798 91.3854 54.8866 91.9883 54.2246C93.1816 52.8768 94.0523 51.2827 94.971 49.7438C95.8955 48.2122 96.8262 46.6416 98.1904 45.4498C98.8749 44.8747 99.6582 44.3746 100.54 44.1619C101.414 43.944 102.316 43.909 103.197 43.9829C104.961 44.1533 106.648 44.6405 108.322 45.06C109.993 45.4829 111.683 45.8678 113.373 45.7858C114.212 45.7214 115.029 45.5184 115.795 45.1742C116.553 44.8162 117.283 44.3986 117.971 43.9171C119.359 42.9754 120.65 41.905 122.028 40.9661C122.723 40.5067 123.425 40.0531 124.188 39.7147C124.558 39.5218 124.96 39.4037 125.351 39.2606C125.551 39.204 125.757 39.1666 125.959 39.1186C126.061 39.097 126.162 39.0706 126.265 39.0533L126.577 39.0288C127.408 38.9198 128.245 39.0797 129.028 39.3163L129.608 39.5222C129.798 39.5995 129.98 39.6931 130.166 39.7776C130.543 39.9384 130.884 40.1616 131.241 40.3546C132.627 41.1979 133.877 42.2035 135.151 43.1419C136.421 44.0765 137.729 44.9731 139.186 45.4795C140.656 45.947 142.23 45.8525 143.72 45.5626C145.219 45.2822 146.678 44.8584 148.144 44.507C149.606 44.1624 151.1 43.8782 152.596 43.9906C154.102 44.088 155.492 44.8613 156.502 45.9077C157.518 46.9637 158.29 48.191 159.022 49.4045C159.752 50.6213 160.434 51.8472 161.223 52.9819C162.01 54.109 162.939 55.1501 164.117 55.7952C165.292 56.4475 166.613 56.7571 167.908 56.9909C169.21 57.2232 170.512 57.373 171.791 57.5846C173.067 57.7982 174.335 58.0637 175.502 58.5826C176.669 59.0866 177.688 59.9352 178.308 61.0181C178.942 62.0918 179.266 63.288 179.505 64.4573C179.974 66.8064 180.107 69.1392 180.715 71.2997C181.025 72.372 181.48 73.3958 182.183 74.2176C182.879 75.0437 183.734 75.6984 184.599 76.2883C186.34 77.4638 188.171 78.373 189.772 79.5134C190.568 80.0866 191.323 80.7 191.928 81.4349C192.527 82.1717 192.951 83.0266 193.141 83.9184C193.348 84.8112 193.292 85.7131 193.212 86.5714C193.125 87.4349 192.931 88.2595 192.752 89.063C192.365 90.6648 191.927 92.1686 191.659 93.6245C191.381 95.0726 191.312 96.4997 191.656 97.7645C192 99.0283 192.652 100.092 193.282 101.035C194.575 102.912 195.82 104.4 196.64 105.734C197.484 107.051 197.918 108.186 198.061 108.974C198.167 109.363 198.153 109.67 198.175 109.871C198.19 110.076 198.194 110.178 198.194 110.178Z" fill="#263238"/>
<path d="M113.78 176.14C113.846 176.157 112.075 183.34 109.822 192.182C107.57 201.027 105.69 208.182 105.623 208.164C105.556 208.147 107.327 200.965 109.58 192.12C111.832 183.279 113.713 176.123 113.78 176.14Z" fill="#263238"/>
<path d="M127.113 153.75C151.177 153.75 170.685 134.242 170.685 110.178C170.685 86.1133 151.177 66.6053 127.113 66.6053C103.048 66.6053 83.54 86.1133 83.54 110.178C83.54 134.242 103.048 153.75 127.113 153.75Z" fill="white"/>
<path d="M100.283 95.0798C99.6817 95.6808 96.3774 101.688 96.0769 106.645C95.7764 111.601 96.4887 139.438 96.4887 139.438L96.6174 141.282C104.462 150.456 132.972 164.106 158.654 141.236L160.093 124.116L155.855 87.8707L141.136 84.2659L137.684 78.6715L114.68 84.0571L112.629 88.9075L100.283 95.0798Z" fill="#455A64"/>
<path d="M136.088 64.0973C137.101 60.3317 138.098 56.5392 138.448 52.6555C138.798 48.7718 138.474 44.759 136.929 41.1787C136.695 40.6358 134.751 37.0142 134.166 37.1021C133.748 37.1654 135.007 40.5725 134.813 40.9483C132.966 44.5325 132.631 48.7459 133.161 52.7424C133.692 56.7398 134.713 60.3077 136.088 64.0973Z" fill="#263238"/>
<path d="M135.707 49.2202C135.521 39.4426 129.676 31.4011 119.908 31.8576L119.007 31.9522C109.947 32.9074 103.136 40.657 103.36 49.765C103.568 58.2384 103.907 67.5984 104.437 72.1003C105.536 81.4195 115.023 81.887 115.023 81.887C115.044 81.8861 115.458 88.0162 115.458 88.0162L119.467 92.3712L138.048 80.8622L135.707 49.2202Z" fill="#FFBF9D"/>
<path d="M115.022 81.959C115.022 81.959 120.941 81.684 126.794 77.0861C126.794 77.0861 124.834 85.5389 115.433 85.68L115.022 81.959Z" fill="#FF9A6C"/>
<path d="M108.728 57.3662C108.777 58.0723 109.416 58.6133 110.154 58.5754C110.891 58.5374 111.451 57.9355 111.401 57.229C111.352 56.5229 110.713 55.981 109.976 56.0189C109.237 56.0568 108.678 56.6602 108.728 57.3662Z" fill="#263238"/>
<path d="M105.763 53.4278C105.946 53.5843 106.877 52.7304 108.312 52.583C109.742 52.415 110.873 53.0419 111.01 52.8499C111.078 52.7645 110.876 52.4683 110.383 52.1827C109.897 51.8981 109.094 51.6562 108.201 51.7541C107.309 51.8534 106.591 52.261 106.195 52.6435C105.789 53.0285 105.673 53.3587 105.763 53.4278Z" fill="#263238"/>
<path d="M121.397 56.2901C121.446 56.9962 122.085 57.5371 122.824 57.4992C123.561 57.4613 124.12 56.8594 124.071 56.1528C124.021 55.4467 123.382 54.9053 122.645 54.9427C121.906 54.9811 121.348 55.584 121.397 56.2901Z" fill="#263238"/>
<path d="M119.871 52.5274C120.055 52.6834 120.987 51.8299 122.42 51.6826C123.851 51.515 124.981 52.1414 125.119 51.9494C125.186 51.8635 124.987 51.5678 124.492 51.2827C124.006 50.9976 123.202 50.7557 122.309 50.8536C121.416 50.953 120.7 51.361 120.303 51.743C119.899 52.128 119.782 52.4582 119.871 52.5274Z" fill="#263238"/>
<path d="M115.888 64.0891C115.886 64.007 114.978 63.9466 113.514 63.9144C113.144 63.9154 112.79 63.8789 112.701 63.6355C112.587 63.3802 112.699 62.9693 112.831 62.5243C113.082 61.6022 113.345 60.635 113.62 59.6218C114.706 55.4933 115.45 52.1141 115.284 52.0718C115.117 52.0296 114.102 55.3416 113.017 59.4701C112.758 60.4872 112.51 61.4568 112.275 62.3846C112.181 62.8152 111.992 63.3125 112.237 63.8419C112.364 64.1054 112.654 64.2754 112.895 64.3142C113.138 64.3608 113.344 64.3435 113.526 64.3349C114.989 64.2595 115.891 64.1712 115.888 64.0891Z" fill="#263238"/>
<path d="M120.213 64.6358C119.978 64.6469 120.139 66.204 118.923 67.4491C117.71 68.6976 116.033 68.6976 116.043 68.9165C116.032 69.0163 116.444 69.18 117.147 69.1253C117.836 69.0763 118.817 68.7494 119.561 67.9882C120.302 67.2245 120.556 66.2842 120.542 65.64C120.533 64.9829 120.318 64.6157 120.213 64.6358Z" fill="#263238"/>
<path d="M119.336 46.6997C119.518 47.075 120.931 46.739 122.634 46.7645C124.339 46.7558 125.748 47.1053 125.934 46.7323C126.015 46.5547 125.74 46.2125 125.152 45.8928C124.569 45.5731 123.663 45.3062 122.641 45.3005C121.62 45.2966 120.711 45.5544 120.125 45.8683C119.534 46.1818 119.256 46.5211 119.336 46.6997Z" fill="#263238"/>
<path d="M105.853 48.5986C106.139 48.8976 107.092 48.4555 108.278 48.3144C109.459 48.132 110.495 48.3019 110.69 47.9366C110.774 47.761 110.581 47.4514 110.11 47.1893C109.644 46.9277 108.893 46.753 108.079 46.8638C107.266 46.9757 106.59 47.3453 106.211 47.723C105.827 48.1013 105.725 48.4512 105.853 48.5986Z" fill="#263238"/>
<path d="M135.674 56.2104C135.826 56.125 141.886 53.6381 142.354 60.0394C142.823 66.4406 136.3 65.5906 136.275 65.4082C136.251 65.2253 135.674 56.2104 135.674 56.2104Z" fill="#FFBF9D"/>
<path d="M138.053 62.8402C138.079 62.8176 138.17 62.9098 138.365 62.9822C138.555 63.0533 138.875 63.0878 139.2 62.9386C139.858 62.641 140.349 61.5259 140.295 60.3696C140.268 59.7859 140.106 59.2402 139.866 58.7962C139.636 58.3421 139.309 58.0373 138.964 58.0013C138.62 57.948 138.394 58.1693 138.329 58.355C138.256 58.5403 138.306 58.6651 138.273 58.6786C138.256 58.6958 138.128 58.5816 138.159 58.3133C138.177 58.1842 138.24 58.0277 138.382 57.8938C138.527 57.7579 138.748 57.6773 138.987 57.6859C139.483 57.684 139.961 58.1054 140.224 58.5931C140.516 59.0813 140.712 59.6933 140.742 60.3494C140.795 61.6421 140.223 62.8978 139.317 63.2328C138.876 63.3835 138.49 63.275 138.285 63.1382C138.075 62.9938 138.031 62.8531 138.053 62.8402Z" fill="#FF9A6C"/>
<path d="M106.821 38.8872C105.748 38.3822 108.642 34.825 111.115 33.505C114.853 31.5101 120.663 30.0562 124.278 30.8347C128.63 31.7712 132.317 33.6696 134.714 37.4213C137.11 41.173 138.208 45.6538 138.369 50.1024C138.418 51.4598 138.369 52.8816 137.719 54.0739C136.915 55.5475 135.256 56.5502 135.457 58.4986C135.531 59.2109 135.373 59.9443 134.918 60.4968C133.826 61.8192 132.317 60.7397 131.582 59.6078C130.013 57.1896 129.663 54.2045 129.354 51.3384C129.135 49.3013 128.918 47.22 129.367 45.2208C129.612 44.1331 130.05 43.092 130.234 41.9923C130.418 40.8926 130.306 39.6653 129.575 38.8238C129.456 38.687 129.263 38.5171 129.02 38.3309C127.104 36.8578 124.534 36.5453 122.312 37.4962C118.788 39.0043 112.751 41.3069 111.063 40.1861C108.635 38.5742 108.008 37.4616 108.008 37.4616L106.821 38.8872Z" fill="#263238"/>
<path d="M100.282 95.0798C99.9114 95.5934 94.6646 97.3349 92.6745 100.651C90.6844 103.967 88.715 118.857 88.715 118.857L87.4482 128.659C89.9442 132.607 93.2918 137.834 96.8442 141.521L100.282 95.0798Z" fill="#455A64"/>
<g opacity="0.3">
<path d="M139.702 109.456C139.923 111.454 140.149 113.473 140.836 115.362C141.523 117.251 142.728 119.025 144.487 119.998C145.224 120.405 146.054 120.674 146.671 121.247C147.333 121.863 147.667 122.756 148.266 123.433C148.964 124.221 149.968 124.66 150.96 125.011C153.894 126.05 156.785 126.546 159.897 126.434C159.991 125.407 159.998 121.633 160.092 120.606L139.702 109.456Z" fill="black"/>
</g>
<path d="M155.855 87.8702C155.855 87.8702 162.471 89.8267 164.408 92.6448C166.346 95.4634 169.781 106.385 170.486 108.411C171.19 110.436 170.574 115.134 169.252 118.511C167.931 121.887 165.638 124.794 161.677 125.234C157.714 125.674 151.456 123.384 150.049 121.887C148.642 120.389 148.053 117.029 148.053 117.029C149.812 116.72 151.549 116.284 153.246 115.726" fill="#455A64"/>
<path d="M153.246 115.726C153.247 115.729 153.22 115.741 153.164 115.762C153.098 115.786 153.017 115.815 152.914 115.852C152.693 115.928 152.362 116.038 151.926 116.169C151.053 116.431 149.756 116.785 148.065 117.093L148.118 117.017C148.266 117.766 148.48 118.587 148.794 119.445C148.951 119.873 149.132 120.313 149.366 120.743C149.6 121.169 149.874 121.603 150.253 121.949C150.632 122.294 151.1 122.574 151.591 122.832C152.079 123.096 152.605 123.324 153.148 123.547C154.236 123.985 155.414 124.363 156.662 124.659C157.911 124.948 159.237 125.162 160.61 125.167C160.953 125.182 161.296 125.136 161.643 125.119C161.985 125.062 162.336 125.031 162.675 124.934C163.361 124.779 164.035 124.523 164.662 124.164C165.929 123.46 167.001 122.369 167.815 121.085C168.641 119.804 169.244 118.35 169.689 116.831C170.034 115.664 170.288 114.484 170.454 113.311C170.621 112.139 170.703 110.968 170.626 109.83C170.582 109.257 170.476 108.72 170.282 108.187C170.104 107.65 169.927 107.117 169.752 106.59C169.4 105.538 169.056 104.508 168.72 103.503C168.039 101.496 167.367 99.5981 166.693 97.8398C166.007 96.0902 165.367 94.4443 164.566 93.0706C164.175 92.3798 163.639 91.8379 163.072 91.3992C162.516 90.948 161.938 90.5885 161.39 90.2712C160.286 89.6438 159.283 89.1989 158.458 88.8533C157.631 88.5106 156.978 88.2715 156.533 88.1141C156.319 88.0392 156.152 87.9802 156.026 87.936C155.912 87.8957 155.854 87.8741 155.855 87.8698C155.856 87.8659 155.917 87.8789 156.034 87.9115C156.162 87.9499 156.332 88.0013 156.548 88.0661C156.999 88.2082 157.659 88.4328 158.494 88.763C159.327 89.0957 160.34 89.5291 161.458 90.1493C162.015 90.4632 162.601 90.8203 163.171 91.2744C163.747 91.7112 164.312 92.2742 164.717 92.9784C165.543 94.3714 166.19 96.012 166.887 97.7645C167.57 99.5237 168.25 101.422 168.938 103.428C169.277 104.433 169.624 105.463 169.978 106.514C170.154 107.04 170.332 107.572 170.511 108.108C170.707 108.641 170.827 109.232 170.87 109.811C170.95 110.976 170.868 112.161 170.699 113.346C170.533 114.532 170.278 115.722 169.929 116.902C169.479 118.438 168.867 119.913 168.024 121.22C167.192 122.529 166.088 123.651 164.78 124.374C164.132 124.743 163.436 125.006 162.729 125.165C162.379 125.263 162.02 125.295 161.668 125.352C161.312 125.369 160.96 125.414 160.61 125.398C159.21 125.389 157.871 125.167 156.612 124.871C155.353 124.567 154.169 124.181 153.072 123.732C152.525 123.505 151.995 123.272 151.501 123C151.004 122.735 150.53 122.449 150.129 122.081C149.73 121.711 149.454 121.261 149.217 120.823C148.981 120.381 148.802 119.934 148.646 119.499C148.336 118.627 148.13 117.801 147.989 117.041L147.977 116.976L148.042 116.965C149.731 116.676 151.029 116.343 151.906 116.103C152.333 115.981 152.665 115.887 152.903 115.819C153.008 115.789 153.091 115.765 153.158 115.746C153.216 115.73 153.246 115.723 153.246 115.726Z" fill="#263238"/>
<path d="M165.383 112.189C165.334 112.201 165.184 111.375 164.628 110.157C164.086 108.94 163.11 107.332 161.643 105.919C160.912 105.209 160.1 104.669 159.323 104.267C159.123 104.178 158.929 104.09 158.738 104.005C158.549 103.918 158.35 103.882 158.165 103.819C157.796 103.684 157.433 103.652 157.106 103.6C157.024 103.588 156.944 103.575 156.865 103.563C156.787 103.564 156.71 103.564 156.635 103.564C156.487 103.564 156.346 103.564 156.212 103.564C155.945 103.548 155.722 103.596 155.537 103.623C155.167 103.677 154.958 103.699 154.954 103.682C154.95 103.666 155.15 103.611 155.521 103.527C155.706 103.485 155.932 103.422 156.204 103.425C156.342 103.418 156.486 103.412 156.638 103.405C156.715 103.402 156.794 103.399 156.875 103.395C156.956 103.405 157.038 103.414 157.123 103.424C157.462 103.465 157.838 103.49 158.221 103.62C158.413 103.679 158.621 103.714 158.817 103.8C159.014 103.884 159.217 103.971 159.424 104.06C160.23 104.461 161.069 105.012 161.815 105.737C163.315 107.182 164.282 108.834 164.79 110.086C164.921 110.399 165.034 110.684 165.106 110.944C165.184 111.202 165.26 111.42 165.29 111.609C165.366 111.981 165.4 112.186 165.383 112.189Z" fill="#263238"/>
<path d="M168.993 106.254C168.939 106.275 168.759 105.404 167.995 104.24C167.248 103.095 165.819 101.658 163.779 101.049C161.749 100.43 159.777 100.621 158.401 100.753C157.745 100.832 157.194 100.898 156.756 100.95C156.367 100.998 156.15 101.017 156.147 101C156.145 100.983 156.356 100.932 156.74 100.854C157.125 100.778 157.683 100.675 158.379 100.578C159.757 100.402 161.756 100.174 163.853 100.81C164.893 101.126 165.807 101.659 166.521 102.267C167.244 102.87 167.77 103.546 168.144 104.145C168.518 104.748 168.731 105.284 168.85 105.66C168.971 106.035 169.005 106.251 168.993 106.254Z" fill="#263238"/>
<path d="M164.004 99.1526C163.987 99.2342 162.262 98.6789 160.072 98.7763C157.88 98.8507 156.205 99.54 156.181 99.4598C156.17 99.433 156.571 99.2266 157.264 99.0058C157.956 98.784 158.949 98.5718 160.062 98.5262C161.175 98.484 162.18 98.6179 162.888 98.7845C163.597 98.9506 164.013 99.1253 164.004 99.1526Z" fill="#263238"/>
<path d="M153.3 89.5214C153.34 89.5277 153.244 90.1963 153.167 91.2802C153.09 92.3635 153.054 93.8674 153.203 95.5166C153.338 97.103 153.625 98.5248 153.879 99.5592L153.706 99.6149C153.509 99.06 153.355 98.6098 153.253 98.2963C153.152 97.9829 153.104 97.8062 153.121 97.8C153.138 97.7938 153.218 97.9579 153.348 98.2608C153.478 98.5637 153.658 99.0043 153.876 99.551L153.703 99.6067C153.406 98.5757 153.09 97.1424 152.953 95.5392C152.803 93.8722 152.868 92.352 152.991 91.2648C153.051 90.721 153.122 90.2832 153.181 89.9832C153.242 89.6827 153.284 89.5186 153.3 89.5214Z" fill="#263238"/>
<path d="M143.948 77.2061C143.948 77.2061 140.514 77.2061 140.084 81.3326C139.753 84.5002 140.084 87.5755 140.084 88.9627C140.084 90.3499 139.472 95.2829 139.472 95.2829C139.472 95.2829 137.13 97.3613 137.169 99.8578C137.209 102.366 138.993 103.133 138.993 103.133C138.993 103.133 137.903 105.512 139.984 107.691C139.984 107.691 138.986 109.992 139.807 111.542C140.442 112.741 141.867 113.142 141.867 113.142C141.867 113.142 140.852 115.409 143.288 116.363C144.728 116.926 146.857 116.801 146.857 116.801L149.419 116.751L151.677 117.997C151.677 117.997 155.542 116.313 155.641 114.034C155.74 111.755 155.74 111.755 155.74 111.755C155.74 111.755 154.65 107.989 154.551 106.8C154.452 105.611 155.443 102.737 154.848 101.449C154.254 100.161 152.173 99.4037 152.371 97.6022C152.569 95.8008 152.173 94.8096 151.281 93.8189C150.389 92.8282 146.447 90.8462 146.447 90.8462C146.447 90.8462 145.434 87.9725 145.434 85.9906C145.435 84.0082 147.416 77.9635 143.948 77.2061Z" fill="#FFBF9D"/>
<path d="M146.262 91.597C146.279 91.6267 145.914 91.8605 145.311 92.2138C144.708 92.567 143.866 93.0398 142.929 93.5491C141.991 94.0584 141.135 94.5072 140.51 94.8206C139.885 95.1341 139.49 95.3131 139.473 95.2829C139.457 95.2526 139.822 95.0189 140.425 94.6656C141.028 94.3123 141.87 93.8395 142.807 93.3307C143.744 92.8219 144.599 92.3736 145.225 92.0597C145.849 91.7462 146.245 91.5667 146.262 91.597Z" fill="#FF9A6C"/>
<path d="M148.515 99.3557C148.526 99.3696 148.419 99.4642 148.216 99.624C148.014 99.7853 147.71 100.001 147.322 100.252C146.548 100.755 145.422 101.37 144.104 101.877C142.785 102.38 141.535 102.674 140.624 102.817C140.168 102.889 139.797 102.932 139.539 102.946C139.282 102.963 139.139 102.964 139.137 102.947C139.132 102.907 139.696 102.83 140.592 102.643C141.487 102.458 142.712 102.141 144.015 101.643C145.316 101.144 146.44 100.562 147.231 100.102C148.021 99.6422 148.492 99.3235 148.515 99.3557Z" fill="#FF9A6C"/>
<path d="M151.463 96.888C151.526 96.9096 151.397 97.3502 150.99 97.7179C150.586 98.089 150.135 98.1758 150.119 98.112C150.095 98.0438 150.462 97.8653 150.822 97.5331C151.185 97.2072 151.398 96.8578 151.463 96.888Z" fill="#FF9A6C"/>
<path d="M150.049 106.152C150.059 106.182 149.517 106.402 148.613 106.678C147.709 106.955 146.439 107.273 145.013 107.503C143.587 107.732 142.281 107.828 141.336 107.849C140.391 107.87 139.807 107.832 139.807 107.8C139.807 107.762 140.389 107.739 141.327 107.672C142.265 107.606 143.558 107.483 144.973 107.256C146.388 107.028 147.654 106.74 148.565 106.508C149.477 106.277 150.037 106.116 150.049 106.152Z" fill="#FF9A6C"/>
<path d="M153.185 105.581C153.151 105.561 153.302 105.299 153.449 104.846C153.597 104.397 153.721 103.741 153.636 103.027C153.551 102.312 153.276 101.704 153.025 101.303C152.776 100.898 152.568 100.679 152.596 100.651C152.616 100.629 152.872 100.805 153.172 101.204C153.471 101.597 153.793 102.234 153.885 102.998C153.976 103.762 153.813 104.457 153.614 104.909C153.417 105.366 153.209 105.598 153.185 105.581Z" fill="#FF9A6C"/>
<path d="M150.227 113.1C150.234 113.131 149.772 113.261 149.007 113.388C148.244 113.516 147.174 113.627 145.99 113.624C144.805 113.62 143.737 113.504 142.974 113.372C142.21 113.24 141.749 113.107 141.755 113.077C141.762 113.04 142.234 113.111 142.998 113.196C143.762 113.283 144.819 113.37 145.99 113.374C147.161 113.376 148.219 113.295 148.983 113.213C149.747 113.132 150.22 113.063 150.227 113.1Z" fill="#FF9A6C"/>
<path d="M144.133 86.0467C144.147 86.0731 143.978 86.2022 143.657 86.317C143.338 86.4322 142.862 86.5128 142.342 86.4518C141.822 86.389 141.377 86.1989 141.095 86.0122C140.81 85.8254 140.675 85.6603 140.695 85.6378C140.739 85.5754 141.392 86.0971 142.371 86.2037C143.348 86.3304 144.106 85.9762 144.133 86.0467Z" fill="#FF9A6C"/>
<path d="M153.899 105.872C153.913 105.87 153.942 106.001 153.954 106.242C153.961 106.484 153.93 106.835 153.835 107.255C153.742 107.675 153.584 108.159 153.433 108.695C153.289 109.228 153.148 109.832 153.253 110.443C153.336 111.05 153.79 111.543 153.862 112.16C153.943 112.766 153.703 113.28 153.484 113.644C153.256 114.014 153.026 114.276 152.865 114.452C152.701 114.627 152.601 114.714 152.589 114.703C152.55 114.674 152.918 114.282 153.331 113.557C153.523 113.196 153.718 112.716 153.634 112.193C153.576 111.672 153.116 111.18 153.006 110.486C152.891 109.806 153.053 109.17 153.211 108.631C153.377 108.089 153.551 107.616 153.663 107.211C153.903 106.402 153.856 105.875 153.899 105.872Z" fill="#FF9A6C"/>
<path d="M155.19 108.887C155.206 108.883 155.265 109.043 155.351 109.338C155.437 109.633 155.552 110.063 155.66 110.603C155.766 111.144 155.872 111.795 155.89 112.53C155.905 113.259 155.833 114.096 155.456 114.881C155.07 115.655 154.513 116.261 153.98 116.76C153.44 117.256 152.911 117.647 152.456 117.957C152 118.266 151.619 118.496 151.351 118.646C151.083 118.797 150.929 118.87 150.92 118.856C150.899 118.822 151.475 118.46 152.354 117.813C152.791 117.487 153.303 117.087 153.823 116.592C154.336 116.096 154.868 115.501 155.231 114.772C155.583 114.04 155.662 113.243 155.66 112.532C155.656 111.817 155.569 111.172 155.487 110.634C155.31 109.558 155.15 108.897 155.19 108.887Z" fill="#263238"/>
<path d="M118.97 92.9102C118.959 92.9232 118.762 92.7749 118.415 92.4946C118.035 92.1802 117.546 91.776 116.96 91.2907C116.652 91.0306 116.319 90.7498 115.964 90.4502C115.786 90.2995 115.605 90.1454 115.398 90.0437C115.193 89.9419 114.961 89.9155 114.755 90.0216C114.341 90.2381 114.064 90.7699 113.711 91.211C113.369 91.6718 113.015 92.148 112.653 92.6362C112.073 93.4128 111.515 94.1587 111 94.847L110.689 95.2622L110.788 94.7544C111.125 93.0178 111.595 91.5686 111.983 90.5669C112.176 90.0653 112.346 89.6736 112.47 89.4086C112.595 89.1442 112.67 89.0045 112.683 89.0098C112.696 89.0155 112.644 89.1653 112.543 89.4389C112.442 89.7125 112.295 90.1109 112.121 90.6168C111.775 91.6272 111.339 93.0739 111.021 94.7981L110.809 94.7054C111.321 94.0147 111.876 93.2664 112.452 92.4869C112.816 92.0002 113.171 91.5245 113.514 91.0646C113.687 90.8352 113.856 90.6096 114.022 90.3888C114.193 90.1685 114.385 89.9438 114.657 89.8138C114.929 89.6746 115.261 89.7206 115.496 89.8469C115.737 89.9702 115.924 90.1397 116.1 90.2938C116.448 90.6014 116.774 90.8899 117.076 91.1573C117.641 91.6666 118.113 92.0909 118.479 92.4211C118.806 92.7235 118.981 92.8973 118.97 92.9102Z" fill="#263238"/>
<path d="M139.238 88.8509C139.243 88.8576 139.179 88.9152 139.051 89.0184C138.899 89.1365 138.712 89.2824 138.484 89.4605C137.956 89.8574 137.241 90.3955 136.369 91.0517C134.541 92.3976 132.06 94.223 129.307 96.2496L129.2 96.3283L129.128 96.2155C129.073 96.1286 129.013 96.035 128.953 95.9414C127.652 93.888 126.437 91.9699 125.409 90.3466L125.538 90.3883C123.843 91.0622 122.511 91.801 121.604 92.3501C121.15 92.6251 120.801 92.8526 120.562 93.0067C120.324 93.1622 120.194 93.2424 120.188 93.2333C120.181 93.2246 120.298 93.1262 120.524 92.9534C120.752 92.7816 121.092 92.5373 121.538 92.245C122.431 91.6622 123.757 90.8904 125.459 90.1901L125.54 90.1565L125.588 90.2318C126.626 91.849 127.851 93.7608 129.164 95.8066C129.224 95.9006 129.283 95.9942 129.338 96.0811L129.159 96.0475C131.93 94.0445 134.426 92.2402 136.266 90.9101C137.157 90.2803 137.888 89.7634 138.427 89.3822C138.666 89.2195 138.862 89.0856 139.021 88.9776C139.159 88.8883 139.234 88.8442 139.238 88.8509Z" fill="#263238"/>
<path d="M96.1603 107.94C96.169 107.94 96.1776 108.057 96.1867 108.279C96.1935 108.526 96.2021 108.849 96.2131 109.25C96.2295 110.123 96.252 111.336 96.2799 112.823C96.337 115.839 96.4575 120.005 96.6139 124.606C96.7699 129.209 96.8631 133.379 96.8751 136.397C96.8799 137.906 96.877 139.128 96.8626 139.971C96.8539 140.373 96.8472 140.696 96.8419 140.943C96.8343 141.165 96.8266 141.282 96.8179 141.282C96.8093 141.282 96.8007 141.165 96.7915 140.943C96.7848 140.696 96.7762 140.373 96.7651 139.971C96.7488 139.099 96.7263 137.886 96.6984 136.399C96.6413 133.383 96.5208 129.217 96.3643 124.614C96.2083 120.013 96.1157 115.844 96.1037 112.825C96.0989 111.316 96.1018 110.094 96.1162 109.25C96.1248 108.849 96.1315 108.526 96.1368 108.278C96.144 108.057 96.1517 107.94 96.1603 107.94Z" fill="#263238"/>
<path d="M119.128 151.298C119.124 151.298 119.116 151.251 119.104 151.16C119.092 151.054 119.077 150.92 119.058 150.752C119.021 150.375 118.969 149.85 118.904 149.183C118.771 147.819 118.617 145.843 118.465 143.398C118.307 140.953 118.179 138.039 118.096 134.801C118.026 131.563 118.009 128.002 118.085 124.264C118.171 120.526 118.344 116.968 118.554 113.735C118.778 110.503 119.032 107.597 119.295 105.162C119.555 102.726 119.794 100.758 119.986 99.4022C120.081 98.7379 120.155 98.2157 120.208 97.8408C120.234 97.6742 120.255 97.5408 120.272 97.4357C120.288 97.3445 120.298 97.2984 120.302 97.2989C120.306 97.2994 120.304 97.3469 120.297 97.439C120.287 97.5451 120.274 97.6795 120.258 97.8475C120.216 98.2234 120.157 98.748 120.083 99.4142C119.92 100.774 119.708 102.744 119.471 105.18C119.231 107.616 118.995 110.52 118.784 113.75C118.586 116.98 118.42 120.535 118.334 124.27C118.258 128.003 118.269 131.561 118.326 134.796C118.397 138.031 118.506 140.944 118.64 143.388C118.77 145.832 118.897 147.809 119.001 149.174C119.046 149.844 119.082 150.37 119.108 150.748C119.116 150.916 119.124 151.051 119.129 151.158C119.133 151.25 119.133 151.297 119.128 151.298Z" fill="#263238"/>
<path d="M104.827 72.7277C104.827 72.7277 104.657 72.8462 104.32 73.0675C103.978 73.2898 103.476 73.6162 102.819 74.0429C102.16 74.472 101.398 75.0797 100.467 75.7541C100.009 76.1006 99.5485 76.5163 99.0378 76.9373C98.7844 77.1504 98.5233 77.3702 98.2535 77.5968C97.9881 77.8282 97.7332 78.0874 97.461 78.3427C95.2794 80.3736 92.8012 83.1 90.5183 86.677C90.2385 87.1272 89.9538 87.5846 89.6644 88.0502C89.3634 88.5091 89.1301 89.0174 88.8532 89.5109C88.5916 90.0125 88.3002 90.5093 88.0511 91.0368C87.8087 91.5677 87.5629 92.1067 87.3133 92.653C87.1919 92.9275 87.0556 93.1982 86.9437 93.4814C86.8353 93.7661 86.7263 94.0531 86.6164 94.3416C86.3999 94.92 86.1676 95.5018 85.9554 96.0994C85.6002 97.3171 85.1519 98.5435 84.8841 99.8515C84.2188 102.435 83.8521 105.22 83.7037 108.124C83.5362 111.03 83.7095 114.072 84.2087 117.166C85.2191 123.342 87.6561 129.774 91.7985 135.492C95.8871 141.226 101.666 146.214 108.606 149.493C115.53 152.791 123.633 154.217 131.726 153.378C139.83 152.539 147.421 149.349 153.502 144.685C155.035 143.532 156.442 142.249 157.795 140.941C158.121 140.601 158.445 140.262 158.769 139.924C159.097 139.589 159.413 139.246 159.713 138.888C160.018 138.537 160.322 138.185 160.626 137.835C160.913 137.471 161.199 137.107 161.484 136.745C163.766 133.843 165.566 130.678 166.989 127.457C168.408 124.23 169.348 120.898 169.927 117.612C170.225 115.968 170.388 114.328 170.497 112.712C170.549 111.904 170.548 111.099 170.575 110.303C170.56 109.507 170.517 108.717 170.489 107.933C170.474 107.542 170.458 107.152 170.443 106.764C170.42 106.376 170.356 105.993 170.315 105.611C170.223 104.846 170.132 104.088 170.041 103.337C169.922 102.591 169.75 101.86 169.609 101.132C169.459 100.405 169.334 99.6792 169.108 98.9861C168.907 98.2867 168.708 97.5946 168.511 96.9091C168.422 96.563 168.301 96.2304 168.172 95.9016C168.048 95.5714 167.925 95.243 167.802 94.9162C167.546 94.2672 167.337 93.6067 167.05 92.9875C166.762 92.3693 166.475 91.7582 166.193 91.1544C163.876 86.3443 160.9 82.4568 157.912 79.4563C154.913 76.4491 151.896 74.3405 149.355 72.7882C148.708 72.4166 148.097 72.0653 147.523 71.7355C147.24 71.5618 146.949 71.4278 146.67 71.2963C146.39 71.1634 146.121 71.0352 145.861 70.9114C145.342 70.6642 144.864 70.4357 144.426 70.2269C143.992 70.007 143.568 69.8822 143.206 69.7306C142.475 69.4474 141.917 69.2314 141.537 69.084C141.162 68.9371 140.971 68.8555 140.971 68.8555C140.971 68.8555 141.167 68.9208 141.546 69.06C141.928 69.2021 142.49 69.4109 143.224 69.684C143.589 69.8318 144.015 69.9533 144.451 70.1698C144.891 70.3757 145.372 70.6008 145.894 70.8446C146.154 70.9666 146.425 71.0938 146.706 71.2248C146.987 71.3549 147.279 71.4874 147.563 71.6597C148.14 71.987 148.755 72.3355 149.405 72.7046C151.96 74.2478 154.993 76.3502 158.011 79.3579C161.018 82.3584 164.015 86.2522 166.353 91.0771C166.638 91.6829 166.926 92.2958 167.217 92.916C167.506 93.5376 167.717 94.2 167.975 94.8514C168.099 95.1792 168.223 95.509 168.348 95.8402C168.478 96.1699 168.601 96.5045 168.691 96.8515C168.89 97.5394 169.091 98.2344 169.295 98.9366C169.522 99.6326 169.65 100.361 169.801 101.091C169.944 101.823 170.118 102.557 170.239 103.306C170.331 104.06 170.424 104.821 170.518 105.589C170.56 105.974 170.625 106.358 170.649 106.748C170.664 107.138 170.681 107.53 170.697 107.923C170.726 108.709 170.77 109.503 170.786 110.304C170.76 111.104 170.762 111.912 170.711 112.724C170.604 114.348 170.442 115.996 170.145 117.648C169.567 120.952 168.625 124.303 167.201 127.549C165.774 130.788 163.966 133.972 161.674 136.892C161.387 137.256 161.1 137.622 160.811 137.988C160.506 138.34 160.2 138.694 159.894 139.048C159.593 139.407 159.275 139.753 158.945 140.089C158.62 140.43 158.293 140.771 157.966 141.113C156.608 142.429 155.193 143.72 153.651 144.88C147.539 149.572 139.904 152.783 131.753 153.627C123.615 154.471 115.464 153.035 108.502 149.715C101.524 146.415 95.7172 141.395 91.6122 135.626C87.453 129.875 85.0113 123.407 84.0047 117.199C83.5074 114.09 83.338 111.034 83.5113 108.115C83.6649 105.199 84.0393 102.403 84.7122 99.8102C84.9844 98.4974 85.437 97.2667 85.7965 96.0456C86.0106 95.4461 86.2453 94.8624 86.4642 94.2826C86.5751 93.9931 86.6855 93.7056 86.7949 93.42C86.9077 93.1358 87.0455 92.8646 87.1679 92.5891C87.4199 92.0414 87.6681 91.501 87.9124 90.9691C88.1634 90.4402 88.4572 89.9424 88.7212 89.4398C89.0005 88.9454 89.2362 88.4362 89.5391 87.9768C89.8309 87.5107 90.118 87.0523 90.4002 86.6016C92.7018 83.0208 95.1978 80.2968 97.3943 78.2722C97.6684 78.0178 97.9252 77.7595 98.1921 77.5291C98.4633 77.3035 98.7268 77.0846 98.9817 76.8725C99.4957 76.4539 99.9594 76.0402 100.421 75.696C101.358 75.0264 102.126 74.4245 102.79 74.0016C103.453 73.5835 103.96 73.2638 104.305 73.0459C104.648 72.8318 104.827 72.7277 104.827 72.7277Z" fill="#263238"/>
</svg>
