<svg width="279" height="279" viewBox="0 0 279 279" fill="none" xmlns="http://www.w3.org/2000/svg">
<path d="M76.4672 25.2456L76.7088 25.6468C76.98 26.0977 77.3745 26.4609 77.846 26.6942L78.2662 26.9017L77.865 27.1434C77.4141 27.4146 77.0508 27.8091 76.8176 28.2806L76.61 28.7007L76.3684 28.299C76.0972 27.8487 75.7027 27.4849 75.2312 27.2522L74.811 27.0446L75.2122 26.803C75.6631 26.5318 76.0264 26.1373 76.2596 25.6658L76.4672 25.2456Z" fill="#E0E0E0"/>
<path d="M135.637 56.0751L135.878 56.4763C136.149 56.9271 136.544 57.2904 137.015 57.5236L137.436 57.7312L137.034 57.9728C136.584 58.244 136.22 58.6385 135.987 59.11L135.779 59.5302L135.538 59.129C135.267 58.6781 134.872 58.3149 134.401 58.0816L133.98 57.8741L134.382 57.6325C134.832 57.3613 135.196 56.9668 135.429 56.4953L135.637 56.0751Z" fill="#E0E0E0"/>
<path d="M33.8329 141.757L34.0745 142.158C34.3457 142.609 34.7402 142.972 35.2117 143.206L35.6319 143.413L35.2307 143.655C34.7798 143.926 34.4166 144.321 34.1833 144.792L33.9757 145.212L33.7341 144.811C33.4629 144.36 33.0684 143.997 32.5969 143.764L32.1768 143.556L32.5785 143.315C33.0294 143.043 33.3926 142.649 33.6259 142.177L33.8329 141.757Z" fill="#E0E0E0"/>
<path d="M193.439 249.573L193.68 249.975C193.952 250.425 194.346 250.789 194.818 251.022L195.238 251.23L194.837 251.472C194.386 251.743 194.023 252.137 193.789 252.609L193.582 253.029L193.34 252.628C193.069 252.177 192.674 251.814 192.203 251.58L191.783 251.373L192.184 251.131C192.635 250.86 192.999 250.466 193.232 249.994L193.439 249.573Z" fill="#E0E0E0"/>
<path d="M238.876 129.953L239.404 130.831C239.996 131.816 240.86 132.611 241.89 133.12L242.808 133.575L241.93 134.103C240.945 134.695 240.15 135.558 239.641 136.589L239.187 137.507L238.659 136.629C238.066 135.644 237.204 134.85 236.172 134.34L235.254 133.885L236.132 133.357C237.117 132.764 237.911 131.901 238.421 130.871L238.876 129.953Z" fill="#E0E0E0"/>
<path d="M188.347 17.8522L188.875 18.7299C189.468 19.7148 190.33 20.5099 191.361 21.0194L192.279 21.4736L191.402 22.0015C190.416 22.5941 189.622 23.4573 189.112 24.4879L188.658 25.4058L188.13 24.5281C187.537 23.5427 186.675 22.7486 185.644 22.2386L184.725 21.7844L185.603 21.256C186.588 20.6634 187.382 19.8007 187.892 18.7701L188.347 17.8522Z" fill="#E0E0E0"/>
<path d="M80.1595 236.227L80.6874 237.104C81.28 238.09 82.1432 238.884 83.1738 239.394L84.0917 239.848L83.214 240.376C82.2286 240.968 81.434 241.832 80.9245 242.862L80.4703 243.78L79.9425 242.902C79.3499 241.917 78.4872 241.123 77.456 240.613L76.5381 240.159L77.4158 239.63C78.4013 239.038 79.1953 238.175 79.7053 237.144L80.1595 236.227Z" fill="#E0E0E0"/>
<path d="M223.835 92.036C223.835 92.036 219.334 94.2479 213.448 97.7438C206.273 102.005 191.5 110.382 182.059 103.765L173.414 86.7953C173.414 86.7953 178.962 89.3397 187.405 88.2433C194.934 87.2657 200.964 83.2977 203.674 81.4708C204.771 80.7315 206.217 79.7293 207.352 79.0497C209.25 77.913 211.524 76.244 214.842 74.6309L223.835 92.036Z" fill="#EBEBEB"/>
<path d="M192.888 96.1869C192.262 92.6107 194.807 89.1768 198.573 88.5167C202.339 87.8566 205.9 90.2208 206.527 93.797C207.154 97.3732 204.609 100.807 200.842 101.467C197.076 102.127 193.515 99.7632 192.888 96.1869Z" fill="#F5F5F5"/>
<path d="M197.458 92.3216L196.903 91.4595L197.588 91.0176L198.129 91.8563C198.837 91.4651 199.642 91.2843 200.233 91.3719L200.46 92.5538C199.934 92.4901 199.306 92.6001 198.778 92.8646L199.606 94.1496C200.501 93.8667 201.534 93.6034 202.243 94.7037C202.768 95.5195 202.691 96.5602 201.697 97.3966L202.247 98.2504L201.561 98.6918L201.021 97.8531C200.477 98.1382 199.877 98.3067 199.327 98.2805L199.06 97.1132C199.553 97.1109 199.995 97.0122 200.367 96.837L199.525 95.529C198.635 95.8192 197.615 96.0736 196.916 94.9889C196.4 94.1898 196.476 93.1614 197.458 92.3216ZM197.961 94.187C198.134 94.4565 198.427 94.4744 198.797 94.3996L198.112 93.3377C197.825 93.643 197.802 93.9404 197.961 94.187ZM200.335 95.2807L201.039 96.3733C201.342 96.0463 201.343 95.7304 201.18 95.4766C201.006 95.2076 200.706 95.1942 200.335 95.2807Z" fill="#EBEBEB"/>
<path d="M182.994 103.855L183.108 103.923C183.389 104.088 190.123 107.922 202.129 102.462C208.195 99.7035 212.142 97.14 215.024 95.2685C217.625 93.5789 219.505 92.3591 221.564 91.8128L222.108 91.6689L214.335 75.7006L213.891 76.0102C213.764 76.099 201.094 84.9081 195.444 87.2216C190.959 89.0574 182.481 91.6995 176.089 88.7555L174.861 88.1903L182.994 103.855ZM195.795 88.0792C199.876 86.4086 207.292 81.5897 211.434 78.8069C211.817 79.3889 212.407 79.8359 213.078 80.0267C213.809 80.2349 214.62 80.1367 215.287 79.7717L219.542 88.5139C218.862 88.7739 218.334 89.4056 218.133 90.1154C217.939 90.795 218.014 91.5243 218.246 92.1962C217.109 92.8133 215.916 93.5839 214.519 94.4912C211.502 96.4504 207.748 98.8883 201.745 101.619C195.712 104.362 191.091 104.623 188.278 104.36C187.445 104.282 186.719 104.155 186.101 104.011C185.865 103.216 185.017 101.168 182.506 100.905L177.97 92.1666C178.434 92.1314 179.038 91.8524 179.156 90.6773C185.185 91.8134 191.933 89.6617 195.795 88.0792Z" fill="#F5F5F5"/>
<path d="M70.7256 34.2484C70.7256 34.2484 66.2242 36.4609 60.3384 39.9562C53.1636 44.2176 38.3906 52.5949 28.9492 45.9776L20.3047 29.0077C20.3047 29.0077 25.8534 31.5521 34.296 30.4557C41.8251 29.4781 47.8543 25.5101 50.565 23.6832C51.6621 22.9439 53.1073 21.9417 54.2428 21.2621C56.1411 20.1254 58.415 18.4564 61.7317 16.8433L70.7256 34.2484Z" fill="#EBEBEB"/>
<path d="M39.7789 38.3989C39.1523 34.8226 41.6973 31.3887 45.4638 30.7286C49.2298 30.0685 52.7909 32.4327 53.4175 36.0084C54.0442 39.5846 51.4991 43.0185 47.7326 43.6786C43.9667 44.3388 40.4055 41.9751 39.7789 38.3989Z" fill="#F5F5F5"/>
<path d="M44.3491 34.5341L43.7933 33.672L44.4791 33.2301L45.0192 34.0688C45.7279 33.6776 46.5331 33.4968 47.1235 33.5844L47.3506 34.7663C46.8244 34.7027 46.1966 34.8126 45.6682 35.0771L46.4963 36.3622C47.3913 36.0793 48.4247 35.8159 49.1339 36.9163C49.659 37.732 49.582 38.7727 48.5876 39.6092L49.1378 40.4629L48.4521 40.9043L47.9119 40.0656C47.3679 40.3507 46.768 40.5193 46.2173 40.493L45.9511 39.3257C46.4438 39.3235 46.8858 39.2247 47.2574 39.05L46.4154 37.7421C45.5253 38.0323 44.5053 38.2867 43.8061 37.2019C43.2911 36.4018 43.3664 35.3739 44.3491 34.5341ZM44.8513 36.399C45.0248 36.6685 45.3178 36.6864 45.6872 36.6116L45.0031 35.5497C44.7151 35.8555 44.6928 36.1524 44.8513 36.399ZM47.2256 37.4927L47.9292 38.5852C48.2328 38.2582 48.2333 37.9424 48.0698 37.6885C47.8963 37.4201 47.5966 37.4062 47.2256 37.4927Z" fill="#EBEBEB"/>
<path d="M29.8847 46.0674L29.9991 46.1349C30.2797 46.3007 37.0142 50.1341 49.0196 44.6746C55.0862 41.9159 59.0329 39.3524 61.915 37.4809C64.5158 35.7913 66.3963 34.5715 68.4547 34.0252L68.9988 33.8813L61.2264 17.913L60.7822 18.2227C60.655 18.3114 47.9851 27.1205 42.3359 29.434C37.8507 31.2698 29.373 33.9119 22.9805 30.9679L21.7529 30.4027L29.8847 46.0674ZM42.6863 30.2911C46.767 28.6204 54.1833 23.8015 58.3259 21.0188C58.7087 21.6008 59.298 22.0477 59.9692 22.2386C60.7008 22.4467 61.5115 22.3485 62.1784 21.9836L66.4337 30.7258C65.7535 30.9858 65.2256 31.6174 65.0242 32.3272C64.8311 33.0069 64.9059 33.7362 65.1374 34.408C64.0008 35.0251 62.8078 35.7957 61.4105 36.7031C58.394 38.6622 54.6398 41.1001 48.6363 43.8304C42.6032 46.5735 37.9829 46.8352 35.1695 46.5718C34.3369 46.4937 33.6104 46.3665 32.9922 46.2225C32.7567 45.4279 31.9091 43.3801 29.3981 43.1173L24.8615 34.379C25.3252 34.3438 25.9296 34.0648 26.0479 32.8897C32.0765 34.0252 38.8238 31.8736 42.6863 30.2911Z" fill="#F5F5F5"/>
<path d="M230.939 226.632C230.939 226.632 226.438 228.845 220.552 232.34C213.377 236.601 198.604 244.979 189.163 238.361L180.519 221.392C180.519 221.392 186.067 223.937 194.51 222.84C202.039 221.862 208.068 217.895 210.779 216.068C211.876 215.328 213.321 214.326 214.457 213.646C216.355 212.51 218.629 210.841 221.946 209.228L230.939 226.632Z" fill="#EBEBEB"/>
<path d="M199.993 230.783C199.366 227.207 201.911 223.773 205.678 223.113C209.444 222.453 213.005 224.817 213.631 228.393C214.258 231.969 211.713 235.403 207.947 236.063C204.181 236.723 200.619 234.359 199.993 230.783Z" fill="#F5F5F5"/>
<path d="M204.563 226.918L204.007 226.056L204.693 225.614L205.233 226.453C205.941 226.061 206.747 225.881 207.337 225.968L207.564 227.15C207.038 227.086 206.41 227.196 205.882 227.461L206.71 228.746C207.605 228.463 208.639 228.2 209.347 229.3C209.873 230.116 209.796 231.157 208.801 231.993L209.351 232.847L208.666 233.288L208.125 232.449C207.581 232.735 206.982 232.903 206.431 232.877L206.164 231.709C206.657 231.707 207.099 231.608 207.47 231.433L206.628 230.125C205.738 230.415 204.718 230.67 204.019 229.585C203.505 228.786 203.58 227.758 204.563 226.918ZM205.065 228.783C205.238 229.053 205.531 229.071 205.901 228.996L205.217 227.934C204.929 228.239 204.906 228.537 205.065 228.783ZM207.439 229.877L208.142 230.97C208.446 230.643 208.446 230.327 208.283 230.073C208.11 229.804 207.81 229.791 207.439 229.877Z" fill="#EBEBEB"/>
<path d="M190.098 238.451L190.212 238.519C190.493 238.684 197.228 242.518 209.233 237.058C215.3 234.3 219.246 231.736 222.128 229.865C224.729 228.175 226.61 226.955 228.668 226.409L229.212 226.265L221.44 210.297L220.996 210.606C220.868 210.695 208.199 219.504 202.549 221.818C198.064 223.654 189.586 226.296 183.193 223.352L181.966 222.786L190.098 238.451ZM202.9 222.675C206.98 221.005 214.397 216.186 218.539 213.403C218.922 213.985 219.511 214.432 220.182 214.623C220.914 214.831 221.724 214.733 222.391 214.368L226.647 223.11C225.966 223.37 225.438 224.002 225.237 224.712C225.044 225.391 225.119 226.121 225.35 226.792C224.214 227.409 223.021 228.18 221.623 229.087C218.607 231.047 214.853 233.484 208.849 236.215C202.816 238.958 198.196 239.22 195.382 238.956C194.55 238.878 193.823 238.751 193.205 238.607C192.97 237.812 192.122 235.764 189.611 235.502L185.074 226.763C185.538 226.728 186.142 226.449 186.261 225.274C192.29 226.41 199.037 224.258 202.9 222.675Z" fill="#F5F5F5"/>
<path d="M62.7612 174.207C62.7612 174.207 58.2598 176.419 52.374 179.914C45.1993 184.176 30.4262 192.553 20.9849 185.936L12.3403 168.966C12.3403 168.966 17.8891 171.51 26.3322 170.414C33.8613 169.436 39.8905 165.468 42.6012 163.641C43.6983 162.902 45.1435 161.9 46.279 161.22C48.1773 160.084 50.4512 158.415 53.7679 156.801L62.7612 174.207Z" fill="#EBEBEB"/>
<path d="M31.8146 178.357C31.1879 174.781 33.733 171.347 37.4989 170.687C41.2648 170.027 44.826 172.391 45.4526 175.966C46.0793 179.543 43.5342 182.977 39.7677 183.637C36.0023 184.297 32.4412 181.933 31.8146 178.357Z" fill="#F5F5F5"/>
<path d="M36.384 174.492L35.8282 173.63L36.514 173.188L37.0541 174.027C37.7628 173.636 38.568 173.455 39.1583 173.543L39.3854 174.724C38.8592 174.661 38.2315 174.771 37.7031 175.035L38.5311 176.32C39.4262 176.037 40.4601 175.774 41.1688 176.874C41.6939 177.69 41.6169 178.731 40.6225 179.567L41.1727 180.421L40.4869 180.862L39.9468 180.024C39.4027 180.309 38.8029 180.477 38.2521 180.451L37.9854 179.284C38.4781 179.282 38.9201 179.183 39.2917 179.008L38.4497 177.7C37.5597 177.99 36.5396 178.245 35.8405 177.16C35.3266 176.36 35.4019 175.332 36.384 174.492ZM36.8867 176.357C37.0603 176.627 37.3532 176.644 37.7226 176.57L37.0385 175.508C36.75 175.814 36.7277 176.11 36.8867 176.357ZM39.2605 177.451L39.9641 178.544C40.2682 178.217 40.2682 177.901 40.1053 177.647C39.9317 177.378 39.6321 177.364 39.2605 177.451Z" fill="#EBEBEB"/>
<path d="M21.9203 186.026L22.0347 186.093C22.3154 186.259 29.0493 190.092 41.0552 184.633C47.1218 181.873 51.0686 179.311 53.9506 177.439C56.5515 175.749 58.4319 174.53 60.4904 173.983L61.0344 173.839L53.262 157.871L52.8179 158.181C52.6907 158.27 40.0207 167.079 34.371 169.392C29.8858 171.228 21.4081 173.871 15.0156 170.926L13.7886 170.361L21.9203 186.026ZM34.7219 170.25C38.8026 168.579 46.219 163.76 50.3616 160.978C50.7444 161.56 51.3336 162.007 52.0049 162.198C52.7364 162.406 53.5472 162.308 54.214 161.943L58.4693 170.685C57.7891 170.945 57.2612 171.577 57.0598 172.286C56.8667 172.966 56.9415 173.695 57.1731 174.367C56.0364 174.984 54.8434 175.755 53.4462 176.662C50.4296 178.621 46.6754 181.059 40.6719 183.79C34.6388 186.533 30.0186 186.794 27.2051 186.532C26.3726 186.454 25.6461 186.326 25.0278 186.182C24.7923 185.388 23.9447 183.34 21.4337 183.077L16.8972 174.339C17.3609 174.304 17.9652 174.025 18.0835 172.849C24.1121 173.983 30.8595 171.832 34.7219 170.25Z" fill="#F5F5F5"/>
<path d="M201.62 176.992C201.62 176.992 210.243 166.884 227.191 173.395C227.836 173.642 228.498 173.842 229.179 173.96C230.597 174.207 232.889 174.382 234.961 173.549C238.261 172.221 242.957 170.287 242.957 170.287L257.475 178.879C257.475 178.879 251.39 183.318 245.496 183.69C239.602 184.063 232.636 179.226 225.878 180.878C225.878 180.878 221.06 181.609 216.948 186.012L201.62 176.992Z" fill="#EBEBEB"/>
<path d="M236.617 179.217C235.964 179.802 232.032 179.265 227.834 178.019C223.637 176.773 220.763 175.289 221.416 174.704C222.069 174.12 226.001 174.656 230.199 175.902C234.396 177.148 237.27 178.632 236.617 179.217Z" fill="#F5F5F5"/>
<path d="M230.762 178.083L231.029 178.365L230.147 178.171L229.887 177.896C228.999 177.689 228.086 177.426 227.499 177.211L227.693 177.011C228.222 177.201 228.923 177.409 229.575 177.566L229.176 177.146C228.132 176.862 226.95 176.528 226.609 176.169C226.355 175.901 226.819 175.822 228.169 176.083L227.905 175.804L228.788 175.998L229.048 176.272C229.724 176.433 230.416 176.625 230.985 176.82L230.837 177.032C230.317 176.86 229.818 176.716 229.362 176.604L229.768 177.032C230.81 177.313 231.974 177.643 232.311 177.998C232.558 178.26 232.102 178.34 230.762 178.083ZM228.825 176.776L228.485 176.418C228.046 176.345 227.93 176.378 228.009 176.461C228.092 176.549 228.403 176.655 228.825 176.776ZM230.917 177.716C230.833 177.628 230.533 177.524 230.117 177.403L230.446 177.75C230.862 177.82 230.993 177.797 230.917 177.716Z" fill="#EBEBEB"/>
<path d="M242.764 171.318L242.606 171.397C242.561 171.419 238.06 173.642 234.122 174.639C232.095 175.152 231.145 174.987 229.418 174.688C229.081 174.63 228.717 174.566 228.312 174.502C227.542 174.381 226.517 174.051 225.33 173.67C223.136 172.964 220.41 172.087 217.681 172.002C217.659 172.002 217.635 172.001 217.613 172.001C217.537 171.994 210.022 171.354 203.924 176.259L203.562 176.551L216.605 184.449L216.786 184.282C216.855 184.218 223.854 177.897 233.314 180.276C234.432 180.558 235.472 180.833 236.449 181.091C244.112 183.117 247.958 184.133 255.661 179.508L256.13 179.226L242.764 171.318ZM236.617 180.461C235.637 180.202 234.595 179.926 233.473 179.644C227.039 178.026 221.708 180.29 218.779 182.06C216.618 180.927 215.115 181.949 214.562 182.449L206.935 177.831C208.406 176.547 207.546 175.438 207.047 174.98C212.237 172.206 217.494 172.645 217.573 172.653C220.253 172.727 222.958 173.593 225.13 174.292C226.343 174.682 227.39 175.019 228.21 175.148C228.611 175.211 228.972 175.273 229.307 175.331C231.061 175.636 232.121 175.82 234.282 175.272C236.547 174.699 238.987 173.73 240.69 172.992C241.24 173.463 242.677 174.358 244.811 173.288L252.593 177.892C252.012 178.167 251.141 178.885 252.527 180.454C246.796 183.148 243.106 182.176 236.617 180.461Z" fill="#F5F5F5"/>
<path d="M70.3169 104.84C70.3169 104.84 70.178 91.555 87.2321 85.3294C87.8805 85.0928 88.5116 84.8082 89.1026 84.45C90.3341 83.7039 92.1766 82.3307 93.191 80.3409C94.807 77.1709 97.0764 72.6287 97.0764 72.6287L113.667 69.5681C113.667 69.5681 111.996 76.912 107.797 81.0657C103.598 85.2189 95.168 86.148 91.1582 91.8334C91.1582 91.8334 88.0061 95.5497 87.7985 101.571L70.3169 104.84Z" fill="#EBEBEB"/>
<path d="M98.1638 83.5264C98.0556 84.3964 94.7388 86.5754 90.7558 88.3933C86.7728 90.2113 83.6313 90.9802 83.7395 90.1103C83.8478 89.2404 87.1645 87.0614 91.1475 85.2434C95.1305 83.4254 98.2715 82.6565 98.1638 83.5264Z" fill="#F5F5F5"/>
<path d="M93.0047 86.5179L93.3914 86.5547L92.5985 86.9883L92.2218 86.952C91.4161 87.3794 90.5557 87.7806 89.9714 88.0049L89.9859 87.7265C90.5105 87.5217 91.1745 87.2187 91.7693 86.909L91.1923 86.8538C90.2192 87.3259 89.1088 87.8509 88.6149 87.8041C88.2489 87.7689 88.5452 87.4051 89.7354 86.7143L89.3521 86.6775L90.145 86.2439L90.5211 86.2802C91.1365 85.9571 91.7844 85.6474 92.3413 85.4203L92.3697 85.6775C91.8653 85.889 91.3943 86.1089 90.9775 86.3237L91.5645 86.38C92.5343 85.9074 93.6291 85.3907 94.1163 85.4376C94.4756 85.4716 94.1838 85.831 93.0047 86.5179ZM90.6851 86.8052L90.1946 86.7584C89.8158 86.9922 89.7499 87.0926 89.8637 87.1038C89.9848 87.1149 90.2878 86.9911 90.6851 86.8052ZM92.8808 86.1396C92.7598 86.1278 92.4646 86.2472 92.0717 86.4286L92.5483 86.4744C92.9071 86.2539 92.9919 86.1502 92.8808 86.1396Z" fill="#EBEBEB"/>
<path d="M97.6097 73.5333L97.5417 73.6968C97.5227 73.7431 95.5898 78.3756 93.2752 81.7147C92.0844 83.4328 91.2591 83.9339 89.7609 84.8417C89.4685 85.0192 89.1521 85.2111 88.805 85.4288C88.1449 85.8428 87.1556 86.268 86.01 86.7596C83.8919 87.6691 81.2603 88.7991 79.1472 90.5277C79.1299 90.5423 79.112 90.5568 79.0942 90.5713C79.0334 90.6154 72.9467 95.0704 71.5718 102.775L71.4897 103.233L86.5122 100.618L86.539 100.374C86.5491 100.28 87.6729 90.9167 96.3682 86.4956C97.3966 85.9728 98.3614 85.4974 99.2681 85.0499C106.376 81.5434 109.943 79.7829 112.712 71.2355L112.881 70.7148L97.6097 73.5333ZM98.9807 84.4645C98.0718 84.9132 97.1047 85.3897 96.0741 85.9136C90.161 88.9202 87.6288 94.1302 86.5836 97.3884C84.2094 97.9542 83.7479 99.7124 83.6597 100.453L74.8751 101.982C75.1407 100.047 73.7642 99.776 73.0867 99.7576C75.177 94.2569 79.429 91.1349 79.4937 91.0874C81.5628 89.3839 84.1709 88.2595 86.2684 87.3589C87.4391 86.8561 88.4496 86.4225 89.1527 85.9812C89.4964 85.7652 89.81 85.5755 90.1002 85.3992C91.6229 84.4762 92.5425 83.9182 93.812 82.0858C95.1434 80.1657 96.3464 77.8321 97.1455 76.1565C97.8698 76.1509 99.541 75.8819 100.447 73.6728L109.339 72.0317C109.082 72.6204 108.896 73.7342 110.972 74.007C108.42 79.8035 105 81.4948 98.9807 84.4645Z" fill="#F5F5F5"/>
<path d="M193.844 47.0668C193.844 47.0668 201.974 36.5585 219.213 42.2501C219.869 42.4666 220.54 42.6346 221.225 42.72C222.654 42.898 224.951 42.9638 226.981 42.0319C230.215 40.5477 234.812 38.391 234.812 38.391L249.725 46.2783C249.725 46.2783 243.86 51.0035 237.99 51.6574C232.12 52.312 224.931 47.8134 218.26 49.7865C218.26 49.7865 213.482 50.7468 209.585 55.3419L193.844 47.0668Z" fill="#EBEBEB"/>
<path d="M228.907 47.6142C228.282 48.2297 224.33 47.882 220.077 46.838C215.825 45.794 212.884 44.4492 213.508 43.8337C214.132 43.2183 218.085 43.5659 222.338 44.6099C226.59 45.6545 229.531 46.9993 228.907 47.6142Z" fill="#F5F5F5"/>
<path d="M223.004 46.7621L223.285 47.031L222.394 46.8792L222.121 46.6175C221.224 46.4529 220.301 46.2348 219.703 46.0478L219.887 45.838C220.425 46.0026 221.134 46.1767 221.793 46.3028L221.375 45.9016C220.319 45.6684 219.122 45.3916 218.763 45.0485C218.498 44.794 218.956 44.6924 220.318 44.8883L220.04 44.6216L220.931 44.7734L221.204 45.0351C221.887 45.1628 222.587 45.3219 223.164 45.4893L223.027 45.7086C222.5 45.5618 221.994 45.4418 221.534 45.352L221.96 45.7599C223.014 45.9904 224.193 46.2643 224.547 46.603C224.807 46.8536 224.355 46.954 223.004 46.7621ZM221.007 45.549L220.651 45.208C220.209 45.1567 220.095 45.1946 220.177 45.2739C220.265 45.3576 220.58 45.4485 221.007 45.549ZM223.142 46.3882C223.054 46.304 222.749 46.2147 222.328 46.1131L222.673 46.4446C223.092 46.4942 223.222 46.4652 223.142 46.3882Z" fill="#EBEBEB"/>
<path d="M234.669 39.4312L234.515 39.5171C234.471 39.5416 230.082 41.9767 226.196 43.1614C224.196 43.7707 223.239 43.6519 221.5 43.4354C221.16 43.393 220.794 43.3472 220.386 43.3031C219.612 43.2189 218.572 42.9387 217.369 42.614C215.143 42.0141 212.378 41.2686 209.648 41.3144C209.625 41.315 209.602 41.3155 209.579 41.3161C209.504 41.3127 201.967 41.0332 196.11 46.2248L195.762 46.5339L209.168 53.7985L209.341 53.6239C209.407 53.5564 216.095 46.9072 225.658 48.8312C226.789 49.0589 227.841 49.2838 228.83 49.4952C236.581 51.1525 240.471 51.9839 247.944 46.9948L248.399 46.6907L234.669 39.4312ZM228.967 48.8569C227.975 48.6448 226.921 48.4194 225.787 48.1912C219.284 46.8827 214.066 49.3998 211.226 51.3071C209.013 50.2787 207.561 51.3718 207.032 51.898L199.193 47.6499C200.601 46.2968 199.689 45.2304 199.169 44.7963C204.22 41.777 209.491 41.965 209.572 41.9678C212.251 41.9143 214.994 42.6497 217.198 43.244C218.428 43.5754 219.49 43.8617 220.315 43.9515C220.719 43.9956 221.083 44.0408 221.419 44.0826C223.186 44.303 224.253 44.4353 226.386 43.7852C228.621 43.1045 231.012 42.0203 232.678 41.2011C233.25 41.6459 234.727 42.4711 236.808 41.2999L244.802 45.5262C244.234 45.8286 243.399 46.5869 244.858 48.0891C239.262 51.0543 235.53 50.2608 228.967 48.8569Z" fill="#F5F5F5"/>
<path d="M259.358 267.159C259.358 267.239 206.691 267.304 141.737 267.304C76.7611 267.304 24.1055 267.239 24.1055 267.159C24.1055 267.078 76.7617 267.014 141.737 267.014C206.691 267.014 259.358 267.078 259.358 267.159Z" fill="#263238"/>
<path d="M248.448 148.112L248.8 148.697C249.195 149.354 249.771 149.883 250.458 150.223L251.07 150.526L250.484 150.878C249.828 151.273 249.298 151.848 248.958 152.536L248.655 153.148L248.303 152.562C247.908 151.906 247.333 151.376 246.645 151.036L246.033 150.733L246.619 150.381C247.275 149.986 247.805 149.411 248.145 148.724L248.448 148.112Z" fill="#0196CE"/>
<path d="M78.377 257.174L78.7185 257.742C79.1019 258.379 79.6599 258.893 80.3261 259.222L80.9198 259.516L80.3523 259.857C79.7151 260.241 79.2012 260.799 78.872 261.465L78.5785 262.059L78.237 261.491C77.8536 260.854 77.2956 260.341 76.6294 260.011L76.0356 259.717L76.6031 259.376C77.2404 258.992 77.7537 258.434 78.0835 257.768L78.377 257.174Z" fill="#0196CE"/>
<path d="M44.1554 71.3582L44.7692 72.3782C45.4584 73.5232 46.4611 74.4472 47.6591 75.0398L48.7266 75.5677L47.7065 76.1815C46.561 76.8706 45.6375 77.8739 45.0449 79.0714L44.517 80.1388L43.9032 79.1183C43.2141 77.9732 42.2114 77.0492 41.0128 76.4572L39.9453 75.9293L40.9659 75.3155C42.1109 74.6264 43.035 73.6236 43.627 72.4256L44.1554 71.3582Z" fill="#0196CE"/>
<path d="M167.398 35.6406L168.012 36.6612C168.701 37.8062 169.704 38.7303 170.902 39.3229L171.969 39.8507L170.949 40.4645C169.804 41.1537 168.88 42.1569 168.288 43.355L167.76 44.4224L167.146 43.4024C166.457 42.2574 165.454 41.3333 164.255 40.7413L163.188 40.2134L164.209 39.5991C165.354 38.9099 166.278 37.9072 166.87 36.7092L167.398 35.6406Z" fill="#0196CE"/>
<path d="M260.557 125.229L260.798 125.631C261.069 126.081 261.464 126.445 261.935 126.678L262.356 126.886L261.954 127.128C261.503 127.399 261.14 127.793 260.907 128.265L260.699 128.685L260.458 128.284C260.187 127.833 259.792 127.47 259.321 127.236L258.9 127.029L259.302 126.787C259.752 126.516 260.116 126.121 260.349 125.65L260.557 125.229Z" fill="#0196CE"/>
<path d="M55.0699 122.912L55.3187 123.326C55.5983 123.791 56.0051 124.165 56.4911 124.406L56.9241 124.62L56.5101 124.869C56.0452 125.148 55.6708 125.555 55.4303 126.041L55.2161 126.474L54.9672 126.06C54.6876 125.595 54.2808 125.221 53.7948 124.98L53.3618 124.766L53.7759 124.517C54.2407 124.238 54.6151 123.831 54.8556 123.345L55.0699 122.912Z" fill="#0196CE"/>
<path d="M97.5991 50.3646L97.848 50.7781C98.1276 51.2429 98.5344 51.6173 99.0204 51.8578L99.4534 52.0721L99.0393 52.321C98.5745 52.6005 98.2001 53.0073 97.9596 53.4933L97.7453 53.9263L97.4965 53.5123C97.2169 53.0475 96.8101 52.6731 96.3241 52.4326L95.8911 52.2183L96.3051 51.9694C96.77 51.6899 97.1444 51.2831 97.3849 50.7971L97.5991 50.3646Z" fill="#0196CE"/>
<path d="M194.404 179.301C194.404 179.9 198.001 195.786 198.001 195.786C198.001 195.786 205.494 190.691 208.342 188.293C211.189 185.895 224.977 173.156 224.977 173.156L233.22 180.783C233.22 180.783 205.885 217.98 196.195 220.213C191.221 221.36 185.707 217.601 184.637 214.947C182.25 209.026 178.551 183.773 178.551 183.773L183.914 181.399L194.404 179.301Z" fill="#FFBF9D"/>
<path d="M198.319 195.82C198.325 195.882 197.621 195.844 196.618 196.266C195.621 196.671 194.384 197.617 193.506 199.022C192.63 200.433 192.199 201.905 191.891 202.954C191.591 204.012 191.413 204.672 191.369 204.662C191.331 204.653 191.435 203.978 191.683 202.9C191.94 201.831 192.342 200.322 193.248 198.861C194.16 197.4 195.478 196.436 196.539 196.067C197.069 195.876 197.522 195.802 197.834 195.792C198.147 195.778 198.319 195.803 198.319 195.82Z" fill="#875149"/>
<path d="M222.786 175.178C222.786 175.178 230.323 166.74 233.36 166.983C236.397 167.226 240.771 167.882 241.986 167.675C243.201 167.469 246.603 167.675 246.603 167.675C246.603 167.675 254.5 163.396 255.958 163.732C255.958 163.732 257.312 163.663 257.779 164.43C257.779 164.43 260.78 162.53 262.949 163.713L255.078 170.267L257.479 169.966C257.479 169.966 264.55 166.231 266.784 168.799L261.447 171.667C261.447 171.667 265.883 171.6 266.55 173.401L256.611 175.002C256.611 175.002 237.73 176.579 236.73 177.013C235.729 177.446 231.735 182.619 231.735 182.619L222.786 175.178Z" fill="#FFBF9D"/>
<path d="M257.887 164.471C257.901 164.487 257.732 164.651 257.414 164.933C257.093 165.211 256.623 165.607 256.022 166.072C254.823 167.005 253.107 168.224 251.104 169.394C250.153 169.944 249.248 170.457 248.366 170.864C247.492 171.268 246.549 171.45 245.799 171.208L245.938 171.132C245.655 171.996 244.976 172.412 244.532 172.559C244.301 172.637 244.113 172.656 243.986 172.66C243.86 172.659 243.794 172.649 243.794 172.639C243.792 172.608 244.062 172.621 244.487 172.443C244.895 172.271 245.499 171.848 245.723 171.07L245.754 170.962L245.861 170.993C246.545 171.188 247.405 171.01 248.25 170.606C249.098 170.2 250.009 169.676 250.95 169.131C252.942 167.968 254.667 166.784 255.894 165.9C256.463 165.483 256.946 165.129 257.34 164.84C257.68 164.588 257.874 164.456 257.887 164.471Z" fill="#875149"/>
<path d="M255.077 170.417C255.1 170.445 254.731 170.803 254.026 171.239C253.324 171.672 252.267 172.159 251.019 172.398C250.394 172.525 249.792 172.545 249.276 172.641C248.757 172.725 248.334 172.933 247.962 173.109C247.225 173.489 246.679 173.526 246.681 173.478C246.679 173.44 247.163 173.339 247.864 172.917C248.216 172.721 248.671 172.472 249.222 172.366C249.768 172.251 250.361 172.223 250.961 172.1C253.404 171.64 255.032 170.329 255.077 170.417Z" fill="#875149"/>
<path d="M261.856 171.102C261.878 171.13 261.494 171.48 260.788 171.929C260.083 172.379 259.042 172.904 257.817 173.277C256.59 173.646 255.431 173.786 254.596 173.801C253.759 173.819 253.246 173.741 253.249 173.705C253.245 173.605 255.322 173.727 257.729 172.986C260.143 172.27 261.804 171.017 261.856 171.102Z" fill="#875149"/>
<path d="M109.825 224.293C101.672 236.984 92.2108 252.857 86.4438 267.159H184.663L172.932 224.293H109.825Z" fill="#263238"/>
<path d="M49.0127 177.894C49.0127 177.894 55.9531 188.066 58.3073 190.748C60.6615 193.43 70.5839 207.635 75.7448 213.337C80.9716 219.112 86.5365 222.168 90.178 222.168C93.9172 222.168 97.7004 220.889 100.668 213.919C104.953 203.855 108.562 174.303 108.562 174.303L91.8213 168.171L85.7347 198.795C84.102 197.162 58.3079 173.111 58.3079 173.111L52.3981 175.556L49.0127 177.894Z" fill="#FFBF9D"/>
<path d="M27.5006 165.366C27.5006 165.366 27.8946 164.657 30.1009 164.972C32.3072 165.287 36.1675 167.572 37.0346 167.572C37.9017 167.572 47.5925 167.888 49.4836 168.36C51.3746 168.833 54.3147 169.116 56.0484 170.928L58.8574 173.416L49.478 178.571C49.478 178.571 48.617 177.185 46.4899 177.027C44.3628 176.87 34.5928 176.397 34.5928 176.397L27.0291 174.663L17.417 170.015C17.417 170.015 18.2049 168.124 20.1746 168.596C22.1444 169.069 25.8473 170.409 25.8473 170.409L29.0775 171.392L20.568 167.336C20.568 167.336 22.2225 165.445 24.9014 166.312C27.5804 167.178 32.1499 169.227 32.1499 169.227L32.7804 168.99L27.5006 165.366Z" fill="#FFBF9D"/>
<path d="M38.1345 170.962C38.1401 171.031 36.7903 171.063 35.253 170.49C33.7107 169.929 32.704 169.029 32.7537 168.98C32.8045 168.908 33.858 169.681 35.3512 170.223C36.8388 170.779 38.1423 170.875 38.1345 170.962Z" fill="#875149"/>
<path d="M36.3534 173.401C36.3557 173.434 35.878 173.51 35.0974 173.496C34.3184 173.483 33.2376 173.352 32.0953 173C30.9542 172.646 29.9872 172.144 29.3372 171.715C28.6849 171.286 28.3328 170.954 28.3534 170.928C28.4036 170.848 29.932 172.048 32.1796 172.728C34.4183 173.434 36.3574 173.307 36.3534 173.401Z" fill="#875149"/>
<path d="M19.487 171.027C18.8241 171.339 18.3872 172.077 18.4318 172.808C21.6247 173.853 24.9119 174.61 28.2404 175.067" fill="#875149"/>
<path d="M91.644 211.688C91.5871 211.682 91.7004 210.838 91.6144 209.481C91.5771 208.802 91.4593 208.001 91.2612 207.126C91.0464 206.256 90.7412 205.316 90.3149 204.373C89.8763 203.435 89.3612 202.591 88.8406 201.862C88.3055 201.142 87.7737 200.531 87.2827 200.06C86.3084 199.112 85.5942 198.648 85.6265 198.602C85.6377 198.585 85.8196 198.694 86.1416 198.905C86.3045 199.007 86.4993 199.141 86.7096 199.315C86.9217 199.488 87.175 199.672 87.4205 199.915C87.9367 200.373 88.4941 200.982 89.051 201.706C89.5934 202.441 90.1263 203.297 90.5732 204.254C91.0085 205.216 91.312 206.178 91.5168 207.068C91.7043 207.962 91.8031 208.781 91.8153 209.471C91.8399 209.815 91.8148 210.127 91.8075 210.401C91.8036 210.675 91.7779 210.908 91.7495 211.099C91.7004 211.481 91.6635 211.69 91.644 211.688Z" fill="#875149"/>
<path d="M107.65 138.492C105.335 139.921 99.9845 144.253 94.4452 155.971C87.0757 171.559 85.1646 181.285 85.1646 181.285L104.753 188.281L110.692 137.02C110.692 137.02 108.415 138.02 107.65 138.492Z" fill="#455A64"/>
<path d="M103.396 154.819C103.396 154.819 103.859 171.355 103.859 175.85C103.859 180.345 105.87 214.12 105.87 214.12C105.87 214.12 105.857 225.24 112.772 225.067C119.687 224.894 131.476 226.228 136.144 226.228C139.588 226.228 159.157 226.459 169.458 225.538C174.342 225.101 176.221 222.721 177.728 218.854C177.932 218.33 177.808 218.636 177.932 218.33C180.881 211.072 178.602 180.034 178.602 180.034L174.947 151.972L166.617 135.403L119.462 135.256C104.328 136.293 104.322 142.495 103.396 154.819Z" fill="#455A64"/>
<path d="M186.332 148.965C178.568 136.072 166.616 135.403 166.616 135.403L173.669 193.53L179.235 191.978C179.648 191.84 200.16 183.661 200.16 183.661C200.16 183.661 191.111 156.901 186.332 148.965Z" fill="#455A64"/>
<path d="M172.497 153.135C172.502 153.133 172.525 153.172 172.566 153.249C172.613 153.342 172.671 153.455 172.741 153.593C172.888 153.899 173.122 154.343 173.38 154.935C173.919 156.109 174.632 157.839 175.376 160.027C176.888 164.392 178.32 170.655 178.978 177.676C179.642 184.699 179.592 191.089 179.523 195.7C179.484 198.006 179.429 199.872 179.386 201.162C179.361 201.787 179.342 202.282 179.328 202.646C179.319 202.801 179.312 202.928 179.306 203.032C179.299 203.119 179.293 203.163 179.288 203.163C179.283 203.163 179.279 203.118 179.275 203.031C179.274 202.927 179.272 202.8 179.269 202.644C179.27 202.281 179.272 201.785 179.273 201.159C179.284 199.843 179.299 197.984 179.318 195.697C179.335 191.088 179.352 184.707 178.69 177.704C178.033 170.702 176.638 164.459 175.182 160.091C174.465 157.902 173.784 156.165 173.277 154.98C173.035 154.382 172.818 153.932 172.689 153.617C172.629 153.474 172.58 153.357 172.54 153.261C172.507 153.18 172.493 153.138 172.497 153.135Z" fill="#263238"/>
<g opacity="0.3">
<path d="M138.191 191.526C138.191 191.526 141.6 187.82 147.032 186.062C151.44 184.636 164.497 181.914 167.961 180.644C174.292 178.321 178.182 174.192 178.182 174.192L193.509 186.781C193.509 186.781 189.665 190.355 184.794 192.972C179.861 195.623 167.703 195.636 161.154 199.563C156.913 202.105 151.426 209.558 151.426 209.558L138.191 191.526Z" fill="black"/>
</g>
<g opacity="0.3">
<path d="M159.29 259.65C159.29 259.65 154.259 259.456 149.4 256.457C145.457 254.024 134.923 245.844 131.711 244.029C125.839 240.711 120.162 239.705 120.162 239.705L119.83 220.593C119.83 220.593 125.042 221.205 130.193 223.218C135.408 225.258 143.296 234.509 150.531 236.953C155.216 238.534 164.448 237.884 164.448 237.884L159.29 259.65Z" fill="black"/>
</g>
<g opacity="0.3">
<path d="M90.7573 163.809C94.6639 165.124 99.6111 162.887 102.115 159.613C104.619 156.339 107.068 152.137 107.664 148.058C104.802 148.053 100.915 148.272 98.0515 148.266L90.7573 163.809Z" fill="black"/>
</g>
<path d="M104.328 168.303C104.338 168.303 104.351 168.461 104.364 168.762C104.377 169.09 104.393 169.529 104.413 170.08C104.445 171.253 104.491 172.901 104.547 174.926C104.657 179.043 104.808 184.682 104.973 190.913C105.155 197.158 105.353 202.808 105.535 206.897C105.632 208.919 105.711 210.565 105.768 211.738C105.795 212.288 105.815 212.726 105.831 213.054C105.842 213.355 105.843 213.514 105.833 213.514C105.823 213.515 105.802 213.358 105.773 213.058C105.744 212.731 105.705 212.294 105.656 211.745C105.554 210.604 105.451 208.95 105.33 206.907C105.095 202.819 104.865 197.167 104.683 190.921C104.5 184.678 104.395 179.023 104.342 174.93C104.324 172.905 104.31 171.256 104.3 170.082C104.303 169.53 104.305 169.091 104.306 168.763C104.311 168.461 104.319 168.303 104.328 168.303Z" fill="#263238"/>
<g opacity="0.3">
<path d="M104.857 202.889C99.7592 191.375 100.518 178.566 104.329 166.564C104.877 178.254 105.146 191.19 104.857 202.889Z" fill="black"/>
</g>
<path d="M165.697 80.1768C164.43 76.0147 161.415 72.4156 157.539 70.4386C153.281 68.2669 148.207 68.0822 143.548 69.1541C138.89 70.226 134.585 72.4714 130.517 74.9824C128.235 76.3913 125.964 77.9331 124.355 80.0792C121.42 83.9963 118.591 90.3731 118.437 95.2651C118.312 99.2214 120.107 109.064 121.879 112.604C122.509 113.864 123.987 114.979 125.764 115.916C127.676 119.405 130.178 122.569 133.188 125.174C134.027 122.496 134.867 119.818 135.706 117.14L165.697 80.1768Z" fill="#263238"/>
<path d="M163.282 75.3729L155.459 74.2034C160.003 84.215 161.818 107.354 164.558 118.001C167.308 113.756 173.609 100.886 173.109 95.8532C172.609 90.82 172.506 74.2491 163.282 75.3729Z" fill="#263238"/>
<path d="M126.861 93.2926C127.111 87.3605 130.805 82.396 136.513 80.7649L154.308 75.6804C162.031 74.6225 167.476 84.0041 168.205 91.7648C169.015 100.387 169.622 109.492 168.797 115.97C167.138 128.994 157.254 130.949 157.254 130.949C157.253 130.93 157.428 137.116 157.529 140.902L146.975 162.917L130.552 136.533L126.82 93.4516C126.809 93.2301 126.848 93.5883 126.861 93.2926Z" fill="#FFBF9D"/>
<path d="M163.241 101.285C163.299 102.162 162.604 102.934 161.689 103.012C160.777 103.089 159.988 102.443 159.93 101.566C159.873 100.689 160.567 99.916 161.479 99.839C162.394 99.7609 163.183 100.408 163.241 101.285Z" fill="#263238"/>
<path d="M166.403 96.8984C166.204 97.1216 164.915 96.2283 163.127 96.288C161.34 96.322 160.055 97.2829 159.854 97.0697C159.756 96.9754 159.954 96.5781 160.513 96.1446C161.062 95.7127 162.01 95.2802 163.124 95.2506C164.238 95.2222 165.189 95.6039 165.74 96.0067C166.303 96.4124 166.502 96.7985 166.403 96.8984Z" fill="#263238"/>
<path d="M147.795 101.285C147.853 102.162 147.159 102.934 146.244 103.012C145.332 103.089 144.543 102.443 144.485 101.566C144.427 100.689 145.121 99.916 146.034 99.839C146.949 99.7609 147.738 100.408 147.795 101.285Z" fill="#263238"/>
<path d="M149.415 97.3839C149.215 97.6071 147.926 96.7137 146.138 96.7734C144.351 96.8074 143.066 97.7678 142.866 97.5546C142.767 97.4609 142.963 97.063 143.524 96.6294C144.074 96.1976 145.021 95.7651 146.135 95.735C147.25 95.7071 148.2 96.0882 148.751 96.4916C149.313 96.8973 149.512 97.2834 149.415 97.3839Z" fill="#263238"/>
<path d="M155.408 111.273C155.397 111.172 156.502 110.945 158.297 110.66C158.753 110.598 159.182 110.495 159.249 110.18C159.347 109.847 159.141 109.361 158.903 108.836C158.439 107.744 157.954 106.599 157.445 105.4C155.418 100.505 153.934 96.4754 154.132 96.3956C154.33 96.3153 156.135 100.217 158.162 105.112C158.651 106.319 159.119 107.469 159.564 108.571C159.753 109.085 160.069 109.664 159.857 110.356C159.744 110.701 159.416 110.959 159.126 111.047C158.836 111.145 158.579 111.158 158.354 111.179C156.543 111.332 155.418 111.375 155.408 111.273Z" fill="#263238"/>
<path d="M139.93 126.827C139.93 126.827 144.402 135.61 157.337 133.998L157.254 130.949C157.254 130.949 148.728 131.754 139.93 126.827Z" fill="#875149"/>
<path d="M148.669 90.9356C148.508 91.4272 146.715 91.252 144.624 91.569C142.527 91.8446 140.853 92.5109 140.561 92.0829C140.431 91.8781 140.712 91.4116 141.381 90.9194C142.045 90.4284 143.114 89.9485 144.369 89.7694C145.624 89.5931 146.784 89.7577 147.558 90.0445C148.338 90.3324 148.738 90.7024 148.669 90.9356Z" fill="#263238"/>
<path d="M165.663 91.4439C165.361 91.8597 164.116 91.4757 162.634 91.502C161.151 91.4757 159.906 91.8591 159.604 91.4434C159.471 91.2408 159.656 90.8279 160.192 90.4261C160.721 90.0266 161.615 89.6851 162.634 89.6846C163.653 89.6857 164.547 90.0266 165.075 90.4273C165.611 90.8285 165.796 91.2408 165.663 91.4439Z" fill="#263238"/>
<path d="M164.345 80.0267C163.497 78.0988 161.323 76.989 159.217 76.9421C157.111 76.8958 155.081 77.7506 153.288 78.856C145.696 83.5382 142.036 94.4293 134.54 99.2638C132.696 100.453 130.225 99.4825 128.672 101.032C127.119 102.582 126.153 105.015 127.093 106.997C126.027 105.62 124.948 104.218 124.318 102.596C123.689 100.973 123.561 99.069 124.388 97.5373C125.016 96.375 126.156 95.4694 126.44 94.1787C126.689 93.0437 126.211 91.8781 126.226 90.7163C126.242 89.5334 126.767 88.4218 127.319 87.3756C130.156 82.0059 134.129 77.1095 139.337 73.9864C142.74 71.9458 146.662 70.6975 150.629 70.7193C154.597 70.741 158.597 72.0853 161.575 74.7062C163.328 76.2485 165.168 77.8433 164.345 80.0267Z" fill="#263238"/>
<path d="M128.904 102.634C128.758 102.265 121.926 100.018 122.041 107.207C122.154 114.192 129.159 112.616 129.168 112.416C129.176 112.216 128.904 102.634 128.904 102.634Z" fill="#FFBF9D"/>
<path d="M126.963 109.812C126.932 109.79 126.842 109.899 126.639 109.998C126.441 110.093 126.097 110.163 125.73 110.034C124.988 109.777 124.344 108.618 124.286 107.359C124.255 106.724 124.377 106.116 124.593 105.611C124.797 105.096 125.12 104.733 125.49 104.66C125.859 104.567 126.126 104.784 126.215 104.979C126.312 105.173 126.27 105.313 126.308 105.324C126.328 105.342 126.456 105.204 126.393 104.917C126.362 104.779 126.277 104.616 126.11 104.484C125.94 104.351 125.692 104.286 125.434 104.32C124.897 104.367 124.421 104.872 124.184 105.427C123.917 105.984 123.766 106.668 123.8 107.382C123.872 108.788 124.617 110.091 125.632 110.364C126.126 110.482 126.533 110.326 126.741 110.158C126.953 109.981 126.987 109.823 126.963 109.812Z" fill="#875149"/>
<path d="M126.025 99.1248C126.03 99.1343 126.173 99.0489 126.439 98.8776C126.701 98.7002 127.107 98.4619 127.589 98.0998C128.545 97.3666 129.866 96.2098 131.26 94.561C132.663 92.921 134.121 90.8028 135.699 88.4414C137.28 86.0849 139.015 83.4768 141.256 81.102C142.398 79.9408 143.604 78.8929 144.889 78.0581C146.172 77.2166 147.524 76.5855 148.854 76.1207C151.518 75.1788 154.094 74.916 156.224 75.0014C158.363 75.0739 160.065 75.479 161.207 75.8311C161.786 75.989 162.215 76.1698 162.513 76.2736C162.811 76.3808 162.97 76.4321 162.974 76.4221C162.979 76.412 162.829 76.3406 162.538 76.2139C162.246 76.0906 161.821 75.8897 161.244 75.7128C160.107 75.3222 158.396 74.8786 156.234 74.776C154.081 74.6604 151.467 74.9026 148.758 75.8434C147.404 76.3077 146.028 76.9432 144.721 77.7953C143.409 78.6418 142.183 79.7053 141.026 80.881C138.759 83.2849 137.023 85.9131 135.455 88.2779C133.891 90.6494 132.46 92.7687 131.088 94.4159C129.726 96.0715 128.44 97.2421 127.514 98.0016C127.047 98.376 126.655 98.6293 126.405 98.8235C126.15 99.0116 126.018 99.1154 126.025 99.1248Z" fill="#455A64"/>
<path d="M126.205 111.068C125.521 110.961 124.798 111.455 124.648 112.131C124.499 112.806 124.947 113.559 125.612 113.75C126.277 113.941 127.056 113.541 127.288 112.89C127.521 112.238 127.17 111.435 126.534 111.163" fill="white"/>
<path d="M126.534 111.163C126.494 111.205 126.996 111.391 127.188 112.083C127.278 112.412 127.247 112.855 126.946 113.186C126.662 113.517 126.138 113.733 125.656 113.597C125.175 113.456 124.845 112.995 124.78 112.564C124.701 112.124 124.909 111.732 125.161 111.501C125.691 111.017 126.214 111.126 126.204 111.069C126.208 111.051 126.095 111 125.875 111.001C125.658 111.002 125.328 111.078 125.013 111.331C124.703 111.57 124.409 112.05 124.489 112.606C124.555 113.141 124.938 113.714 125.568 113.905C126.203 114.078 126.831 113.795 127.171 113.377C127.535 112.948 127.54 112.386 127.404 112.018C127.271 111.637 127.031 111.398 126.848 111.281C126.662 111.162 126.539 111.146 126.534 111.163Z" fill="#263238"/>
<path d="M127.837 101.05C127.782 102.96 127.751 104.976 128.681 106.646C129.611 108.315 131.866 109.404 133.497 108.409C134.827 107.598 135.182 105.854 135.368 104.306C135.903 99.8408 136.077 95.3366 136.652 90.8754L127.837 101.05Z" fill="#263238"/>
<path d="M162.531 76.7546C162.524 76.7954 161.911 76.6559 160.791 76.652C159.678 76.6536 158.038 76.8478 156.194 77.6285C155.276 78.0168 154.301 78.5252 153.343 79.2015C152.382 79.8761 151.406 80.6802 150.421 81.5668C148.468 83.3547 146.453 85.4957 144.755 88.0363C143.904 89.3068 143.155 90.6098 142.338 91.8195C141.529 93.0332 140.621 94.1347 139.628 95.047C137.649 96.8683 135.593 98.164 133.84 99.1628C132.081 100.158 130.607 100.862 129.59 101.348C129.109 101.569 128.718 101.749 128.41 101.891C128.138 102.011 127.993 102.068 127.987 102.056C127.981 102.044 128.115 101.963 128.375 101.821C128.675 101.662 129.055 101.46 129.522 101.212C130.517 100.684 131.97 99.9434 133.702 98.9229C135.427 97.8995 137.447 96.591 139.382 94.7831C140.346 93.8836 141.224 92.8072 142.019 91.6053C142.821 90.4083 143.569 89.1037 144.429 87.8187C146.152 85.2413 148.194 83.0885 150.18 81.2984C151.181 80.4095 152.171 79.6094 153.158 78.9336C154.145 78.2551 155.147 77.7507 156.091 77.3712C157.985 76.6084 159.665 76.4539 160.794 76.4996C161.362 76.5208 161.799 76.5839 162.091 76.6425C162.383 76.7033 162.534 76.7412 162.531 76.7546Z" fill="#455A64"/>
<path d="M127.521 96.7427C127.532 96.7634 127.318 96.9157 126.915 97.1769C126.445 97.4709 125.866 97.8336 125.176 98.265C124.988 98.3799 124.793 98.4993 124.59 98.6232C124.372 98.751 124.13 98.8659 123.834 98.8983C123.688 98.9106 123.514 98.9028 123.358 98.8006C123.203 98.7024 123.101 98.5306 123.084 98.3476C123.059 97.9809 123.248 97.7059 123.389 97.4553C123.989 96.4297 124.648 95.3053 125.348 94.1107L125.632 94.3601C124.992 94.864 124.24 95.2724 123.42 95.543C122.597 95.8148 121.746 95.9336 120.929 95.9085C120.729 95.9074 120.503 95.8868 120.293 95.8181C120.087 95.7517 119.845 95.6195 119.738 95.3617C119.627 95.11 119.716 94.8243 119.835 94.653C119.951 94.47 120.098 94.3339 120.22 94.2044C121.23 93.171 121.977 92.0913 122.512 91.1376C123.579 89.217 123.858 87.8549 123.933 87.8795C123.955 87.8851 123.906 88.2254 123.74 88.8253C123.568 89.4218 123.274 90.28 122.756 91.2699C122.242 92.2587 121.502 93.3814 120.481 94.4555C120.227 94.7094 119.977 95.0007 120.084 95.2177C120.173 95.4354 120.573 95.5324 120.94 95.5246C121.713 95.5436 122.518 95.4281 123.297 95.1709C124.074 94.9147 124.786 94.5303 125.395 94.0576L126.21 93.4243L125.678 94.3076C124.963 95.4928 124.291 96.6094 123.677 97.6272C123.522 97.8733 123.385 98.116 123.4 98.3174C123.414 98.5155 123.587 98.6271 123.81 98.6031C124.262 98.5668 124.663 98.2477 125.05 98.0501C125.763 97.6579 126.361 97.3281 126.847 97.0608C127.271 96.8359 127.509 96.7227 127.521 96.7427Z" fill="#455A64"/>
<path d="M148.698 114.766C148.905 113.695 149.971 112.847 151.06 112.925C151.859 112.983 152.593 113.502 152.974 114.206C153.355 114.911 153.395 115.776 153.147 116.538L153.114 116.706C152.405 117.535 151.145 117.856 150.141 117.428C149.137 117 148.492 115.837 148.698 114.766Z" fill="#875149"/>
<path d="M151.77 117.303C151.793 117.326 151.7 117.492 151.415 117.66C151.138 117.825 150.648 117.983 150.048 117.865C149.447 117.756 148.796 117.291 148.439 116.569C148.064 115.85 148.052 114.889 148.396 114.053C148.571 113.636 148.79 113.248 149.136 112.934C149.475 112.609 150.007 112.478 150.421 112.568C151.256 112.757 151.74 113.253 152.183 113.559C153.058 114.223 153.576 114.667 153.53 114.733C153.485 114.799 152.885 114.475 151.95 113.898C151.48 113.623 150.944 113.197 150.335 113.097C150.036 113.056 149.755 113.131 149.517 113.357C149.278 113.577 149.08 113.917 148.935 114.27C148.646 114.983 148.644 115.75 148.921 116.338C149.187 116.935 149.677 117.333 150.145 117.466C150.622 117.61 151.049 117.541 151.32 117.454C151.599 117.368 151.74 117.268 151.77 117.303Z" fill="#263238"/>
<path d="M194.641 104.16C194.641 104.16 199.525 105.986 203.328 110.514C206.414 114.187 214.111 125.654 216.68 128.483C221.375 133.653 226.852 135.776 226.852 135.776L220.744 155.387C220.744 155.387 215.818 153.091 211.409 149.437C206.944 145.737 202.195 134.077 195.876 129.323C191.785 126.245 182.496 123.883 182.496 123.883L194.641 104.16Z" fill="#0196CE"/>
<g opacity="0.2">
<path d="M225.663 136.364C225.607 136.326 219.536 132.882 216.944 130.018C215.122 128.005 212.308 124.176 209.587 120.473C207.525 117.665 205.576 115.013 204.11 113.215C199.425 107.468 195.693 106.305 195.536 106.258L195.174 106.149L184.541 122.699L185.205 122.877C185.274 122.896 192.122 124.748 195.352 127.108C199.651 130.249 202.137 134.427 204.541 138.467C206.261 141.355 207.884 144.083 210.119 146.474C212.626 149.157 215.104 151.023 216.74 152.116C218.522 153.305 219.7 153.854 219.749 153.876L220.273 154.118L225.663 136.364ZM195.945 126.297C194.025 124.894 190.999 123.693 188.689 122.904C189.045 122.417 189.328 121.611 189.215 121.185C188.949 120.178 188.101 119.97 187.226 120.379L194.133 109.628C194.15 109.658 194.167 109.687 194.187 109.715C195.252 111.209 197.341 109.921 197.479 108.383C197.517 108.407 197.553 108.429 197.591 108.455C198.92 109.335 200.995 110.986 203.331 113.85C204.781 115.629 206.722 118.27 208.777 121.068C209.013 121.388 209.249 121.71 209.486 122.031C207.912 121.304 205.833 121.651 203.877 124.397C202.068 126.937 201.813 130.369 202.289 132.995C200.6 130.566 198.619 128.251 195.945 126.297ZM210.853 145.788C208.693 143.477 207.096 140.793 205.405 137.953C205.246 137.685 205.086 137.416 204.925 137.147C206.881 137.82 209.734 137.043 211.042 134.843C212.346 132.65 213.598 129.506 212.696 126.346C214.024 128.096 215.241 129.635 216.199 130.692C218.02 132.705 221.161 135.092 223.051 136.459C222.458 136.688 222.135 137.091 222.29 137.881C222.413 138.503 222.991 139.263 223.696 139.112C223.728 139.104 223.758 139.088 223.789 139.076L220.165 151.013C219.583 149.341 217.761 150.116 218.05 151.763C216.263 150.64 213.572 148.697 210.853 145.788Z" fill="white"/>
</g>
<path d="M206.104 133.315L205.463 134.34L204.648 133.831L205.271 132.833C204.497 132.273 203.9 131.505 203.697 130.831L204.844 129.994C205.041 130.588 205.473 131.203 206.021 131.634L206.976 130.105C206.225 129.292 205.425 128.321 206.243 127.011C206.849 126.041 207.998 125.6 209.391 126.241L210.026 125.225L210.841 125.735L210.218 126.733C210.796 127.17 211.277 127.726 211.526 128.327L210.414 129.198C210.163 128.673 209.837 128.252 209.463 127.942L208.491 129.498C209.247 130.302 210.032 131.263 209.224 132.554C208.628 133.505 207.493 133.942 206.104 133.315ZM207.842 131.843C208.042 131.522 207.914 131.2 207.649 130.843L206.859 132.107C207.33 132.261 207.659 132.135 207.842 131.843ZM207.816 128.758L208.629 127.458C208.128 127.298 207.791 127.457 207.602 127.759C207.402 128.079 207.538 128.406 207.816 128.758Z" fill="#0196CE"/>
<path d="M138.938 183.213C138.938 183.213 142.467 179.375 148.093 177.555C152.657 176.078 166.177 173.259 169.764 171.943C176.321 169.538 180.348 165.263 180.348 165.263L196.221 178.299C196.221 178.299 192.24 182 187.196 184.71C182.088 187.455 169.498 187.469 162.716 191.535C158.325 194.168 152.643 201.886 152.643 201.886L138.938 183.213Z" fill="#0196CE"/>
<g opacity="0.2">
<path d="M180.446 166.584C180.39 166.622 174.915 170.952 171.287 172.276C168.735 173.207 164.129 174.373 159.674 175.501C156.296 176.356 153.106 177.164 150.889 177.846C143.802 180.025 141.32 183.045 141.217 183.172L140.98 183.468L152.314 199.546L152.729 198.997C152.772 198.94 157.065 193.292 160.466 191.187C164.994 188.386 169.8 187.654 174.448 186.946C177.771 186.44 180.91 185.961 183.965 184.791C187.395 183.477 190.056 181.883 191.684 180.778C193.457 179.575 194.408 178.69 194.447 178.653L194.869 178.259L180.446 166.584ZM159.938 190.332C157.916 191.583 155.665 193.936 154.064 195.779C153.747 195.265 153.107 194.7 152.671 194.644C151.637 194.513 151.125 195.219 151.175 196.185L143.812 185.74C143.846 185.735 143.88 185.731 143.913 185.723C145.698 185.298 145.29 182.878 143.917 182.172C143.954 182.146 143.989 182.121 144.027 182.095C145.342 181.194 147.652 179.893 151.184 178.807C153.378 178.132 156.556 177.327 159.921 176.475C160.307 176.378 160.694 176.279 161.08 176.181C159.815 177.366 159.353 179.423 161.162 182.268C162.834 184.9 165.919 186.427 168.531 186.974C165.645 187.625 162.755 188.59 159.938 190.332ZM183.607 183.852C180.652 184.984 177.565 185.454 174.298 185.951C173.99 185.998 173.68 186.046 173.371 186.093C174.729 184.535 175.084 181.598 173.537 179.558C171.995 177.525 169.553 175.182 166.286 174.83C168.408 174.257 170.291 173.708 171.631 173.219C174.181 172.288 177.575 170.276 179.552 169.039C179.541 169.674 179.792 170.126 180.583 170.279C181.206 170.399 182.128 170.15 182.252 169.44C182.258 169.407 182.254 169.373 182.255 169.34L191.951 177.188C190.183 177.099 190.217 179.078 191.851 179.431C190.137 180.665 187.325 182.427 183.607 183.852Z" fill="white"/>
</g>
<path d="M170.275 183.602L170.983 184.58L170.204 185.145L169.515 184.192C168.706 184.698 167.769 184.963 167.068 184.897L166.724 183.52C167.348 183.561 168.08 183.391 168.685 183.046L167.628 181.586C166.592 181.976 165.392 182.352 164.486 181.102C163.816 180.174 163.839 178.944 164.957 177.895L164.254 176.925L165.033 176.36L165.723 177.313C166.345 176.943 167.041 176.705 167.691 176.702L168.08 178.06C167.499 178.094 166.986 178.238 166.558 178.467L167.634 179.955C168.664 179.556 169.849 179.191 170.741 180.424C171.401 181.334 171.378 182.55 170.275 183.602ZM166.697 180.3L165.799 179.058C165.462 179.462 165.482 179.834 165.691 180.122C165.912 180.429 166.266 180.425 166.697 180.3ZM169.564 181.438C169.342 181.131 168.996 181.129 168.566 181.24L169.439 182.447C169.759 182.069 169.766 181.717 169.564 181.438Z" fill="#0196CE"/>
<path d="M140.392 22.4372L121.395 19.886L119.417 20.0902C115.981 20.5589 113.237 21.3898 109.145 25.7199C105.165 29.9322 103.495 40.6966 103.495 40.6966C103.495 40.6966 108.213 38.2676 115.484 38.4311C122.755 38.5946 125.399 39.8635 125.399 39.8635C125.399 39.8635 125.448 32.5922 128.558 28.9708C132.434 24.4582 140.392 22.4372 140.392 22.4372Z" fill="#0196CE"/>
<g opacity="0.2">
<path d="M140.392 22.4372L121.395 19.886L119.417 20.0902C115.981 20.5589 113.237 21.3898 109.145 25.7199C105.165 29.9322 103.495 40.6966 103.495 40.6966C103.495 40.6966 108.213 38.2676 115.484 38.4311C122.755 38.5946 125.399 39.8635 125.399 39.8635C125.399 39.8635 125.448 32.5922 128.558 28.9708C132.434 24.4582 140.392 22.4372 140.392 22.4372Z" fill="black"/>
</g>
<path d="M119.417 20.0903C119.417 20.0903 123.864 19.4598 130.944 25.5263C135.466 29.4005 143.195 41.2831 143.195 41.2831C143.195 41.2831 145.322 38.107 149.198 35.8086C155.495 32.0745 159.11 31.1298 159.11 31.1298C159.11 31.1298 155.131 25.124 149.105 22.738C134.575 16.9834 119.417 20.0903 119.417 20.0903Z" fill="#0196CE"/>
<g opacity="0.2">
<path d="M125.305 19.3609C126.295 19.8894 132.123 21.9529 136.158 21.5745C140.193 21.1962 141.156 20.5634 139.551 20.1394C137.946 19.7147 136.311 19.3699 132.62 19.1986C128.928 19.0273 125.305 19.3609 125.305 19.3609Z" fill="white"/>
</g>
<g opacity="0.2">
<path d="M157.023 29.8514C156.853 29.6672 152.789 25.3025 147.882 22.632C147.166 22.2425 146.407 21.8697 145.63 21.5171C142.932 20.6884 140.253 20.1338 137.696 19.7761C140.239 20.3536 143.54 20.6031 147.781 23.5158C150.128 25.1279 152.287 26.9475 153.841 28.3593C153.179 28.7409 153.167 30.069 153.639 30.5896C152.237 31.1309 150.462 31.9444 148.645 33.119C147.106 34.1139 145.578 35.3036 144.464 36.2187C144.582 35.9391 144.641 35.6607 144.598 35.4208C144.441 34.5425 143.2 33.9672 142.353 34.2099C141.914 34.3355 141.71 34.5626 141.63 34.8438C139.242 31.3702 135.276 25.8393 132.986 23.9193C130.362 21.718 127.394 20.2353 125.366 19.3799C125.333 19.366 125.338 19.3749 125.305 19.361C124.322 19.424 123.547 19.5306 122.778 19.6143C124.867 20.3241 128.819 21.916 132.252 24.7959C135.484 27.5072 142.589 38.3073 142.66 38.4161L143.025 38.973L143.52 38.5271C143.549 38.5009 146.436 35.9085 149.266 34.0793C153.018 31.6543 156.693 30.8055 156.729 30.7972L157.697 30.5796L157.023 29.8514Z" fill="white"/>
</g>
<path d="M71.2744 157.166L88.4413 160.096L90.2436 159.974C93.3785 159.659 95.8956 158.994 99.7508 155.194C103.501 151.498 105.365 141.778 105.365 141.778C105.365 141.778 101.002 143.831 94.4057 143.448C87.8096 143.066 85.4498 141.827 85.4498 141.827C85.4498 141.827 85.1703 148.428 82.2296 151.616C78.5664 155.588 71.2744 157.166 71.2744 157.166Z" fill="#0196CE"/>
<g opacity="0.2">
<path d="M71.2744 157.166L88.4413 160.096L90.2436 159.974C93.3785 159.659 95.8956 158.994 99.7508 155.194C103.501 151.498 105.365 141.778 105.365 141.778C105.365 141.778 101.002 143.831 94.4057 143.448C87.8096 143.066 85.4498 141.827 85.4498 141.827C85.4498 141.827 85.1703 148.428 82.2296 151.616C78.5664 155.588 71.2744 157.166 71.2744 157.166Z" fill="black"/>
</g>
<path d="M90.2442 159.975C90.2442 159.975 86.1858 160.403 79.953 154.667C75.9722 151.003 69.3387 139.965 69.3387 139.965C69.3387 139.965 67.3042 142.78 63.7113 144.742C57.8729 147.93 54.5601 148.671 54.5601 148.671C54.5601 148.671 57.9795 154.252 63.3731 156.613C76.3806 162.306 90.2442 159.975 90.2442 159.975Z" fill="#0196CE"/>
<g opacity="0.2">
<path d="M84.8746 160.447C83.993 159.935 78.7673 157.873 75.0912 158.086C71.4157 158.3 70.5212 158.843 71.9642 159.28C73.4077 159.717 74.8809 160.084 78.2272 160.358C81.5741 160.633 84.8746 160.447 84.8746 160.447Z" fill="white"/>
</g>
<g opacity="0.2">
<path d="M56.4132 149.898C56.5622 150.071 60.1111 154.165 64.4808 156.748C65.118 157.124 65.7954 157.487 66.489 157.832C68.9124 158.672 71.3263 159.262 73.637 159.669C71.3458 159.063 68.3577 158.73 64.6007 155.949C62.5216 154.409 60.6205 152.687 59.2551 151.356C59.8689 151.031 59.9225 149.825 59.5112 149.337C60.8013 148.892 62.439 148.21 64.127 147.202C65.5571 146.348 66.9823 145.317 68.0235 144.523C67.908 144.772 67.8444 145.024 67.8756 145.242C67.99 146.045 69.0988 146.607 69.8749 146.414C70.2773 146.314 70.4698 146.114 70.5518 145.862C72.6091 149.093 76.0308 154.242 78.0474 156.06C80.3598 158.143 83.0064 159.585 84.8199 160.427C84.85 160.441 84.8455 160.433 84.8751 160.447C85.769 160.421 86.4771 160.35 87.1774 160.298C85.3031 159.586 81.767 158.013 78.7427 155.288C75.8952 152.722 69.7935 142.687 69.7321 142.586L69.4179 142.068L68.9542 142.457C68.9275 142.48 66.2223 144.741 63.5947 146.31C60.1099 148.391 56.7452 149.042 56.7117 149.049L55.8262 149.215L56.4132 149.898Z" fill="white"/>
</g>
<path d="M194.285 55.9646C194.285 55.9646 198.298 52.7031 203.405 47.8318C209.632 41.8935 222.544 30.0667 233.558 34.5374L246.16 49.595C246.16 49.595 239.998 48.3189 231.766 51.3684C224.426 54.088 219.283 59.4666 216.98 61.9279C216.048 62.924 214.827 64.2643 213.843 65.2095C212.198 66.7898 210.298 68.9917 207.337 71.3777L194.285 55.9646Z" fill="#0196CE"/>
<g opacity="0.2">
<path d="M224.247 44.9943C225.701 48.4433 223.936 52.481 220.304 54.0133C216.672 55.5456 212.548 53.9921 211.093 50.5431C209.638 47.0941 211.403 43.0558 215.035 41.5236C218.668 39.9919 222.792 41.5453 224.247 44.9943Z" fill="white"/>
</g>
<path d="M220.775 49.6062L221.532 50.3445L220.945 50.9466L220.208 50.2279C219.587 50.7842 218.819 51.1519 218.205 51.1999L217.703 50.0644C218.248 50.0069 218.853 49.7513 219.323 49.3646L218.194 48.2637C217.359 48.7542 216.381 49.2569 215.414 48.3145C214.698 47.6159 214.535 46.5523 215.34 45.4815L214.59 44.75L215.177 44.1479L215.914 44.8666C216.395 44.4548 216.959 44.1468 217.519 44.0458L218.056 45.1579C217.561 45.2739 217.14 45.4748 216.806 45.7371L217.956 46.8575C218.784 46.3604 219.751 45.8693 220.704 46.799C221.407 47.4836 221.569 48.5349 220.775 49.6062ZM217.2 47.2945L216.24 46.3581C216.009 46.7565 216.082 47.074 216.305 47.2917C216.542 47.5227 216.846 47.4669 217.2 47.2945ZM219.839 47.8469C219.602 47.6159 219.304 47.6655 218.949 47.8257L219.882 48.7352C220.102 48.3619 220.055 48.0578 219.839 47.8469Z" fill="#0196CE"/>
<g opacity="0.2">
<path d="M232.597 34.664L232.466 34.6227C232.146 34.5206 224.494 32.2228 213.689 40.4789C208.23 44.6511 204.855 48.138 202.391 50.6836C200.167 52.9815 198.559 54.641 196.617 55.6649L196.104 55.9355L207.598 70.188L207.973 69.7739C208.081 69.6556 218.78 57.8796 223.923 54.2509C228.007 51.3711 235.916 46.7598 243.019 48.2435L244.383 48.5281L232.597 34.664ZM223.373 53.4708C219.658 56.0912 213.317 62.6449 209.797 66.3969C209.278 65.9003 208.582 65.5873 207.864 65.5504C207.08 65.5097 206.289 65.7959 205.703 66.316L199.41 58.5129C200.034 58.095 200.417 57.3378 200.456 56.5783C200.493 55.8507 200.25 55.1354 199.862 54.5137C200.862 53.631 201.883 52.582 203.077 51.3477C205.656 48.6832 208.867 45.367 214.269 41.2378C219.699 37.0891 224.281 35.7599 227.169 35.3749C228.024 35.2611 228.783 35.2215 229.438 35.2237C229.857 35.9675 231.182 37.8301 233.766 37.5148L240.341 45.2493C239.883 45.3916 239.34 45.8112 239.492 47.0198C233.173 47.2703 226.889 50.9894 223.373 53.4708Z" fill="white"/>
</g>
<path d="M34.3351 200.115C34.3351 200.115 38.3415 203.384 44.1458 207.4C51.2218 212.295 65.4179 222.544 63.2702 234.236L51.0762 249.626C51.0762 249.626 51.0784 243.333 46.4247 235.889C42.2749 229.252 35.9661 225.305 33.0896 223.548C31.9256 222.837 30.3655 221.913 29.2411 221.141C27.3601 219.85 24.8195 218.435 21.8833 216.019L34.3351 200.115Z" fill="#0196CE"/>
<g opacity="0.2">
<path d="M51.1453 227.234C48.0624 229.358 43.7507 228.447 41.5148 225.2C39.2789 221.953 39.9653 217.6 43.0482 215.477C46.1312 213.354 50.4428 214.264 52.6787 217.511C54.9146 220.758 54.2283 225.112 51.1453 227.234Z" fill="white"/>
</g>
<path d="M45.8622 224.73L45.2925 225.622L44.5832 225.168L45.1379 224.3C44.4672 223.804 43.9516 223.127 43.7803 222.535L44.7903 221.814C44.9565 222.336 45.3298 222.876 45.8036 223.259L46.6529 221.93C46.0039 221.212 45.3137 220.356 46.0407 219.219C46.5798 218.375 47.5881 218 48.7995 218.573L49.3642 217.69L50.0734 218.144L49.5187 219.011C50.0198 219.398 50.4355 219.888 50.647 220.416L49.6672 221.168C49.4535 220.707 49.1711 220.336 48.8475 220.062L47.9826 221.414C48.6371 222.124 49.3134 222.971 48.5964 224.093C48.0674 224.919 47.0714 225.291 45.8622 224.73ZM47.3944 223.458C47.5724 223.179 47.4636 222.896 47.2354 222.583L46.5334 223.681C46.9436 223.819 47.2315 223.712 47.3944 223.458ZM47.4011 220.761L48.1232 219.632C47.6868 219.487 47.3905 219.622 47.2226 219.885C47.0451 220.163 47.1606 220.451 47.4011 220.761Z" fill="#0196CE"/>
<g opacity="0.2">
<path d="M62.9527 233.32L62.9666 233.184C63.0018 232.85 63.7026 224.891 53.4298 215.982C48.2382 211.481 44.1408 208.882 41.1488 206.984C38.4481 205.272 36.4973 204.033 35.1012 202.339L34.7324 201.891L23.1025 216.034L23.5835 216.317C23.7214 216.399 37.4197 224.491 42.0143 228.793C45.6614 232.209 51.7787 239.021 51.7642 246.277L51.7614 247.67L62.9527 233.32ZM42.6677 228.096C39.3493 224.989 31.6472 220.106 27.2602 217.419C27.6419 216.81 27.807 216.065 27.6977 215.354C27.5788 214.579 27.1386 213.862 26.5102 213.393L32.877 205.65C33.4127 206.177 34.2318 206.4 34.9835 206.284C35.7033 206.173 36.355 205.789 36.8851 205.284C37.952 206.084 39.1863 206.871 40.6366 207.791C43.7681 209.777 47.6657 212.249 52.8032 216.704C57.9653 221.181 60.195 225.399 61.1565 228.15C61.441 228.964 61.6336 229.7 61.7641 230.341C61.1208 230.903 59.5645 232.577 60.397 235.044L54.1552 243.048C53.9237 242.628 53.4025 242.182 52.2497 242.576C50.7241 236.437 45.8092 231.037 42.6677 228.096Z" fill="white"/>
</g>
<path d="M7.81934 107.723C7.81934 107.723 16.7099 97.3019 34.1837 104.014C34.8483 104.269 35.5313 104.476 36.2327 104.597C37.6952 104.851 40.0578 105.032 42.1944 104.173C45.5976 102.803 50.4383 100.809 50.4383 100.809L65.4077 109.668C65.4077 109.668 59.1341 114.244 53.0569 114.629C46.9798 115.013 39.7978 110.026 32.83 111.729C32.83 111.729 27.8627 112.482 23.623 117.022L7.81934 107.723Z" fill="#0196CE"/>
<g opacity="0.2">
<path d="M43.9021 110.017C43.2291 110.619 39.1747 110.067 34.8474 108.782C30.5196 107.497 27.5571 105.967 28.2301 105.364C28.903 104.761 32.9575 105.314 37.2847 106.599C41.6131 107.884 44.5756 109.414 43.9021 110.017Z" fill="white"/>
</g>
<path d="M37.8657 108.847L38.1413 109.138L37.2313 108.938L36.9634 108.655C36.0477 108.441 35.1069 108.171 34.501 107.949L34.7007 107.742C35.247 107.939 35.9685 108.152 36.6403 108.315L36.2296 107.881C35.1533 107.589 33.934 107.245 33.5825 106.873C33.3213 106.598 33.7984 106.516 35.1918 106.785L34.9189 106.497L35.829 106.697L36.0968 106.98C36.7938 107.146 37.5075 107.344 38.0939 107.545L37.9416 107.764C37.4065 107.586 36.8914 107.439 36.4216 107.323L36.8395 107.764C37.9137 108.054 39.1145 108.394 39.4616 108.76C39.7177 109.031 39.2473 109.113 37.8657 108.847ZM35.8686 107.5L35.5187 107.131C35.0662 107.056 34.9462 107.09 35.0277 107.175C35.1136 107.266 35.4334 107.375 35.8686 107.5ZM38.0258 108.47C37.9399 108.379 37.6291 108.272 37.2011 108.147L37.5404 108.505C37.9689 108.576 38.1051 108.553 38.0258 108.47Z" fill="#0196CE"/>
<g opacity="0.2">
<path d="M50.2401 101.873L50.0766 101.954C50.0303 101.977 45.3905 104.269 41.3299 105.296C39.2402 105.825 38.2598 105.656 36.4804 105.347C36.1327 105.286 35.7572 105.221 35.3398 105.156C34.5463 105.031 33.4895 104.691 32.2658 104.298C30.0031 103.57 27.1925 102.666 24.379 102.578C24.3556 102.578 24.3316 102.577 24.3082 102.577C24.2306 102.569 16.4822 101.91 10.1952 106.968L9.8208 107.268L23.2697 115.411L23.4555 115.239C23.5275 115.173 30.743 108.656 40.4963 111.109C41.6497 111.399 42.7222 111.683 43.7299 111.949C51.6301 114.037 55.5952 115.085 63.5372 110.316L64.021 110.025L50.2401 101.873ZM43.9018 111.299C42.8912 111.032 41.8165 110.747 40.6603 110.457C34.0274 108.788 28.53 111.124 25.5106 112.948C23.282 111.78 21.7324 112.833 21.1621 113.349L13.2983 108.587C14.8149 107.263 13.9288 106.12 13.4143 105.647C18.765 102.787 24.1848 103.241 24.2669 103.247C27.0295 103.324 29.8178 104.217 32.0588 104.938C33.3092 105.34 34.3884 105.687 35.2338 105.82C35.6473 105.886 36.02 105.95 36.3643 106.01C38.1733 106.324 39.2659 106.513 41.494 105.948C43.8298 105.357 46.3452 104.358 48.1013 103.597C48.6682 104.083 50.1491 105.006 52.3499 103.903L60.3734 108.65C59.7741 108.933 58.8763 109.673 60.3047 111.292C54.3966 114.07 50.5927 113.068 43.9018 111.299Z" fill="white"/>
</g>
<path d="M212.048 248.334C212.048 248.334 210.996 234.676 228.114 227.103C228.765 226.815 229.394 226.479 229.977 226.071C231.193 225.219 232.995 223.681 233.902 221.564C235.348 218.193 237.371 213.364 237.371 213.364L254.229 209.079C254.229 209.079 253.013 216.749 248.977 221.31C244.942 225.87 236.334 227.403 232.598 233.526C232.598 233.526 229.609 237.565 229.808 243.774L212.048 248.334Z" fill="#0196CE"/>
<g opacity="0.2">
<path d="M239.236 224.5C239.184 225.403 235.922 227.871 231.948 230.014C227.975 232.158 224.796 233.164 224.848 232.262C224.9 231.359 228.162 228.891 232.136 226.747C236.109 224.604 239.288 223.598 239.236 224.5Z" fill="white"/>
</g>
<path d="M234.134 227.931L234.534 227.943L233.749 228.443L233.359 228.431C232.56 228.926 231.702 229.398 231.116 229.669L231.112 229.381C231.637 229.135 232.3 228.777 232.89 228.417L232.293 228.4C231.324 228.953 230.218 229.569 229.706 229.554C229.327 229.543 229.607 229.148 230.784 228.356L230.387 228.344L231.173 227.844L231.562 227.856C232.173 227.481 232.818 227.118 233.376 226.847L233.423 227.11C232.918 227.362 232.449 227.62 232.035 227.87L232.642 227.887C233.608 227.335 234.698 226.728 235.203 226.743C235.575 226.754 235.3 227.144 234.134 227.931ZM231.768 228.386L231.26 228.371C230.886 228.637 230.825 228.746 230.943 228.749C231.068 228.752 231.372 228.604 231.768 228.386ZM233.981 227.55C233.856 227.546 233.56 227.69 233.168 227.904L233.662 227.918C234.015 227.666 234.095 227.554 233.981 227.55Z" fill="#0196CE"/>
<g opacity="0.2">
<path d="M237.982 214.258L237.923 214.431C237.907 214.48 236.235 219.377 234.084 222.971C232.976 224.82 232.161 225.391 230.683 226.428C230.394 226.631 230.082 226.849 229.74 227.098C229.089 227.569 228.1 228.074 226.956 228.658C224.839 229.739 222.21 231.082 220.154 233.005C220.137 233.021 220.12 233.037 220.103 233.053C220.043 233.103 214.086 238.103 213.199 246.123L213.146 246.6L228.422 242.881L228.432 242.628C228.436 242.53 228.951 232.821 237.594 227.677C238.616 227.069 239.576 226.513 240.478 225.991C247.55 221.897 251.099 219.841 253.362 210.858L253.5 210.311L237.982 214.258ZM240.141 225.409C239.236 225.933 238.274 226.489 237.25 227.099C231.372 230.597 229.124 236.131 228.272 239.554C225.868 240.299 225.514 242.139 225.474 242.906L216.541 245.081C216.682 243.073 215.247 242.888 214.549 242.915C216.323 237.113 220.483 233.61 220.547 233.557C222.559 231.663 225.165 230.327 227.261 229.257C228.431 228.66 229.441 228.144 230.134 227.642C230.473 227.397 230.782 227.18 231.068 226.979C232.572 225.925 233.479 225.289 234.66 223.316C235.898 221.249 236.976 218.767 237.683 216.988C238.428 216.933 240.129 216.542 240.91 214.207L249.945 211.91C249.721 212.533 249.606 213.692 251.761 213.831C249.533 219.968 246.13 221.942 240.141 225.409Z" fill="white"/>
</g>
<path d="M237.024 113.169C237.024 113.169 233.228 100.006 248.458 89.1244C249.037 88.7103 249.585 88.2539 250.074 87.7361C251.091 86.6552 252.544 84.7842 253.005 82.5277C253.737 78.9331 254.742 73.795 254.742 73.795L270.383 66.1855C270.383 66.1855 270.745 73.9429 267.716 79.2254C264.688 84.5086 256.569 87.7528 254.15 94.5057C254.15 94.5057 252.041 99.0662 253.493 105.105L237.024 113.169Z" fill="#0196CE"/>
<g opacity="0.2">
<path d="M258.822 84.3233C258.954 85.2173 256.259 88.2957 252.802 91.199C249.345 94.1023 246.436 95.7311 246.303 94.8372C246.171 93.9433 248.867 90.8648 252.324 87.9615C255.781 85.0582 258.691 83.4289 258.822 84.3233Z" fill="white"/>
</g>
<path d="M254.52 88.7165L254.915 88.6468L254.246 89.2957L253.862 89.3632C253.179 90.01 252.435 90.6455 251.917 91.0289L251.854 90.7482C252.319 90.4006 252.895 89.9162 253.401 89.4447L252.813 89.5485C251.976 90.2856 251.017 91.1131 250.513 91.2024C250.14 91.2683 250.334 90.8252 251.326 89.8113L250.935 89.8805L251.603 89.2316L251.987 89.164C252.51 88.6736 253.068 88.1875 253.559 87.8087L253.658 88.057C253.215 88.4057 252.808 88.7539 252.453 89.082L253.051 88.9765C253.885 88.24 254.83 87.4253 255.327 87.3372C255.694 87.2719 255.503 87.7093 254.52 88.7165ZM252.295 89.64L251.794 89.7287C251.482 90.0652 251.444 90.1835 251.56 90.1629C251.684 90.1411 251.952 89.9346 252.295 89.64ZM254.293 88.3745C254.17 88.3962 253.909 88.596 253.569 88.8845L254.055 88.7985C254.351 88.4805 254.406 88.3544 254.293 88.3745Z" fill="#0196CE"/>
<g opacity="0.2">
<path d="M255.52 74.5466L255.498 74.728C255.491 74.7793 254.846 79.9141 253.466 83.8692C252.756 85.9042 252.074 86.629 250.836 87.9437C250.594 88.2009 250.333 88.4782 250.048 88.7902C249.506 89.3833 248.64 90.078 247.638 90.8821C245.783 92.3692 243.48 94.2162 241.857 96.5157C241.843 96.5346 241.829 96.5547 241.816 96.5737C241.767 96.6345 236.947 102.737 237.702 110.77L237.747 111.249L251.953 104.513L251.912 104.264C251.896 104.168 250.435 94.5549 257.856 87.7679C258.734 86.9655 259.562 86.2267 260.339 85.5326C266.436 80.0915 269.496 77.3601 269.892 68.1045L269.916 67.5404L255.52 74.5466ZM259.892 85.0298C259.112 85.7256 258.283 86.4661 257.403 87.2702C252.355 91.8859 251.275 97.76 251.133 101.284C248.93 102.5 248.955 104.374 249.072 105.134L240.765 109.072C240.496 107.077 239.053 107.186 238.375 107.355C238.937 101.314 242.302 97.0413 242.353 96.9766C243.94 94.7139 246.221 92.8792 248.058 91.4066C249.082 90.5847 249.967 89.8755 250.544 89.2433C250.827 88.9341 251.085 88.659 251.325 88.4046C252.585 87.0682 253.344 86.2607 254.101 84.0901C254.895 81.8157 255.448 79.1658 255.781 77.2809C256.499 77.0755 258.085 76.3484 258.377 73.9038L266.76 69.8243C266.666 70.4805 266.789 71.6378 268.926 71.3376C267.988 77.7998 265.056 80.4218 259.892 85.0298Z" fill="white"/>
</g>
<path d="M75.2622 68.5168C75.2622 68.5168 70.0522 68.3159 65.0202 65.2106C60.9373 62.6913 50.0295 54.2203 46.7032 52.3409C40.6227 48.9059 34.7436 47.8641 34.7436 47.8641L34.3999 28.0724C34.3999 28.0724 39.798 28.7063 45.1314 30.7915C50.5322 32.9036 58.7002 42.4833 66.1925 45.0138C71.0432 46.6521 80.6034 45.9786 80.6034 45.9786L75.2622 68.5168Z" fill="#0196CE"/>
<g opacity="0.2">
<path d="M35.6848 47.075L36.0402 47.1766C36.1055 47.195 42.6106 49.0609 45.9698 50.966C48.3324 52.3057 52.2055 55.0583 55.9513 57.72C58.791 59.7383 61.4738 61.6444 63.4302 62.8915C69.6826 66.8773 73.5914 66.8104 73.7549 66.8059L74.1326 66.7947L79.0341 47.7435L78.3472 47.7831C78.2758 47.787 71.1925 48.1776 67.3853 46.9511C62.3181 45.3184 58.6459 42.1323 55.0948 39.051C52.5559 36.848 50.1576 34.7672 47.2861 33.1987C44.0631 31.4382 41.1253 30.4438 39.2281 29.9199C37.1629 29.3496 35.8728 29.1984 35.8192 29.1922L35.2456 29.127L35.6848 47.075ZM67.0762 47.9087C69.3394 48.638 72.5892 48.8277 75.0304 48.8523C74.8452 49.4264 74.829 50.2807 75.0695 50.649C75.6387 51.5217 76.5086 51.4531 77.2117 50.7896L74.0277 63.1655C74.0021 63.1432 73.9769 63.1203 73.949 63.0997C72.4687 62.0155 70.8901 63.8943 71.2416 65.3981C71.1981 65.3864 71.1568 65.3769 71.1122 65.3646C69.5738 64.9461 67.0856 64.0304 63.9698 62.0439C62.0346 60.8102 59.3624 58.9113 56.5327 56.9003C56.208 56.6698 55.8827 56.4388 55.5574 56.2073C57.2799 56.4037 59.1447 55.4221 60.1408 52.2008C61.0615 49.2222 60.2256 45.8831 58.9494 43.539C61.3159 45.3162 63.924 46.8926 67.0762 47.9087ZM46.8029 34.0814C49.5795 35.5981 51.9382 37.6443 54.4347 39.811C54.6701 40.0152 54.9062 40.22 55.1433 40.4248C53.0759 40.4002 50.6101 42.0329 50.0588 44.5328C49.5098 47.0242 49.3078 50.4029 51.1559 53.1193C49.3451 51.8744 47.7069 50.7958 46.4653 50.0921C44.1044 48.7535 40.3725 47.4723 38.1494 46.7676C38.6405 46.3647 38.8213 45.8809 38.4256 45.1795C38.1137 44.6271 37.3264 44.0864 36.7048 44.4519C36.6763 44.4686 36.6534 44.4937 36.6278 44.5149L36.322 32.0442C37.3989 33.4492 38.8854 32.1407 38.0948 30.6676C40.1437 31.1726 43.3081 32.1725 46.8029 34.0814Z" fill="white"/>
</g>
<path d="M55.2302 44.4368L55.5164 43.2622L56.4511 43.4904L56.1726 44.6338C57.0822 44.9228 57.8913 45.4641 58.2958 46.0405L57.4694 47.1944C57.0972 46.6922 56.4924 46.2447 55.8378 46.0076L55.4104 47.7591C56.3791 48.2954 57.4438 48.9661 57.0772 50.466C56.806 51.5781 55.854 52.3571 54.3307 52.1857L54.0467 53.3497L53.112 53.1221L53.391 51.9787C52.7052 51.7449 52.0741 51.3688 51.6489 50.8761L52.4312 49.6999C52.8341 50.12 53.2772 50.4174 53.7286 50.5943L54.1638 48.8115C53.1929 48.2859 52.1472 47.6191 52.5082 46.1404C52.7733 45.0489 53.7135 44.2783 55.2302 44.4368ZM54.0427 46.3809C53.9529 46.748 54.1755 47.0131 54.5394 47.2686L54.8926 45.8212C54.3971 45.8229 54.1248 46.0455 54.0427 46.3809ZM55.0338 49.3009L54.6705 50.7907C55.1967 50.7857 55.4679 50.529 55.5516 50.1831C55.6409 49.8159 55.4093 49.5481 55.0338 49.3009Z" fill="#0196CE"/>
<path d="M159.372 252.349C159.372 252.349 154.162 252.148 149.13 249.043C145.047 246.524 134.139 238.053 130.813 236.174C124.732 232.738 118.853 231.697 118.853 231.697L118.509 211.905C118.509 211.905 123.907 212.539 129.241 214.624C134.642 216.736 142.81 226.316 150.302 228.846C155.153 230.485 164.713 229.811 164.713 229.811L159.372 252.349Z" fill="#0196CE"/>
<g opacity="0.2">
<path d="M119.794 230.908L120.15 231.009C120.215 231.028 126.72 232.894 130.079 234.799C132.442 236.138 136.315 238.891 140.061 241.553C142.9 243.571 145.583 245.477 147.54 246.724C153.792 250.71 157.701 250.643 157.864 250.639L158.242 250.627L163.143 231.577L162.457 231.616C162.386 231.62 155.302 232.011 151.495 230.784C146.427 229.151 142.755 225.966 139.204 222.884C136.665 220.681 134.267 218.6 131.396 217.032C128.172 215.271 125.235 214.277 123.337 213.753C121.272 213.183 119.982 213.032 119.929 213.025L119.355 212.96L119.794 230.908ZM151.186 231.741C153.449 232.47 156.699 232.66 159.14 232.684C158.955 233.259 158.938 234.113 159.179 234.481C159.748 235.354 160.618 235.286 161.321 234.622L158.137 246.999C158.111 246.976 158.086 246.954 158.058 246.933C156.578 245.849 154.999 247.728 155.351 249.231C155.307 249.22 155.266 249.21 155.222 249.198C153.683 248.779 151.195 247.864 148.079 245.877C146.144 244.643 143.472 242.745 140.642 240.734C140.317 240.503 139.992 240.272 139.667 240.041C141.389 240.237 143.254 239.255 144.25 236.034C145.17 233.055 144.334 229.716 143.059 227.372C145.425 229.148 148.033 230.725 151.186 231.741ZM130.912 217.914C133.689 219.43 136.048 221.476 138.544 223.643C138.78 223.847 139.016 224.052 139.253 224.257C137.185 224.232 134.72 225.865 134.168 228.365C133.619 230.856 133.417 234.235 135.265 236.951C133.455 235.707 131.816 234.628 130.575 233.924C128.214 232.585 124.482 231.304 122.259 230.599C122.75 230.196 122.931 229.712 122.535 229.011C122.223 228.459 121.436 227.918 120.814 228.283C120.786 228.3 120.763 228.326 120.737 228.347L120.431 215.876C121.508 217.281 122.995 215.972 122.204 214.499C124.253 215.005 127.418 216.005 130.912 217.914Z" fill="white"/>
</g>
<path d="M139.34 228.269L139.626 227.094L140.561 227.322L140.282 228.465C141.192 228.754 142.001 229.296 142.405 229.872L141.579 231.026C141.207 230.524 140.602 230.077 139.947 229.839L139.52 231.591C140.488 232.127 141.552 232.798 141.186 234.298C140.915 235.41 139.963 236.189 138.44 236.017L138.156 237.182L137.221 236.954L137.5 235.81C136.814 235.577 136.182 235.2 135.758 234.708L136.54 233.532C136.943 233.952 137.385 234.249 137.837 234.426L138.272 232.644C137.301 232.117 136.255 231.451 136.616 229.973C136.883 228.881 137.824 228.11 139.34 228.269ZM138.152 230.214C138.062 230.58 138.285 230.846 138.649 231.101L139.003 229.654C138.506 229.655 138.234 229.878 138.152 230.214ZM139.144 233.133L138.78 234.622C139.307 234.617 139.577 234.361 139.662 234.015C139.751 233.648 139.519 233.381 139.144 233.133Z" fill="#0196CE"/>
<path d="M119.205 90.6516C115.637 90.7398 109.088 90.6014 102.895 87.7606C95.2257 84.243 91.9017 79.1886 91.9017 79.1886L90.2422 97.9893C94.695 108.512 112.443 109.24 120.711 109.432C118.512 100.326 117.945 96.0514 119.205 90.6516Z" fill="#0196CE"/>
<g opacity="0.2">
<path d="M116.387 102.369C117.74 99.0359 115.991 95.178 112.481 93.7524C108.97 92.3269 105.027 93.8736 103.673 97.2071C102.319 100.541 104.068 104.399 107.579 105.824C111.09 107.25 115.033 105.703 116.387 102.369Z" fill="white"/>
</g>
<path d="M109.175 96.4531L109.162 95.437L109.971 95.4264L109.984 96.4152C110.785 96.4593 111.557 96.7304 112.007 97.1149L111.577 98.2281C111.168 97.8978 110.583 97.6601 109.999 97.6043L110.02 99.1198C110.921 99.353 111.928 99.6761 111.945 100.974C111.957 101.937 111.345 102.77 110.07 102.949L110.083 103.957L109.274 103.968L109.261 102.979C108.654 102.933 108.062 102.759 107.612 102.447L108.002 101.326C108.418 101.583 108.84 101.732 109.245 101.781L109.225 100.237C108.324 100.014 107.333 99.6906 107.317 98.4111C107.304 97.467 107.908 96.6417 109.175 96.4531ZM108.617 98.285C108.621 98.6025 108.857 98.7722 109.207 98.9033L109.191 97.6506C108.788 97.7566 108.613 97.9943 108.617 98.285ZM110.037 100.454L110.054 101.743C110.481 101.629 110.647 101.363 110.643 101.063C110.639 100.746 110.395 100.577 110.037 100.454Z" fill="#0196CE"/>
<g opacity="0.2">
<path d="M120.21 107.309C116.646 107.368 114.341 107.41 107.862 106.547C101.352 105.68 97.3326 103.472 95.1073 101.771C94.4489 101.268 93.9054 100.779 93.4618 100.333C93.6816 99.5417 94.0465 97.3755 92.0751 95.8349L92.858 86.109C93.2659 86.3232 93.9204 86.4064 94.6375 85.4812C99.1059 89.6043 105.906 91.3436 109.982 92.045C112.135 92.4155 115.475 92.5834 118.821 92.6192L118.995 91.6298C115.628 91.5986 112.3 91.4937 110.186 91.1299C105.452 90.3141 96.9414 88.077 93.1191 82.2432L92.3854 81.1227L90.9814 98.5574L91.0417 98.674C91.1901 98.9608 94.8322 105.722 107.788 107.447C114.335 108.318 116.968 108.268 120.373 108.211L120.21 107.309Z" fill="white"/>
</g>
</svg>
