<svg width="270" height="270" viewBox="0 0 270 270" fill="none" xmlns="http://www.w3.org/2000/svg">
<path d="M91.2406 18.7601C92.0333 18.2812 92.8768 17.9183 93.7473 17.671L94.2635 15.1897L98.4555 15.1162L99.0587 17.5775C99.9373 17.7941 100.793 18.1273 101.602 18.5782L103.721 17.1893L106.736 20.1015L105.423 22.2669C105.902 23.0596 106.266 23.9036 106.512 24.7741L108.993 25.2904L109.067 29.4824L106.605 30.0856C106.389 30.9636 106.055 31.8195 105.605 32.629L106.993 34.7474L104.081 37.7638L101.915 36.4505C101.123 36.9295 100.279 37.2924 99.4086 37.5397L98.8924 40.0205L94.7009 40.0939L94.0977 37.6326C93.2197 37.4161 92.3632 37.0829 91.5543 36.632L89.4359 38.0209L86.42 35.1086L87.7333 32.9427C87.2543 32.15 86.8909 31.306 86.6436 30.436L84.1628 29.9198L84.0894 25.7283L86.5507 25.1246C86.7672 24.2465 87.1009 23.3906 87.5513 22.5817L86.163 20.4633L89.0746 17.4474L91.2406 18.7601ZM93.4751 24.3443C91.7498 26.1311 91.8 28.9786 93.5869 30.7039C95.3737 32.4292 98.2212 32.3789 99.9459 30.5921C101.671 28.8052 101.621 25.9578 99.8341 24.2325C98.0473 22.5072 95.1999 22.5574 93.4751 24.3443Z" fill="#E0E0E0"/>
<path d="M92.2339 157.831C92.6907 157.554 93.1773 157.345 93.6795 157.203L93.977 155.772L96.3946 155.73L96.7424 157.149C97.2489 157.273 97.7424 157.466 98.209 157.726L99.4305 156.925L101.17 158.604L100.413 159.853C100.689 160.311 100.898 160.797 101.041 161.299L102.471 161.597L102.514 164.014L101.095 164.362C100.97 164.868 100.778 165.362 100.517 165.829L101.318 167.051L99.6389 168.79L98.3899 168.033C97.9325 168.309 97.446 168.518 96.9443 168.661L96.6468 170.092L94.2292 170.134L93.8814 168.714C93.3749 168.59 92.8814 168.397 92.4148 168.137L91.1928 168.938L89.4534 167.259L90.2105 166.009C89.934 165.552 89.7245 165.066 89.5825 164.564L88.152 164.266L88.1094 161.849L89.5285 161.501C89.6532 160.994 89.8455 160.5 90.1058 160.034L89.3049 158.812L90.9843 157.073L92.2339 157.831ZM93.5223 161.051C92.5271 162.082 92.5563 163.724 93.5866 164.719C94.6175 165.714 96.2591 165.685 97.2543 164.655C98.249 163.624 98.2203 161.982 97.19 160.987C96.1592 159.992 94.5176 160.021 93.5223 161.051Z" fill="#E0E0E0"/>
<path d="M39.5734 32.0906C39.8855 31.9021 40.2176 31.759 40.56 31.6618L40.763 30.685L42.4132 30.6558L42.6508 31.6246C42.9964 31.7099 43.3339 31.8411 43.652 32.0182L44.4858 31.4717L45.6732 32.6182L45.1564 33.4708C45.3449 33.7829 45.488 34.115 45.5852 34.4579L46.5621 34.661L46.5912 36.3112L45.6225 36.5488C45.5371 36.8944 45.4059 37.2314 45.2288 37.55L45.7753 38.3837L44.6289 39.5712L43.7762 39.0544C43.4641 39.2429 43.132 39.386 42.7891 39.4832L42.586 40.46L40.9358 40.4892L40.6982 39.5204C40.3526 39.4351 40.0156 39.3039 39.697 39.1268L38.8633 39.6733L37.6758 38.5268L38.1926 37.6742C38.0041 37.3621 37.861 37.03 37.7638 36.6876L36.787 36.4846L36.7578 34.8343L37.7266 34.5967C37.8119 34.2511 37.9431 33.9142 38.1202 33.5956L37.5738 32.7618L38.7202 31.5743L39.5734 32.0906ZM40.453 34.2889C39.7737 34.9925 39.7937 36.113 40.4968 36.7924C41.2004 37.4717 42.3209 37.4517 43.0002 36.7481C43.679 36.0445 43.6596 34.924 42.9565 34.2446C42.2529 33.5659 41.1318 33.5853 40.453 34.2889Z" fill="#E0E0E0"/>
<path d="M120.18 28.6362C120.797 28.2636 121.453 27.9812 122.13 27.7884L122.532 25.8579L125.794 25.8007L126.263 27.7155C126.947 27.884 127.612 28.1432 128.242 28.4942L129.891 27.4136L132.238 29.6795L131.216 31.3643C131.588 31.981 131.871 32.6381 132.064 33.3148L133.994 33.7165L134.051 36.9781L132.136 37.4474C131.968 38.1305 131.708 38.7968 131.357 39.4259L132.438 41.0746L130.172 43.4214L128.487 42.3997C127.87 42.7723 127.213 43.0547 126.536 43.247L126.134 45.1775L122.873 45.2347L122.404 43.3199C121.721 43.1514 121.054 42.8922 120.425 42.5412L118.776 43.6217L116.43 41.3559L117.451 39.6711C117.079 39.0544 116.796 38.3978 116.603 37.7206L114.673 37.3189L114.616 34.0573L116.531 33.5875C116.699 32.9044 116.958 32.238 117.309 31.6089L116.229 29.9603L118.495 27.6134L120.18 28.6362ZM121.919 32.981C120.576 34.3715 120.615 36.5866 122.006 37.9291C123.396 39.2715 125.611 39.2326 126.954 37.8421C128.296 36.4516 128.257 34.2365 126.867 32.8941C125.476 31.5517 123.261 31.5905 121.919 32.981Z" fill="#EBEBEB"/>
<path d="M206.392 109.131C207.183 108.653 208.026 108.29 208.896 108.043L209.411 105.565L213.599 105.491L214.202 107.95C215.079 108.166 215.935 108.499 216.743 108.949L218.859 107.562L221.872 110.472L220.56 112.635C221.039 113.427 221.402 114.27 221.648 115.139L224.126 115.655L224.2 119.843L221.741 120.445C221.525 121.323 221.192 122.178 220.742 122.986L222.129 125.103L219.22 128.116L217.056 126.804C216.265 127.282 215.421 127.645 214.552 127.892L214.036 130.371L209.848 130.444L209.246 127.985C208.368 127.769 207.513 127.436 206.705 126.986L204.589 128.373L201.576 125.464L202.887 123.3C202.409 122.508 202.046 121.666 201.799 120.796L199.321 120.28L199.247 116.092L201.706 115.49C201.922 114.612 202.255 113.757 202.705 112.949L201.318 110.833L204.227 107.82L206.392 109.131ZM208.624 114.71C206.9 116.495 206.951 119.339 208.736 121.063C210.521 122.787 213.365 122.737 215.089 120.951C216.812 119.166 216.762 116.322 214.977 114.598C213.191 112.875 210.347 112.925 208.624 114.71Z" fill="#E0E0E0"/>
<path d="M235.983 27.6588C235.983 20.6755 229.672 15.1664 222.443 16.5235C217.895 17.3767 214.271 21.0908 213.475 25.6484C212.977 28.4974 213.565 31.1769 214.864 33.3887H214.858L214.89 33.4314C215.325 34.1642 215.87 34.6885 216.421 35.4586L223.006 44.1817C223.825 45.2671 225.456 45.2671 226.275 44.1817L232.751 35.6022C232.751 35.6022 233.959 34.1609 234.398 33.4201L234.421 33.3893H234.417C235.406 31.7056 235.983 29.7518 235.983 27.6588ZM224.641 32.5966C221.884 32.5966 219.65 30.3615 219.65 27.6053C219.65 24.8486 221.884 22.6141 224.641 22.6141C227.398 22.6141 229.632 24.8486 229.632 27.6053C229.633 30.362 227.398 32.5966 224.641 32.5966Z" fill="#E0E0E0"/>
<path d="M36.3256 190.864C38.5644 189.366 39.8086 186.515 39.2459 183.55C38.5061 179.666 34.9545 177.078 31.3122 177.77C27.6716 178.461 25.3182 182.171 26.058 186.054C26.6277 189.046 28.8693 191.25 31.5331 191.797C21.6921 195.298 24.2976 206.227 24.2976 206.227L48.2936 201.669C48.2936 201.669 46.6709 190.424 36.3256 190.864Z" fill="#EBEBEB"/>
<path d="M65.3911 237.452L60.4517 236.235C60.4517 236.235 59.43 240.382 55.1014 239.395C52.8534 238.882 52.0542 237.13 51.8592 235.89C51.633 234.451 52.1649 233.005 53.1968 231.976C54.3751 230.801 56.5205 229.998 59.7049 231.405L62.4492 220.268L57.5649 219.064L55.9573 225.588C55.9573 225.588 48.6705 225.671 46.8108 233.221C45.0309 240.444 51.0951 243.717 53.868 244.4C55.9881 244.922 63.3375 246.189 65.3911 237.452Z" fill="#EBEBEB"/>
<path d="M58.0619 216.749L63.019 217.97L64.1596 213.34L59.2025 212.119L58.0619 216.749Z" fill="#EBEBEB"/>
<path d="M252.783 254.284C252.783 254.362 200.223 254.425 135.402 254.425C70.5592 254.425 18.0107 254.362 18.0107 254.284C18.0107 254.207 70.5592 254.144 135.402 254.144C200.223 254.144 252.783 254.207 252.783 254.284Z" fill="black"/>
<path d="M34.1021 88.6469H26.2349C26.2349 77.6941 30.6666 66.4951 38.394 57.922C46.5281 48.8981 57.0818 43.9285 68.1097 43.9285C90.6131 43.9285 106.33 60.3553 106.33 83.875H98.4626C98.4626 64.6871 86.2645 51.7957 68.1097 51.7957C50.3113 51.7957 34.1021 69.3603 34.1021 88.6469Z" fill="#0196CE"/>
<path d="M38.4168 86.4583C39.6739 86.4788 40.6924 86.5847 40.6918 86.6948C40.6908 86.805 39.6712 86.8952 38.4136 86.8968C37.157 86.8984 36.1386 86.7926 36.1396 86.6603C36.1402 86.528 37.1602 86.4378 38.4168 86.4583Z" fill="#263238"/>
<path d="M43.847 69.2134C44.8995 69.9019 45.656 70.612 45.5372 70.7999C45.4184 70.9879 44.4529 70.6072 43.3804 69.9505C42.3091 69.2939 41.552 68.5838 41.6913 68.3645C41.8296 68.1448 42.7956 68.5249 43.847 69.2134Z" fill="#263238"/>
<path d="M57.4587 57.3264C57.968 58.4761 58.2207 59.4826 58.023 59.5744C57.8254 59.6662 57.219 58.8244 56.6682 57.6941C56.1179 56.5645 55.8652 55.5579 56.1044 55.4467C56.3431 55.3354 56.9501 56.1778 57.4587 57.3264Z" fill="#263238"/>
<path d="M75.3833 55.9132C75.0701 57.1309 74.6445 58.0775 74.4334 58.0273C74.2217 57.9771 74.2676 56.9403 74.5349 55.7118C74.8022 54.4838 75.2277 53.5372 75.4848 53.5982C75.7418 53.6593 75.6965 54.6966 75.3833 55.9132Z" fill="#263238"/>
<path d="M90.0299 66.2013C88.9823 66.8968 88.034 67.318 87.9114 67.1414C87.7889 66.9648 88.5157 66.224 89.5347 65.4869C90.5526 64.7503 91.5014 64.3291 91.6526 64.5473C91.8038 64.7654 91.0769 65.5063 90.0299 66.2013Z" fill="#263238"/>
<path d="M94.8534 83.1681C93.5957 83.1665 92.5762 83.0747 92.5757 82.9629C92.5751 82.8511 93.5936 82.7469 94.8507 82.7307C96.1073 82.7145 97.1268 82.8063 97.1279 82.9359C97.129 83.0655 96.11 83.1697 94.8534 83.1681Z" fill="#263238"/>
<path d="M65.9629 85.5009C65.586 85.5009 65.2074 85.3794 64.891 85.1332L51.6696 74.8645C50.9072 74.2721 50.7689 73.1738 51.3613 72.4113C51.9531 71.6494 53.051 71.5106 53.8145 72.103L65.8614 81.4601L82.5236 66.1624C83.2305 65.5047 84.3364 65.5452 84.9947 66.2526C85.6518 66.96 85.6119 68.0659 84.9045 68.7236L67.1536 85.0333C66.8199 85.3432 66.3917 85.5009 65.9629 85.5009Z" fill="#0196CE"/>
<path d="M74.929 38.7083H59.7685C59.532 38.7083 59.3408 38.5166 59.3408 38.2806V32.7915C59.3408 32.555 59.5325 32.3638 59.7685 32.3638H74.929C75.1655 32.3638 75.3567 32.5555 75.3567 32.7915V38.2806C75.3567 38.5166 75.1655 38.7083 74.929 38.7083Z" fill="#0196CE"/>
<path d="M71.4877 35.5358H63.209V43.0407H71.4877V35.5358Z" fill="#0196CE"/>
<path d="M38.5138 56.0903L32.2951 63.7918C32.0532 64.0915 31.6136 64.1385 31.3139 63.8966L27.0641 60.4649C26.7644 60.223 26.7175 59.7834 26.9594 59.4837L33.178 51.7822C33.4199 51.4825 33.8595 51.4355 34.1592 51.6775L38.4095 55.1092C38.7092 55.3516 38.7557 55.7906 38.5138 56.0903Z" fill="#0196CE"/>
<path d="M74.9309 38.7083C74.9309 38.7968 71.5359 38.8692 67.3493 38.8692C63.161 38.8692 59.7666 38.7974 59.7666 38.7083C59.7666 38.6197 63.161 38.5474 67.3493 38.5474C71.5359 38.5474 74.9309 38.6197 74.9309 38.7083Z" fill="#263238"/>
<path d="M33.0371 62.4656C32.9523 62.5622 31.8075 61.6885 30.3927 60.6247C28.9795 59.5577 27.8244 58.698 27.8941 58.5895C27.96 58.4858 29.2382 59.1818 30.667 60.2608C32.0969 61.337 33.1186 62.3738 33.0371 62.4656Z" fill="#263238"/>
<path d="M34.3525 60.5275C34.2677 60.6242 33.1229 59.7505 31.7081 58.6867C30.2949 57.6196 29.1399 56.7599 29.2095 56.6514C29.2754 56.5477 30.5536 57.2438 31.9824 58.3227C33.4124 59.3989 34.434 60.4357 34.3525 60.5275Z" fill="#263238"/>
<path d="M35.9716 58.9032C35.8869 58.9999 34.7421 58.1261 33.3273 57.0623C31.9141 55.9953 30.759 55.1356 30.8287 55.0271C30.8946 54.9234 32.1727 55.6195 33.6016 56.6984C35.0315 57.7746 36.0537 58.8114 35.9716 58.9032Z" fill="#263238"/>
<path d="M37.5366 56.9651C37.4518 57.0618 36.307 56.1881 34.8922 55.1243C33.479 54.0572 32.324 53.1976 32.3936 53.089C32.4595 52.9853 33.7377 53.6814 35.1665 54.7603C36.5964 55.8365 37.6187 56.8733 37.5366 56.9651Z" fill="#263238"/>
<path d="M100.353 58.8589L93.6596 51.5662C93.3993 51.2822 93.4182 50.841 93.7017 50.5807L97.7263 46.8871C98.0104 46.6268 98.4515 46.6457 98.7118 46.9292L105.405 54.2219C105.665 54.506 105.646 54.9472 105.363 55.2074L101.338 58.901C101.055 59.1618 100.613 59.143 100.353 58.8589Z" fill="#0196CE"/>
<path d="M94.8611 52.4972C94.778 52.3989 95.8121 51.3961 97.0741 50.1552C98.3393 48.9159 99.3604 47.9012 99.4571 47.986C99.5499 48.0665 98.6719 49.2269 97.3926 50.4797C96.1166 51.7347 94.94 52.5917 94.8611 52.4972Z" fill="#263238"/>
<path d="M96.5828 54.0858C96.4997 53.9876 97.5338 52.9848 98.7957 51.7439C100.061 50.5046 101.083 49.4899 101.179 49.5747C101.272 49.6551 100.394 50.8156 99.1149 52.0684C97.8383 53.3234 96.6611 54.1798 96.5828 54.0858Z" fill="#263238"/>
<path d="M97.9485 55.9278C97.8654 55.8295 98.8995 54.8267 100.161 53.5858C101.427 52.3465 102.448 51.3319 102.544 51.4166C102.637 51.4971 101.759 52.6576 100.48 53.9104C99.2046 55.1653 98.0274 56.0223 97.9485 55.9278Z" fill="#263238"/>
<path d="M99.6326 57.7627C99.5495 57.6644 100.584 56.6617 101.846 55.4207C103.111 54.1814 104.132 53.1668 104.229 53.2516C104.321 53.332 103.443 54.4925 102.164 55.7453C100.889 57.0008 99.7115 57.8572 99.6326 57.7627Z" fill="#263238"/>
<path d="M61.4706 38.7007C61.3447 38.7007 61.2427 37.3 61.2427 35.5725C61.2427 33.8445 61.3447 32.4443 61.4706 32.4443C61.5964 32.4443 61.6984 33.8445 61.6984 35.5725C61.6979 37.3 61.5958 38.7007 61.4706 38.7007Z" fill="#263238"/>
<path d="M64.4374 38.7007C64.3115 38.7007 64.2095 37.3 64.2095 35.5725C64.2095 33.8445 64.3115 32.4443 64.4374 32.4443C64.5632 32.4443 64.6652 33.8445 64.6652 35.5725C64.6652 37.3 64.5632 38.7007 64.4374 38.7007Z" fill="#263238"/>
<path d="M67.4046 38.7007C67.2788 38.7007 67.1768 37.3 67.1768 35.5725C67.1768 33.8445 67.2788 32.4443 67.4046 32.4443C67.5305 32.4443 67.6325 33.8445 67.6325 35.5725C67.632 37.3 67.5299 38.7007 67.4046 38.7007Z" fill="#263238"/>
<path d="M70.3714 38.7007C70.2456 38.7007 70.1436 37.3 70.1436 35.5725C70.1436 33.8445 70.2456 32.4443 70.3714 32.4443C70.4973 32.4443 70.5988 33.8445 70.5988 35.5725C70.5988 37.3 70.4973 38.7007 70.3714 38.7007Z" fill="#263238"/>
<path d="M73.3382 38.7007C73.2124 38.7007 73.1104 37.3 73.1104 35.5725C73.1104 33.8445 73.2124 32.4443 73.3382 32.4443C73.464 32.4443 73.5656 33.8445 73.5656 35.5725C73.5661 37.3 73.464 38.7007 73.3382 38.7007Z" fill="#263238"/>
<path d="M69.169 85.9507C70.7167 84.4031 70.7167 81.8938 69.169 80.3462C67.6214 78.7985 65.1121 78.7985 63.5645 80.3462C62.0168 81.8938 62.0168 84.4031 63.5645 85.9507C65.1121 87.4984 67.6214 87.4984 69.169 85.9507Z" fill="#0196CE"/>
<path d="M70.3305 83.1492C70.2906 83.1508 70.2976 82.796 70.1302 82.201C69.9644 81.6167 69.5605 80.7651 68.6787 80.1133C67.8265 79.4599 66.4296 79.0976 65.0817 79.603C63.7447 80.0669 62.5929 81.4892 62.608 83.1487C62.5929 84.8086 63.7447 86.2315 65.0817 86.6954C66.4296 87.2008 67.8265 86.8385 68.6787 86.1851C69.5605 85.5333 69.9644 84.6817 70.1302 84.0974C70.2976 83.5018 70.2906 83.147 70.3305 83.1492C70.3446 83.1492 70.3537 83.2361 70.3586 83.4041C70.3667 83.5715 70.35 83.8215 70.283 84.1358C70.1583 84.7546 69.7765 85.6813 68.8525 86.413C67.9605 87.1457 66.4447 87.5821 64.9537 87.0469C63.4763 86.5593 62.1835 84.9895 62.2014 83.1487C62.1841 81.3083 63.4763 79.7391 64.9537 79.2515C66.4447 78.7163 67.9599 79.1527 68.8525 79.8854C69.777 80.6171 70.1588 81.5438 70.2835 82.1626C70.35 82.4764 70.3667 82.7269 70.3591 82.8943C70.3543 83.0617 70.3446 83.1492 70.3305 83.1492Z" fill="#263238"/>
<path d="M205.883 96.7367L212.657 95.6659C215.828 98.2222 219.722 99.9605 224.058 100.509C236.528 102.085 247.916 93.2407 249.494 80.7543C251.073 68.2673 242.244 56.8669 229.775 55.2901C217.306 53.7138 205.917 62.5585 204.339 75.0454C203.679 80.2597 204.84 85.2811 207.317 89.4802L207.308 89.471L205.883 96.7367Z" fill="white"/>
<path d="M205.883 96.7367C205.883 96.7367 205.906 96.586 205.963 96.2771C206.022 95.958 206.108 95.4979 206.221 94.8942C206.456 93.6538 206.8 91.8308 207.249 89.4586C207.255 89.4256 207.287 89.4046 207.32 89.4105C207.331 89.4127 207.343 89.4191 207.351 89.4272L207.36 89.4359L207.266 89.5093C205.771 86.9891 204.264 83.335 204.082 78.772C204.033 77.6369 204.076 76.4532 204.218 75.2382C204.419 74.0335 204.578 72.7709 204.984 71.5262C205.701 69.019 206.899 66.4686 208.652 64.1374C210.398 61.8068 212.695 59.7008 215.442 58.1018C218.184 56.5013 221.38 55.4164 224.769 55.0876C228.155 54.7398 231.726 55.2101 235.077 56.4953C238.417 57.7854 241.586 59.8536 244.03 62.6902L244.951 63.7691C245.236 64.1439 245.495 64.5376 245.768 64.9199C246.341 65.6672 246.751 66.5129 247.222 67.3142C247.459 67.7144 247.614 68.1556 247.812 68.573C247.99 68.9996 248.214 69.4073 248.351 69.8468C248.624 70.7249 248.983 71.5738 249.145 72.4718C250.001 76.0099 249.983 79.6522 249.228 83.0142C248.458 86.3784 246.928 89.437 244.951 91.9647C242.971 94.4984 240.543 96.5018 237.971 97.9225C235.397 99.3487 232.683 100.19 230.083 100.551C228.783 100.764 227.506 100.761 226.278 100.774C225.053 100.673 223.866 100.626 222.748 100.394C218.249 99.5512 214.861 97.5343 212.621 95.7101L212.667 95.7226C210.46 96.0557 208.761 96.3122 207.603 96.4867C207.04 96.5698 206.611 96.6335 206.312 96.6773C206.024 96.7205 205.883 96.7367 205.883 96.7367C205.883 96.7367 206.039 96.7059 206.333 96.6562C206.634 96.6055 207.068 96.5326 207.635 96.437C208.782 96.2474 210.464 95.9693 212.648 95.6081C212.665 95.6054 212.682 95.6108 212.694 95.6205C214.937 97.4171 218.315 99.3983 222.781 100.214C223.891 100.441 225.069 100.482 226.283 100.578C227.501 100.56 228.766 100.558 230.054 100.342C232.629 99.9761 235.313 99.1354 237.857 97.7173C240.399 96.3052 242.797 94.318 244.75 91.8092C246.701 89.3057 248.208 86.2812 248.966 82.9553C249.708 79.6311 249.722 76.0325 248.875 72.5387C248.715 71.6515 248.359 70.8134 248.09 69.9462C247.955 69.5115 247.733 69.1097 247.557 68.688C247.36 68.276 247.208 67.8402 246.973 67.4449C246.507 66.6538 246.103 65.8179 245.536 65.0803C245.267 64.7028 245.01 64.314 244.729 63.9436L243.819 62.8781C241.405 60.0755 238.275 58.0333 234.978 56.7567C231.669 55.4855 228.14 55.0168 224.794 55.3576C221.444 55.6789 218.284 56.7464 215.57 58.3243C212.85 59.9 210.574 61.979 208.841 64.2811C207.101 66.5842 205.907 69.1054 205.189 71.5867C204.783 72.819 204.621 74.0691 204.416 75.263C204.272 76.4672 204.224 77.6407 204.267 78.7666C204.428 83.2928 205.904 86.9308 207.369 89.4499C207.386 89.4785 207.377 89.5158 207.348 89.5325C207.324 89.5466 207.294 89.5423 207.275 89.5234L207.266 89.5142L207.367 89.4829C206.89 91.8313 206.524 93.6355 206.274 94.8634C206.149 95.472 206.053 95.9359 205.987 96.2577C205.922 96.5709 205.883 96.7367 205.883 96.7367Z" fill="#263238"/>
<path d="M233.904 78.5576C233.904 77.2789 234.941 76.2426 236.219 76.2426C237.497 76.2426 238.534 77.2789 238.534 78.5576C238.534 79.8358 237.497 80.872 236.219 80.872C234.941 80.872 233.904 79.8358 233.904 78.5576Z" fill="#263238"/>
<path d="M224.641 78.5576C224.641 77.2789 225.677 76.2426 226.956 76.2426C228.234 76.2426 229.271 77.2789 229.271 78.5576C229.271 79.8358 228.234 80.872 226.956 80.872C225.678 80.872 224.641 79.8358 224.641 78.5576Z" fill="#263238"/>
<path d="M215.402 79.7148C214.762 78.6078 215.142 77.1919 216.249 76.5531C217.356 75.9137 218.772 76.2934 219.411 77.4004C220.05 78.5074 219.671 79.9232 218.564 80.5626C217.457 81.2014 216.041 80.8218 215.402 79.7148Z" fill="#263238"/>
<path d="M53.6185 161.461C52.194 160.784 49.8034 159.377 48.3265 158.824C46.8496 158.271 45.194 158.01 43.6982 158.511C42.8239 158.803 41.9561 159.497 41.9502 160.418L47.7568 164.676L53.6185 163.133V161.461Z" fill="#FF9A6C"/>
<path d="M47.2673 161.401C47.2673 161.401 36.8361 159.14 35.12 158.245C33.4033 157.35 24.2946 152.791 22.7842 152.791C21.2738 152.791 19.9692 153.203 19.6943 154.713L21.6783 156.255L21.9305 157.043L25.3217 158.81L25.9427 159.949L34.5708 164.559C34.5708 164.559 43.6342 169.159 45.1445 169.434C46.6549 169.709 54.2079 170.327 57.4349 173.073L70.3949 167.754C70.3949 167.754 66.65 162.436 63.7702 161.128C61.2004 159.962 56.8858 159.959 53.8645 161.195L47.2673 161.401Z" fill="#FFBF9D"/>
<path d="M55.9404 170.118C55.9404 170.118 72.4374 206.093 75.0921 213.298C75.0921 213.298 93.5336 210.268 94.1654 200.03L70.3946 167.634L55.9404 170.118Z" fill="#FFBF9D"/>
<path d="M40.6165 162.214C40.6154 162.224 40.5549 162.222 40.4399 162.21C40.3227 162.204 40.1569 162.166 39.9436 162.11C39.5203 161.992 38.9284 161.759 38.2264 161.417C37.5228 161.077 36.7096 160.629 35.8126 160.128C35.3633 159.878 34.8941 159.613 34.4011 159.357C33.914 159.099 33.3772 158.886 32.8334 158.647C31.7464 158.178 30.6983 157.767 29.7122 157.512C28.7343 157.27 27.7942 157.084 27.0868 157.321C26.375 157.566 26.0564 158.175 25.8755 158.545C25.6914 158.934 25.6271 159.168 25.6001 159.16C25.591 159.157 25.6001 159.097 25.6266 158.985C25.6498 158.871 25.6968 158.708 25.7751 158.502C25.855 158.297 25.9668 158.047 26.1585 157.791C26.3453 157.535 26.6337 157.277 27.0203 157.135C27.4048 156.984 27.8584 156.968 28.3212 157.007C28.7861 157.048 29.2716 157.137 29.7765 157.262C30.7868 157.509 31.8539 157.919 32.9447 158.389C33.4868 158.627 34.0279 158.844 34.529 159.113C35.0275 159.376 35.4951 159.647 35.9411 159.903C36.8316 160.417 37.6308 160.881 38.3171 161.24C39.0019 161.601 39.5726 161.859 39.9782 162.006C40.3821 162.155 40.6202 162.187 40.6165 162.214Z" fill="#FF9A6C"/>
<path d="M30.6693 157.043C30.658 157.075 30.0872 156.916 29.2092 156.537C28.3414 156.145 27.1512 155.593 25.7818 155.168C25.1068 154.964 24.4183 154.95 23.8097 155C23.2022 155.05 22.693 155.292 22.4181 155.648C22.1416 156.003 22.0623 156.385 22.0088 156.638C21.9732 156.896 21.9516 157.044 21.9305 157.043C21.9127 157.043 21.897 156.896 21.8997 156.625C21.9224 156.36 21.9694 155.947 22.2594 155.527C22.4095 155.325 22.6195 155.132 22.8852 154.997C23.1509 154.863 23.4576 154.783 23.7789 154.742C24.4167 154.674 25.1386 154.682 25.8579 154.898C27.2625 155.333 28.451 155.922 29.2923 156.357C30.1407 156.778 30.685 157.002 30.6693 157.043Z" fill="#FF9A6C"/>
<path d="M56.6747 160.386C56.6807 160.404 56.53 160.47 56.2514 160.571C55.9738 160.676 55.5634 160.803 55.0504 160.938C54.0255 161.21 52.574 161.476 50.9523 161.549C49.3302 161.618 47.8608 161.479 46.8159 161.297C46.2932 161.207 45.8731 161.116 45.5874 161.036C45.3012 160.959 45.1452 160.907 45.1495 160.888C45.1592 160.844 45.8007 160.971 46.8446 161.1C47.8878 161.231 49.3388 161.336 50.9405 161.268C52.541 161.196 53.9774 160.965 55.005 160.745C56.0327 160.525 56.6607 160.343 56.6747 160.386Z" fill="#FF9A6C"/>
<path d="M210.3 139.024L186.273 134.056L180.368 129.601L148.666 135.714C148.161 136.641 143.022 143.796 143.022 143.796L130.54 148.036C125.202 149.47 120.44 152.476 116.994 156.686C114.361 159.903 111.425 164.345 108.912 170.241C103.295 183.42 95.1889 198.649 95.1889 198.649L90.107 190.466L68.6938 200.548C68.6938 200.548 81.2381 225.84 85.3912 229.451C90.0077 233.465 100.621 233.927 107.96 226.441C112.384 221.929 125.167 204.085 127.829 199.619L131.76 218.299L135.396 239.616L129.521 254.284H215.271L211.724 240.421C211.724 240.421 215.219 204.274 216.183 197.55C218.459 181.68 210.3 139.024 210.3 139.024Z" fill="#0196CE"/>
<path d="M210.3 139.024C210.3 139.024 227.472 143.842 231.252 160.908C233.542 171.251 241.319 200.727 244.053 224.997C245.679 239.424 245.629 252.759 245.679 254.284H219.326L208.156 143.841L210.3 139.024Z" fill="#0196CE"/>
<path d="M166.258 153.681C166.264 153.684 166.239 153.744 166.185 153.858C166.119 153.992 166.039 154.156 165.941 154.356C165.728 154.79 165.42 155.429 165.051 156.247C164.293 157.874 163.395 160.274 161.95 162.956L161.876 163.092L161.756 162.99C159.976 161.473 158.04 159.648 156.043 157.676C152.509 154.167 149.409 150.899 147.116 148.582C145.984 147.444 145.06 146.515 144.394 145.845C144.087 145.54 143.84 145.295 143.649 145.105C143.481 144.933 143.396 144.84 143.402 144.833C143.409 144.826 143.507 144.905 143.687 145.063C143.887 145.243 144.146 145.477 144.469 145.766C145.138 146.386 146.096 147.294 147.256 148.441C149.586 150.724 152.71 153.971 156.24 157.476C158.234 159.446 160.158 161.274 161.92 162.798L161.727 162.833C163.18 160.185 164.113 157.796 164.913 156.184C165.302 155.372 165.633 154.743 165.869 154.319C165.981 154.126 166.073 153.969 166.148 153.84C166.215 153.731 166.252 153.677 166.258 153.681Z" fill="black"/>
<path d="M186.637 134.663C186.647 134.665 186.629 134.795 186.586 135.041C186.534 135.315 186.468 135.672 186.385 136.117C186.19 137.047 185.865 138.383 185.402 140.018C184.471 143.285 182.96 147.73 181.103 152.567C180.119 155.127 179.147 157.543 178.238 159.69L178.169 159.854L178.035 159.736C175.588 157.577 173.396 155.877 171.909 154.61C171.161 153.982 170.578 153.474 170.188 153.119C170.009 152.952 169.864 152.816 169.746 152.707C169.648 152.611 169.599 152.559 169.604 152.554C169.609 152.548 169.667 152.59 169.774 152.675C169.899 152.777 170.053 152.903 170.242 153.057C170.676 153.41 171.269 153.891 172.008 154.491C173.521 155.723 175.733 157.393 178.206 159.545L178.003 159.591C178.894 157.442 179.858 155.024 180.841 152.466C182.696 147.635 184.235 143.208 185.212 139.962C185.698 138.338 186.051 137.013 186.278 136.093C186.383 135.653 186.466 135.301 186.531 135.031C186.591 134.788 186.627 134.661 186.637 134.663Z" fill="black"/>
<path d="M131.086 215.909C131.081 215.911 131.065 215.869 131.038 215.787C131.008 215.688 130.971 215.567 130.926 215.419C130.827 215.072 130.69 214.598 130.519 213.999C130.336 213.383 130.155 212.619 129.939 211.733C129.714 210.849 129.492 209.835 129.259 208.712C128.3 204.223 127.339 197.943 126.743 190.965C126.134 183.985 126 177.638 126.03 173.051C126.049 170.757 126.092 168.901 126.156 167.619C126.187 166.997 126.211 166.504 126.228 166.144C126.239 165.99 126.247 165.864 126.254 165.761C126.262 165.674 126.268 165.63 126.273 165.63C126.278 165.63 126.281 165.675 126.283 165.762C126.284 165.865 126.284 165.991 126.285 166.146C126.28 166.507 126.274 167 126.265 167.622C126.235 168.904 126.221 170.759 126.228 173.052C126.249 177.635 126.416 183.971 127.023 190.941C127.619 197.909 128.547 204.18 129.454 208.672C129.674 209.796 129.882 210.812 130.093 211.698C130.294 212.586 130.459 213.352 130.626 213.971C130.776 214.576 130.894 215.054 130.981 215.404C131.016 215.556 131.044 215.678 131.067 215.779C131.084 215.864 131.091 215.908 131.086 215.909Z" fill="black"/>
<path d="M211.724 157.958C211.728 157.956 211.753 158.006 211.798 158.106C211.847 158.22 211.91 158.366 211.988 158.549C212.158 158.96 212.395 159.535 212.697 160.268C212.847 160.642 213.025 161.055 213.197 161.515C213.356 161.981 213.527 162.487 213.71 163.028C213.894 163.572 214.09 164.154 214.298 164.77C214.47 165.398 214.651 166.061 214.841 166.757C216.449 172.316 217.266 180.353 216.803 189.152C216.328 197.954 215.302 205.865 214.665 211.596C214.335 214.446 214.067 216.76 213.879 218.382C213.783 219.168 213.708 219.785 213.655 220.226C213.628 220.423 213.606 220.581 213.59 220.704C213.573 220.812 213.563 220.867 213.558 220.866C213.553 220.866 213.554 220.81 213.561 220.701C213.571 220.577 213.583 220.418 213.598 220.22C213.639 219.777 213.696 219.158 213.769 218.37C213.922 216.764 214.159 214.442 214.467 211.574C215.053 205.837 216.048 197.923 216.521 189.138C216.983 180.357 216.201 172.361 214.648 166.808C214.465 166.112 214.292 165.449 214.126 164.821C213.926 164.205 213.737 163.623 213.561 163.078C213.385 162.535 213.222 162.028 213.071 161.56C212.906 161.098 212.736 160.683 212.594 160.307C212.314 159.567 212.093 158.986 211.936 158.571C211.867 158.383 211.813 158.233 211.771 158.117C211.736 158.014 211.72 157.96 211.724 157.958Z" fill="black"/>
<path d="M95.3125 217.044C95.2347 217.045 95.1446 212.927 95.1106 207.848C95.0765 202.767 95.1122 198.65 95.1899 198.649C95.2677 198.649 95.3579 202.766 95.3919 207.846C95.4259 212.925 95.3903 217.044 95.3125 217.044Z" fill="black"/>
<path d="M173.234 241.963C173.23 241.963 173.235 241.886 173.25 241.737C173.268 241.575 173.293 241.357 173.325 241.078C173.398 240.484 173.503 239.634 173.637 238.547C173.707 237.996 173.785 237.386 173.87 236.719C173.941 236.048 174.019 235.32 174.102 234.539C174.259 232.974 174.476 231.197 174.617 229.222C174.698 228.235 174.783 227.202 174.872 226.126C174.958 225.049 175.007 223.926 175.08 222.764C175.242 220.442 175.309 217.956 175.403 215.341C175.522 210.109 175.503 204.353 175.232 198.319C174.935 192.285 174.414 186.551 173.804 181.353C173.464 178.758 173.165 176.289 172.786 173.992C172.604 172.843 172.45 171.729 172.263 170.665C172.074 169.602 171.893 168.58 171.719 167.606C171.392 165.653 171.01 163.904 170.706 162.36C170.55 161.59 170.405 160.873 170.271 160.212C170.124 159.556 169.989 158.955 169.868 158.414C169.632 157.344 169.447 156.508 169.318 155.924C169.261 155.65 169.216 155.434 169.182 155.275C169.153 155.128 169.141 155.052 169.146 155.051C169.15 155.05 169.172 155.124 169.21 155.268C169.25 155.426 169.304 155.638 169.373 155.911C169.514 156.492 169.716 157.325 169.974 158.39C170.102 158.93 170.246 159.529 170.402 160.183C170.543 160.843 170.695 161.559 170.86 162.328C171.178 163.869 171.574 165.617 171.914 167.57C172.093 168.544 172.28 169.565 172.476 170.628C172.669 171.692 172.828 172.806 173.016 173.956C173.405 176.254 173.713 178.724 174.061 181.322C174.686 186.524 175.215 192.264 175.513 198.306C175.784 204.347 175.795 210.111 175.661 215.348C175.56 217.966 175.484 220.454 175.312 222.778C175.234 223.94 175.18 225.064 175.088 226.142C174.993 227.218 174.902 228.253 174.815 229.24C174.661 231.215 174.429 232.993 174.257 234.557C174.166 235.338 174.081 236.065 174.002 236.735C173.908 237.402 173.822 238.011 173.745 238.561C173.588 239.646 173.465 240.494 173.38 241.086C173.337 241.364 173.302 241.581 173.278 241.742C173.254 241.889 173.239 241.964 173.234 241.963Z" fill="black"/>
<path d="M184.65 183.673C184.647 183.671 184.684 183.665 184.758 183.656C184.845 183.645 184.955 183.632 185.095 183.615C185.409 183.579 185.852 183.53 186.422 183.467C187.605 183.341 189.315 183.159 191.478 182.928C195.862 182.475 202.082 181.83 209.489 181.064L209.622 181.05L209.626 181.185C209.766 186.637 209.924 192.801 210.091 199.34L210.093 199.398L210.054 199.44C209.363 200.182 208.625 200.975 207.88 201.775C205.162 204.692 202.524 207.523 200.016 210.215L199.947 210.29L199.856 210.245C195.027 207.848 190.55 205.625 186.587 203.658L186.529 203.63L186.523 203.566C185.946 197.544 185.469 192.563 185.134 189.073C184.976 187.355 184.85 186.004 184.764 185.068C184.725 184.62 184.694 184.272 184.673 184.023C184.652 183.788 184.65 183.673 184.65 183.673C184.65 183.673 184.671 183.804 184.699 184.045C184.728 184.299 184.767 184.654 184.819 185.109C184.92 186.05 185.065 187.408 185.251 189.134C185.612 192.604 186.129 197.557 186.752 203.544L186.689 203.452C190.657 205.408 195.141 207.618 199.976 210.002L199.816 210.031C202.323 207.336 204.958 204.503 207.675 201.584C208.419 200.784 209.158 199.991 209.848 199.249L209.811 199.348C209.655 192.808 209.507 186.645 209.377 181.192L209.514 181.313C202.135 182.025 195.938 182.623 191.571 183.044C189.393 183.247 187.672 183.408 186.481 183.52C185.899 183.571 185.447 183.612 185.126 183.64C184.98 183.652 184.865 183.661 184.775 183.668C184.694 183.673 184.652 183.675 184.65 183.673Z" fill="black"/>
<path d="M209.657 187.477C209.659 187.497 209.326 187.559 208.722 187.655C208.118 187.754 207.24 187.876 206.155 188.015C203.984 188.295 200.977 188.613 197.654 188.929C194.354 189.252 191.368 189.544 189.148 189.761C188.096 189.872 187.227 189.963 186.572 190.032C185.964 190.095 185.626 190.121 185.624 190.102C185.621 190.082 185.953 190.02 186.558 189.923C187.163 189.825 188.04 189.703 189.125 189.564C191.296 189.284 194.304 188.966 197.627 188.65C200.927 188.327 203.912 188.035 206.132 187.817C207.184 187.707 208.053 187.615 208.707 187.547C209.316 187.484 209.654 187.458 209.657 187.477Z" fill="black"/>
<g opacity="0.3">
<path d="M214.872 208.715C215.174 212.393 215.477 216.071 215.779 219.749C217.781 210.299 220.928 200.142 220.44 190.494C219.954 180.908 219.043 171.624 213.61 162.894C213.61 162.894 217.295 172.121 216.798 183.409C216.301 194.698 214.872 208.715 214.872 208.715Z" fill="black"/>
</g>
<path d="M91.7364 188.18C91.3746 187.557 90.9583 186.887 90.2768 186.652C89.5186 186.391 88.7016 186.756 87.984 187.114C81.4521 190.365 74.9203 193.618 68.3884 196.87C67.1022 197.51 65.7041 198.272 65.217 199.623C64.5933 201.352 65.7306 203.174 66.8122 204.66C68.6185 207.141 70.7769 209.838 73.8257 210.189L90.6742 198.633C92.7343 198.331 94.0152 196.038 93.9353 193.957C93.8559 191.875 92.7819 189.981 91.7364 188.18Z" fill="#0196CE"/>
<path d="M93.8634 195.24C93.8699 195.247 93.8105 195.313 93.6917 195.429C93.5464 195.566 93.372 195.732 93.1614 195.931C92.6986 196.364 92.0128 196.973 91.1515 197.71C89.43 199.184 86.9816 201.142 84.1558 203.14C81.3273 205.135 78.6619 206.788 76.6968 207.916C75.7145 208.482 74.911 208.924 74.3478 209.215C74.0902 209.346 73.8753 209.456 73.6976 209.546C73.5475 209.619 73.4665 209.654 73.4617 209.645C73.4568 209.637 73.5292 209.586 73.6701 209.497C73.8407 209.394 74.0465 209.269 74.2943 209.119C74.8765 208.772 75.653 208.308 76.5953 207.744C78.5317 206.574 81.1723 204.9 83.9938 202.909C86.8121 200.917 89.2734 198.989 91.0246 197.556C91.8703 196.857 92.5674 196.28 93.0901 195.848C93.3137 195.665 93.5 195.512 93.655 195.386C93.7851 195.284 93.8569 195.233 93.8634 195.24Z" fill="black"/>
<g opacity="0.3">
<path d="M186.382 135.9C184.076 143.561 180.846 152.22 178.121 159.64C175.796 157.667 172.546 155.059 170.221 153.086C172.221 157.056 174.63 160.821 177.397 164.3C177.717 164.703 178.151 165.145 178.657 165.048C179.135 164.956 179.381 164.435 179.554 163.98C180.971 160.231 182.389 156.482 183.807 152.734C185.791 147.486 187.712 141.353 186.382 135.9Z" fill="black"/>
</g>
<path d="M149.93 52.596C156.931 50.5748 163.517 52.6133 169.992 55.9548C176.467 59.2969 181.687 64.8567 185.069 71.3113C188.631 78.1094 190.207 86.0344 188.918 93.5998C187.628 101.166 183.354 108.291 176.945 112.514C168.194 118.281 156.133 117.981 147.115 112.64C138.097 107.3 132.173 97.4522 130.596 87.0907C129.51 79.9524 130.394 72.4237 133.726 66.0182C137.059 59.6128 142.949 54.4417 149.93 52.596Z" fill="#263238"/>
<path d="M172.977 74.5713C171.624 71.9583 171.684 68.8641 170.943 66.0166C169.312 59.7462 163.598 55.2177 157.378 53.4049C151.592 51.7191 144.901 52.987 138.489 55.8916C134.093 57.8826 130.091 60.9406 127.469 64.9912C123.989 70.3669 123.353 77.4765 125.824 83.3847L157.894 74.945C161.233 77.125 164.65 79.3401 168.512 80.3288C169.645 80.6193 170.85 80.7981 171.977 80.4859C173.105 80.1738 174.132 79.2672 174.276 78.1062C174.434 76.8372 173.565 75.7064 172.977 74.5713Z" fill="#263238"/>
<path d="M180.628 131.437L172.349 73.2111C171.984 70.4571 170.737 67.6534 167.962 67.7814L138.81 64.9723C129.676 65.394 125.389 77.3745 126.198 86.4826C127.097 96.6017 128.593 108.92 130.922 116.217C135.606 130.89 147.423 131.044 147.423 131.044C147.419 130.993 148.142 133.959 149.041 139.413L167.94 151.982L180.628 131.437Z" fill="#FFBF9D"/>
<path d="M133.235 97.5548C133.354 98.5786 134.32 99.3222 135.392 99.2169C136.461 99.1116 137.234 98.199 137.114 97.1746C136.994 96.1508 136.029 95.4067 134.96 95.5114C133.888 95.6162 133.115 96.531 133.235 97.5548Z" fill="#263238"/>
<path d="M129.832 92.455C130.109 92.67 131.406 91.3659 133.482 91.0543C135.551 90.7135 137.237 91.5489 137.423 91.26C137.517 91.1304 137.203 90.7141 136.467 90.3323C135.741 89.9516 134.556 89.6541 133.264 89.8566C131.972 90.0612 130.958 90.7033 130.407 91.2854C129.844 91.8729 129.697 92.3605 129.832 92.455Z" fill="#263238"/>
<path d="M152.419 94.4368C152.538 95.4607 153.504 96.2037 154.576 96.0984C155.645 95.9931 156.418 95.0805 156.298 94.0561C156.179 93.0323 155.213 92.2877 154.144 92.393C153.072 92.4977 152.3 93.413 152.419 94.4368Z" fill="#263238"/>
<path d="M149.568 89.707C149.846 89.9219 151.144 88.6178 153.218 88.3068C155.287 87.9655 156.973 88.8009 157.16 88.5125C157.253 88.3829 156.943 87.966 156.203 87.5848C155.476 87.203 154.292 86.9055 153 87.1085C151.709 87.3132 150.694 87.9552 150.143 88.5379C149.582 89.1243 149.433 89.6125 149.568 89.707Z" fill="#263238"/>
<path d="M145.108 106.268C145.1 106.148 143.776 106.122 141.645 106.174C141.106 106.2 140.589 106.172 140.444 105.824C140.261 105.459 140.396 104.855 140.558 104.199C140.861 102.84 141.177 101.416 141.51 99.9243C142.808 93.8472 143.663 88.8824 143.418 88.8327C143.172 88.782 141.92 93.6679 140.621 99.745C140.314 101.241 140.019 102.669 139.74 104.034C139.631 104.666 139.391 105.403 139.783 106.155C139.986 106.53 140.419 106.757 140.773 106.797C141.128 106.849 141.427 106.809 141.692 106.784C143.812 106.577 145.118 106.387 145.108 106.268Z" fill="#263238"/>
<path d="M147.424 131.044C147.424 131.044 157.64 130.152 166.742 122.597C166.742 122.597 162.028 134.394 148.368 135.582L147.424 131.044Z" fill="#FF9A6C"/>
<path d="M146.75 111.136C147.345 110.035 148.57 109.293 149.89 109.235C150.805 109.194 151.781 109.49 152.44 110.14C153.1 110.789 153.373 111.813 152.982 112.588C152.543 113.462 151.4 113.822 150.367 113.692C149.334 113.561 148.382 113.039 147.473 112.514C147.222 112.368 146.965 112.216 146.787 111.991C146.609 111.766 146.53 111.448 146.672 111.218" fill="#FF9A6C"/>
<path d="M151.435 106.771C151.094 106.803 151.434 109.056 149.75 110.95C148.071 112.848 145.631 112.961 145.661 113.279C145.651 113.425 146.263 113.635 147.28 113.507C148.28 113.39 149.683 112.849 150.713 111.69C151.74 110.53 152.046 109.145 151.982 108.209C151.923 107.254 151.587 106.735 151.435 106.771Z" fill="#263238"/>
<path d="M148.985 83.5067C149.275 84.0397 151.306 83.4559 153.785 83.3776C156.264 83.2497 158.336 83.6622 158.582 83.1071C158.689 82.843 158.265 82.3646 157.389 81.9396C156.518 81.5141 155.184 81.1874 153.697 81.2479C152.211 81.3111 150.908 81.7474 150.076 82.2436C149.238 82.7404 148.855 83.2524 148.985 83.5067Z" fill="#263238"/>
<path d="M129.049 83.2885C129.486 83.7038 130.841 82.9964 132.556 82.7107C134.261 82.3651 135.779 82.5428 136.039 81.9985C136.15 81.7366 135.848 81.2997 135.144 80.9503C134.449 80.6015 133.346 80.3985 132.169 80.6145C130.994 80.8326 130.036 81.4158 129.512 81.9898C128.978 82.5671 128.853 83.0828 129.049 83.2885Z" fill="#263238"/>
<path d="M177.698 69.5839C173.766 61.249 159.542 50.8956 150.514 52.7478L137.126 63.4171C138.668 68.2587 143.073 72.0652 148.087 72.8898C150.764 73.3299 153.892 73.1317 155.717 75.1405C157.581 77.1914 157.107 80.6031 158.871 82.7394C161.317 85.7002 166.806 84.8119 168.784 88.1037C169.648 89.5423 169.546 91.4118 170.436 92.8341C171.621 94.7295 177.07 96.606 179.093 95.6545C181.116 94.7031 180.642 91.1056 181.081 89.1286C181.832 85.7509 181.123 84.1461 180.494 82.3992C179.007 78.2622 179.574 73.561 177.698 69.5839Z" fill="#263238"/>
<path d="M173.099 98.2671C172.931 97.1466 173.822 94.3094 174.901 93.9676C177.784 93.0561 183.143 92.481 184.338 99.9735C185.971 110.216 175.351 109.743 175.286 109.452C175.235 109.224 173.68 102.135 173.099 98.2671Z" fill="#FFBF9D"/>
<path d="M177.796 105.073C177.836 105.033 177.995 105.169 178.318 105.26C178.634 105.347 179.154 105.359 179.656 105.074C180.675 104.505 181.312 102.642 181.067 100.788C180.945 99.8514 180.608 98.995 180.161 98.3124C179.729 97.6131 179.161 97.1665 178.6 97.1574C178.039 97.1179 177.704 97.5057 177.625 97.8135C177.533 98.1223 177.631 98.3162 177.58 98.3421C177.555 98.3729 177.333 98.206 177.348 97.7703C177.358 97.5602 177.439 97.2988 177.649 97.0639C177.863 96.8247 178.208 96.666 178.594 96.646C179.393 96.5752 180.22 97.1881 180.711 97.9371C181.247 98.6829 181.647 99.6419 181.785 100.693C182.048 102.767 181.3 104.867 179.887 105.531C179.197 105.834 178.561 105.713 178.212 105.52C177.854 105.317 177.764 105.096 177.796 105.073Z" fill="#FF9A6C"/>
<path d="M139.765 59.9654C139.292 64.2649 133.529 70.3604 131.103 73.9406C126.472 80.771 125.654 82.958 127.282 96.8717C124.218 92.3497 121.756 87.8569 121.335 82.411C120.914 76.9651 122.297 71.3048 125.626 66.9746C128.956 62.6443 134.306 59.7953 139.765 59.9654Z" fill="#263238"/>
<path d="M164.23 45.3184C166.406 42.9338 169.512 41.3834 172.751 40.5751C177.371 39.4222 182.437 39.7338 186.642 41.7415C190.847 43.7492 194.092 47.5065 194.958 51.8357C195.823 56.1649 194.154 60.9676 190.485 63.8437C192.819 66.1333 195.781 67.8677 199.023 68.8446C198.147 70.1557 196.531 70.9247 194.903 71.2006C193.274 71.476 191.609 71.3221 189.97 71.1672C191.025 72.792 192.731 74.0372 194.687 74.6091C192.055 75.2857 189.237 75.073 186.645 74.3494C184.053 73.6258 181.661 72.4108 179.374 71.0824C171.474 66.4935 167.117 62.4785 161.78 55.3959C161.063 52.3827 162.054 47.7031 164.23 45.3184Z" fill="#263238"/>
<path d="M181.259 66.957C175.463 58.4892 168.082 53.9543 161.4 52.5465L181.259 66.957Z" fill="#263238"/>
<path d="M161.4 52.5474C161.396 52.5679 161.734 52.6695 162.346 52.8342C162.956 53.007 163.835 53.2726 164.894 53.6749C167.012 54.4677 169.833 55.8852 172.589 57.9723C175.345 60.0604 177.521 62.3398 178.969 64.0813C179.684 64.962 180.263 65.6754 180.635 66.1894C181.02 66.6949 181.241 66.9692 181.259 66.9573C181.276 66.9454 181.088 66.6484 180.732 66.1203C180.388 65.5836 179.833 64.847 179.137 63.9441C177.724 62.1594 175.554 59.8353 172.773 57.7282C169.991 55.6216 167.122 54.2182 164.968 53.4719C163.892 53.0923 162.997 52.8568 162.375 52.7186C161.751 52.5885 161.404 52.5264 161.4 52.5474Z" fill="#455A64"/>
<path d="M188.175 74.1793C188.173 74.1744 188.128 74.189 188.043 74.2214C187.942 74.2624 187.819 74.3116 187.668 74.372C187.344 74.5141 186.854 74.6982 186.22 74.9207C184.948 75.35 183.055 75.8533 180.66 76.0552C178.268 76.2626 175.385 76.1411 172.268 75.5276C169.147 74.9255 165.811 73.8337 162.408 72.4572C159.007 71.0678 155.801 69.6433 152.944 68.243C150.091 66.8342 147.606 65.3924 145.637 64.0116C143.661 62.64 142.19 61.3564 141.22 60.4249C140.726 59.9675 140.37 59.5847 140.121 59.3314C140.006 59.2169 139.912 59.123 139.835 59.0458C139.769 58.9826 139.734 58.9518 139.73 58.9556C139.726 58.9594 139.754 58.9966 139.812 59.0668C139.883 59.1494 139.97 59.2504 140.075 59.373C140.31 59.6398 140.653 60.0372 141.137 60.5097C142.084 61.4709 143.542 62.7863 145.513 64.1882C147.477 65.5992 149.963 67.068 152.819 68.4952C155.68 69.9154 158.883 71.3475 162.294 72.7412C165.708 74.122 169.068 75.2128 172.215 75.8047C175.36 76.4078 178.27 76.5077 180.679 76.2712C183.093 76.0396 184.994 75.4996 186.261 75.033C186.892 74.7922 187.377 74.5897 187.694 74.4287C187.84 74.3569 187.959 74.2981 188.057 74.25C188.138 74.2079 188.178 74.1841 188.175 74.1793Z" fill="#455A64"/>
<path d="M157.576 125.032L156.591 123.109C156.66 123.074 163.44 119.591 166.048 117.4C172.193 112.237 177.846 103.99 177.902 103.907L179.687 105.123C179.449 105.471 173.814 113.696 167.437 119.053C164.643 121.402 157.863 124.884 157.576 125.032Z" fill="#455A64"/>
<path d="M162.625 119.066C162.625 119.066 153.35 123.199 153.35 124.117C153.35 125.036 154.819 126.872 155.921 126.781C157.023 126.689 160.208 124.897 160.759 124.163C161.31 123.428 162.347 121.541 163.449 120.623L162.625 119.066Z" fill="#263238"/>
<path d="M179.618 91.2751L177.46 91.1736C177.465 91.0834 177.839 82.0093 174.294 72.8773C169.607 60.8067 160.599 54.3246 147.519 53.6096C146.445 53.547 145.252 53.6366 143.963 53.8526L144.908 52.961C145.367 52.529 145.899 52.1829 146.48 51.9388C147.275 51.6051 148.142 51.4744 149.002 51.549C165.518 52.9783 172.977 63.4754 176.332 72.1591C180.023 81.7107 179.636 90.889 179.618 91.2751Z" fill="#455A64"/>
<path d="M178.539 110.897C182.319 110.897 185.383 106.493 185.383 101.06C185.383 95.6278 182.319 91.2238 178.539 91.2238C174.759 91.2238 171.695 95.6278 171.695 101.06C171.695 106.493 174.759 110.897 178.539 110.897Z" fill="#455A64"/>
<path d="M185.383 101.06C185.378 101.06 185.372 101.014 185.364 100.924C185.357 100.818 185.347 100.687 185.336 100.525C185.326 100.174 185.267 99.6592 185.175 99.0009C184.947 97.7087 184.497 95.7571 183.064 93.8569C182.717 93.3784 182.269 92.9459 181.779 92.5344C181.263 92.1602 180.699 91.7844 180.035 91.591C179.383 91.3923 178.665 91.2881 177.94 91.3912C177.218 91.4944 176.502 91.7628 175.848 92.1732C174.547 93.015 173.517 94.3742 172.857 95.9321C172.173 97.4889 171.856 99.2569 171.836 101.059C171.856 102.862 172.173 104.631 172.857 106.188C173.517 107.747 174.547 109.106 175.848 109.948C176.503 110.359 177.218 110.628 177.941 110.73C178.667 110.833 179.383 110.729 180.036 110.53C180.699 110.336 181.263 109.961 181.779 109.586C182.27 109.175 182.717 108.742 183.064 108.264C184.498 106.363 184.947 104.412 185.175 103.12C185.267 102.461 185.326 101.947 185.337 101.596C185.348 101.434 185.357 101.303 185.365 101.197C185.372 101.107 185.378 101.06 185.383 101.06C185.388 101.06 185.391 101.106 185.393 101.197C185.393 101.303 185.393 101.435 185.393 101.597C185.401 101.95 185.36 102.469 185.283 103.136C185.086 104.444 184.666 106.425 183.222 108.384C182.872 108.877 182.417 109.327 181.914 109.756C181.384 110.148 180.801 110.542 180.108 110.751C179.426 110.965 178.672 111.079 177.909 110.975C177.148 110.872 176.394 110.593 175.709 110.167C174.346 109.294 173.283 107.893 172.603 106.298C171.899 104.703 171.574 102.898 171.554 101.059C171.574 99.2212 171.899 97.4171 172.603 95.823C173.284 94.2289 174.346 92.8276 175.709 91.9545C176.394 91.5284 177.148 91.2492 177.908 91.1461C178.672 91.0424 179.426 91.1563 180.108 91.3696C180.8 91.5786 181.383 91.9723 181.913 92.3649C182.417 92.7936 182.871 93.2434 183.221 93.7365C184.666 95.6956 185.085 97.6768 185.283 98.9847C185.359 99.6511 185.4 100.17 185.392 100.523C185.392 100.685 185.392 100.817 185.392 100.924C185.391 101.015 185.388 101.06 185.383 101.06Z" fill="#263238"/>
<path d="M179.593 106.769C181.999 106.769 183.95 103.966 183.95 100.508C183.95 97.0492 181.999 94.2457 179.593 94.2457C177.187 94.2457 175.236 97.0492 175.236 100.508C175.236 103.966 177.187 106.769 179.593 106.769Z" fill="#455A64"/>
<path d="M183.949 100.508C183.917 100.509 183.928 100.035 183.797 99.1991C183.646 98.3794 183.355 97.1422 182.444 95.944C181.992 95.3565 181.359 94.7878 180.532 94.52C180.122 94.3963 179.672 94.3315 179.217 94.3969C178.764 94.4622 178.316 94.6312 177.905 94.8899C177.087 95.4202 176.438 96.2777 176.021 97.2632C175.59 98.2476 175.39 99.3665 175.377 100.507C175.389 101.648 175.589 102.767 176.021 103.752C176.437 104.737 177.087 105.595 177.904 106.125C178.315 106.384 178.764 106.553 179.217 106.618C179.672 106.683 180.122 106.619 180.532 106.495C181.359 106.227 181.992 105.658 182.444 105.071C183.355 103.872 183.646 102.635 183.797 101.815C183.928 100.98 183.918 100.507 183.949 100.508C183.959 100.508 183.964 100.625 183.965 100.85C183.974 101.075 183.951 101.406 183.905 101.832C183.784 102.667 183.523 103.933 182.602 105.191C182.143 105.808 181.49 106.417 180.604 106.716C180.165 106.855 179.678 106.93 179.185 106.863C178.694 106.797 178.207 106.618 177.766 106.344C176.886 105.782 176.204 104.883 175.768 103.861C175.316 102.839 175.108 101.683 175.095 100.506C175.108 99.3298 175.317 98.1747 175.768 97.153C176.205 96.1314 176.887 95.2323 177.766 94.6707C178.207 94.3963 178.694 94.2171 179.185 94.1512C179.678 94.0848 180.165 94.1593 180.604 94.2981C181.49 94.5972 182.143 95.2069 182.602 95.823C183.523 97.0807 183.784 98.3475 183.905 99.1829C183.951 99.6084 183.974 99.9394 183.965 100.165C183.964 100.39 183.959 100.508 183.949 100.508Z" fill="#263238"/>
<path d="M179.893 105.012C181.624 105.012 183.028 102.995 183.028 100.508C183.028 98.0196 181.624 96.0028 179.893 96.0028C178.162 96.0028 176.759 98.0196 176.759 100.508C176.759 102.995 178.162 105.012 179.893 105.012Z" fill="#455A64"/>
<path d="M183.027 100.508C182.999 100.508 183.001 100.168 182.902 99.569C182.789 98.9815 182.575 98.0959 181.922 97.2421C181.598 96.8236 181.145 96.4203 180.559 96.2318C179.978 96.0358 179.278 96.1189 178.698 96.4975C177.526 97.2718 176.902 98.8913 176.9 100.508C176.902 102.124 177.525 103.744 178.698 104.519C179.278 104.898 179.978 104.98 180.559 104.784C181.145 104.596 181.598 104.192 181.922 103.774C182.575 102.92 182.789 102.035 182.902 101.447C183.002 100.848 182.999 100.507 183.027 100.508C183.037 100.508 183.043 100.592 183.046 100.754C183.055 100.916 183.041 101.156 183.01 101.462C182.928 102.065 182.744 102.981 182.08 103.894C181.749 104.341 181.276 104.785 180.631 105.005C180.311 105.107 179.955 105.162 179.595 105.114C179.236 105.067 178.881 104.936 178.559 104.737C177.918 104.329 177.423 103.676 177.106 102.935C176.778 102.195 176.627 101.359 176.618 100.507C176.627 99.6559 176.778 98.8195 177.106 98.0791C177.423 97.3393 177.918 96.6865 178.559 96.2782C178.881 96.079 179.237 95.9483 179.595 95.9008C179.955 95.8533 180.311 95.9078 180.63 96.0099C181.276 96.2296 181.748 96.6741 182.079 97.1212C182.743 98.0343 182.927 98.9496 183.01 99.5528C183.04 99.8601 183.054 100.099 183.046 100.261C183.043 100.423 183.037 100.508 183.027 100.508Z" fill="#263238"/>
<path d="M41.0836 113.003L41.6211 109.128H34.2211L34.7461 105.378L42.6836 95.5031H47.2836L45.8961 105.378H47.1711L46.6461 109.128H45.3711L44.8336 113.003H41.0836ZM39.0711 105.378H42.1461L42.8336 100.553L39.0711 105.378ZM54.6756 113.328C53.5756 113.328 52.6131 113.078 51.7881 112.578C50.9631 112.07 50.3464 111.391 49.9381 110.541C49.5298 109.682 49.3964 108.728 49.5381 107.678C49.6464 106.953 49.8839 106.257 50.2506 105.591C50.6256 104.924 51.1048 104.328 51.6881 103.803C51.3631 103.336 51.1298 102.824 50.9881 102.266C50.8464 101.699 50.8173 101.103 50.9006 100.478C51.0423 99.5031 51.4173 98.6156 52.0256 97.8156C52.6423 97.0073 53.4048 96.3656 54.3131 95.8906C55.2298 95.4156 56.2006 95.1781 57.2256 95.1781C58.2506 95.1781 59.1506 95.4156 59.9256 95.8906C60.7006 96.3656 61.2839 97.0073 61.6756 97.8156C62.0673 98.6156 62.1923 99.5031 62.0506 100.478C61.9673 101.103 61.7714 101.699 61.4631 102.266C61.1631 102.824 60.7881 103.336 60.3381 103.803C60.7881 104.328 61.1048 104.924 61.2881 105.591C61.4798 106.257 61.5214 106.953 61.4131 107.678C61.2714 108.72 60.8714 109.67 60.2131 110.528C59.5631 111.378 58.7506 112.057 57.7756 112.566C56.8089 113.074 55.7756 113.328 54.6756 113.328ZM55.2006 109.578C55.5673 109.578 55.9131 109.495 56.2381 109.328C56.5714 109.153 56.8464 108.924 57.0631 108.641C57.2881 108.349 57.4214 108.028 57.4631 107.678C57.5131 107.328 57.4673 107.011 57.3256 106.728C57.1923 106.436 56.9839 106.207 56.7006 106.041C56.4256 105.866 56.1048 105.778 55.7381 105.778C55.3714 105.778 55.0214 105.866 54.6881 106.041C54.3631 106.207 54.0881 106.436 53.8631 106.728C53.6464 107.011 53.5131 107.328 53.4631 107.678C53.4214 108.028 53.4673 108.349 53.6006 108.641C53.7423 108.924 53.9506 109.153 54.2256 109.328C54.5089 109.495 54.8339 109.578 55.2006 109.578ZM56.2631 102.028C56.5631 102.028 56.8464 101.957 57.1131 101.816C57.3798 101.674 57.6006 101.486 57.7756 101.253C57.9589 101.02 58.0673 100.761 58.1006 100.478C58.1423 100.195 58.1048 99.9364 57.9881 99.7031C57.8798 99.4698 57.7131 99.2823 57.4881 99.1406C57.2631 98.9989 57.0006 98.9281 56.7006 98.9281C56.4006 98.9281 56.1173 98.9989 55.8506 99.1406C55.5839 99.2823 55.3589 99.4698 55.1756 99.7031C55.0006 99.9364 54.8923 100.195 54.8506 100.478C54.8173 100.761 54.8548 101.02 54.9631 101.253C55.0798 101.486 55.2506 101.674 55.4756 101.816C55.7006 101.957 55.9631 102.028 56.2631 102.028ZM75.7678 95.5031H79.5178L77.0678 113.003H73.3178L74.3678 105.503H68.1678L67.1178 113.003H63.3678L65.8178 95.5031H69.5678L68.6928 101.753H74.8928L75.7678 95.5031ZM80.2795 113.003L82.017 100.503H85.767L85.667 101.291C86.1337 100.932 86.6462 100.653 87.2045 100.453C87.7712 100.253 88.3503 100.153 88.942 100.153C89.392 100.153 89.842 100.22 90.292 100.353L88.2795 104.153C88.0128 104.02 87.7212 103.953 87.4045 103.953C87.0128 103.953 86.642 104.049 86.292 104.241C85.9503 104.424 85.6628 104.678 85.4295 105.003C85.2045 105.32 85.0628 105.674 85.0045 106.066L84.0295 113.003H80.2795ZM93.5266 113.228C92.9016 113.17 92.3141 113.032 91.7641 112.816C91.2141 112.599 90.7349 112.303 90.3266 111.928C89.9182 111.553 89.6182 111.095 89.4266 110.553L92.7641 109.203C92.8391 109.295 92.9391 109.411 93.0641 109.553C93.1974 109.686 93.3724 109.807 93.5891 109.916C93.8057 110.024 94.0766 110.078 94.4016 110.078C94.6182 110.078 94.8307 110.057 95.0391 110.016C95.2474 109.966 95.4224 109.882 95.5641 109.766C95.7141 109.649 95.8057 109.486 95.8391 109.278C95.8724 109.045 95.8099 108.87 95.6516 108.753C95.4932 108.628 95.2974 108.541 95.0641 108.491C94.8391 108.432 94.6224 108.386 94.4141 108.353C93.6891 108.236 93.0099 108.003 92.3766 107.653C91.7516 107.295 91.2599 106.832 90.9016 106.266C90.5516 105.691 90.4307 105.02 90.5391 104.253C90.6641 103.395 90.9891 102.653 91.5141 102.028C92.0391 101.403 92.6807 100.924 93.4391 100.591C94.2057 100.249 95.0016 100.078 95.8266 100.078C96.8016 100.078 97.6724 100.278 98.4391 100.678C99.2141 101.078 99.8182 101.653 100.252 102.403L97.0516 104.153C96.9682 104.028 96.8599 103.903 96.7266 103.778C96.6016 103.645 96.4516 103.532 96.2766 103.441C96.1099 103.341 95.9182 103.278 95.7016 103.253C95.4182 103.228 95.1557 103.241 94.9141 103.291C94.6807 103.332 94.4891 103.424 94.3391 103.566C94.1891 103.699 94.0932 103.895 94.0516 104.153C94.0182 104.395 94.1099 104.57 94.3266 104.678C94.5432 104.786 94.7932 104.866 95.0766 104.916C95.3682 104.966 95.6016 105.02 95.7766 105.078C96.4599 105.311 97.0891 105.616 97.6641 105.991C98.2474 106.366 98.6932 106.82 99.0016 107.353C99.3182 107.886 99.4141 108.511 99.2891 109.228C99.1724 110.061 98.8182 110.795 98.2266 111.428C97.6432 112.061 96.9307 112.541 96.0891 112.866C95.2557 113.191 94.4016 113.311 93.5266 113.228Z" fill="#0196CE"/>
</svg>
