<svg width="317" height="317" viewBox="0 0 317 317" fill="none" xmlns="http://www.w3.org/2000/svg">
<path d="M317 0H0V317H317V0Z" fill="white"/>
<path fill-rule="evenodd" clip-rule="evenodd" d="M218.029 304.32C259.721 304.32 293.727 300.595 293.727 296.022C293.727 291.449 259.721 287.724 218.029 287.724C176.33 287.724 142.324 291.449 142.324 296.022C142.324 300.595 176.33 304.32 218.029 304.32Z" fill="#DFE6FF"/>
<path fill-rule="evenodd" clip-rule="evenodd" d="M82.5672 296.022C110.509 296.022 133.3 292.297 133.3 287.724C133.3 283.151 110.509 279.426 82.5672 279.426C54.6205 279.426 31.8301 283.151 31.8301 287.724C31.8299 292.297 54.6205 296.022 82.5672 296.022Z" fill="#DFE6FF"/>
<path opacity="0.5" fill-rule="evenodd" clip-rule="evenodd" d="M192.489 254.455C195.922 257.391 211.679 279.517 268.697 246.947C291.081 234.155 304.003 214.854 294.168 191.919C280.727 160.587 272.367 155.275 281.158 124.861C286.267 107.185 311.866 37.4476 229.221 37.4493C191.281 37.4501 186.308 73.5889 117.3 44.9486C2.55893 -2.67684 -11.7796 257.965 77.2183 257.963C113.932 257.962 136.475 253.943 179.405 251.651C181.857 251.52 187.299 251.263 189.778 252.914L192.489 254.455Z" fill="#C7E9F4"/>
<path fill-rule="evenodd" clip-rule="evenodd" d="M67.9159 44.6435C66.1658 45.9363 63.3698 46.1832 60.7121 45.072C58.0469 43.9609 56.2605 41.804 55.9482 39.6473C57.6984 38.3546 60.4871 38.1076 63.1521 39.2189C65.8171 40.33 67.6035 42.4868 67.9159 44.6435Z" fill="#0196CE"/>
<path fill-rule="evenodd" clip-rule="evenodd" d="M76.4409 59.6614C78.6049 59.4145 80.8126 57.6862 82.0036 55.0646C83.1946 52.4357 83.0348 49.6326 81.7858 47.8462C79.6217 48.0931 77.4141 49.8141 76.2231 52.443C75.0321 55.0717 75.1992 57.8677 76.4409 59.6614Z" fill="#0196CE"/>
<path fill-rule="evenodd" clip-rule="evenodd" d="M43.8202 34.2662H193.127C194.92 34.2662 196.387 35.7332 196.387 37.5269V185.396C196.387 187.189 194.92 188.656 193.127 188.656H43.8202C42.0265 188.656 40.5596 187.189 40.5596 185.396V37.5269C40.5596 35.7332 42.0265 34.2662 43.8202 34.2662Z" fill="#9CE4FF"/>
<path fill-rule="evenodd" clip-rule="evenodd" d="M196.387 53.4596H40.5596V37.5269C40.5596 35.7332 42.0265 34.2662 43.8202 34.2662H193.127C194.92 34.2662 196.387 35.7332 196.387 37.5269V53.4596Z" fill="#0196CE"/>
<path fill-rule="evenodd" clip-rule="evenodd" d="M50.0433 46.5464C51.5175 46.5464 52.7229 45.341 52.7229 43.8595C52.7229 42.3853 51.5175 41.1726 50.0433 41.1726C48.5618 41.1726 47.3564 42.3853 47.3564 43.8595C47.3563 45.3408 48.5618 46.5464 50.0433 46.5464Z" fill="#EA718B"/>
<path fill-rule="evenodd" clip-rule="evenodd" d="M60.3412 46.5464C61.8154 46.5464 63.0208 45.341 63.0208 43.8595C63.0208 42.3853 61.8154 41.1726 60.3412 41.1726C58.8599 41.1726 57.6543 42.3853 57.6543 43.8595C57.6543 45.3408 58.8599 46.5464 60.3412 46.5464Z" fill="#FEB542"/>
<path fill-rule="evenodd" clip-rule="evenodd" d="M71.2338 46.5464C72.7153 46.5464 73.9207 45.341 73.9207 43.8595C73.9207 42.3853 72.7153 41.1726 71.2338 41.1726C69.7524 41.1726 68.5469 42.3853 68.5469 43.8595C68.547 45.3408 69.7524 46.5464 71.2338 46.5464Z" fill="white"/>
<path fill-rule="evenodd" clip-rule="evenodd" d="M61.7481 86.463C69.2082 86.463 75.2897 80.3734 75.2897 72.9131C75.2897 65.453 69.2084 59.3633 61.7481 59.3633C54.2797 59.3633 48.1982 65.4528 48.1982 72.9131C48.1982 80.3734 54.2796 86.463 61.7481 86.463Z" fill="white"/>
<path fill-rule="evenodd" clip-rule="evenodd" d="M64.1119 75.0552C67.723 75.9498 70.5379 78.8386 71.3341 82.4825C68.8802 84.9447 65.4906 86.4629 61.7483 86.4629C57.9977 86.4629 54.6082 84.9447 52.1543 82.4825C52.9504 78.8386 55.7654 75.9498 59.3765 75.0552C57.9321 74.2262 56.9554 72.6752 56.9554 70.886C56.9554 68.2433 59.0974 66.0931 61.7483 66.0931C64.391 66.0931 66.5412 68.2433 66.5412 70.886C66.5412 72.6752 65.5645 74.2262 64.1119 75.0552Z" fill="#0196CE"/>
<path fill-rule="evenodd" clip-rule="evenodd" d="M118.473 136.813C135.103 136.813 148.688 123.306 148.688 106.599C148.688 89.9689 135.103 76.4622 118.473 76.4622C101.844 76.4622 88.2588 89.9689 88.2588 106.599C88.2588 123.306 101.844 136.813 118.473 136.813Z" fill="#DB3A55"/>
<path d="M146.971 97.2992C146.687 97.2992 146.421 97.1241 146.319 96.8422C144.473 91.7664 141.332 87.2791 137.236 83.8657C136.942 83.6203 136.902 83.1827 137.147 82.8884C137.392 82.5941 137.83 82.5544 138.124 82.7995C142.409 86.37 145.693 91.0619 147.623 96.3679C147.754 96.7281 147.568 97.1261 147.208 97.2572C147.13 97.2857 147.05 97.2992 146.971 97.2992Z" fill="white"/>
<path d="M118.474 137.507C110.208 137.507 102.443 134.295 96.6104 128.462C90.7778 122.629 87.5654 114.865 87.5654 106.599C87.5654 89.5986 101.431 75.7682 118.474 75.7682C123.698 75.7682 128.669 77.0311 133.249 79.5219C133.586 79.7052 133.71 80.1263 133.527 80.4631C133.344 80.7996 132.923 80.9242 132.586 80.7411C128.212 78.3622 123.464 77.156 118.474 77.156C102.196 77.156 88.9533 90.364 88.9533 106.599C88.9533 122.876 102.196 136.119 118.474 136.119C134.752 136.119 147.995 122.876 147.995 106.599C147.995 104.356 147.739 102.234 147.236 100.292C147.14 99.9215 147.363 99.5429 147.734 99.4467C148.104 99.35 148.483 99.5733 148.579 99.9444C149.112 102 149.382 104.238 149.382 106.599C149.382 123.642 135.517 137.507 118.474 137.507Z" fill="white"/>
<path fill-rule="evenodd" clip-rule="evenodd" d="M170.032 170.645H66.9148C62.4596 170.645 58.8477 167.033 58.8477 162.578V157.237C58.8477 152.782 62.4594 149.17 66.9148 149.17H170.032C174.488 149.17 178.099 152.782 178.099 157.237V162.578C178.099 167.033 174.488 170.645 170.032 170.645Z" fill="#DB3A55"/>
<path d="M82.6134 167.541L80.4342 163.288H80.3052H78.0292V167.541H75.4141V152.274H80.3052C81.306 152.274 82.175 152.5 82.9122 152.95C83.6492 153.401 84.217 154.041 84.6153 154.869C85.0133 155.698 85.2125 156.68 85.2125 157.814C85.2125 158.948 85.0108 159.926 84.6072 160.747C84.2037 161.569 83.6305 162.198 82.8881 162.634L85.4224 167.541L82.6134 167.541ZM81.9517 155.84C81.5425 155.382 80.9452 155.153 80.1599 155.153H78.0292V160.475H80.1599C80.9454 160.475 81.5426 160.242 81.9517 159.777C82.3606 159.312 82.5651 158.657 82.5651 157.814C82.5651 156.956 82.3606 156.298 81.9517 155.84Z" fill="white"/>
<path d="M96.0275 164.706V167.541H87.2783V152.274H95.8177V155.109H89.8772V158.425H95.1236V161.173H89.8772V164.706H96.0275V164.706Z" fill="white"/>
<path d="M98.0856 167.225C97.4451 166.84 96.9205 166.291 96.5117 165.578L97.9647 163.223C98.5781 164.343 99.2775 164.902 100.063 164.902C101.129 164.902 101.661 164.059 101.661 162.372V155.109H97.6902V152.274H104.26V162.176C104.26 164.051 103.916 165.458 103.227 166.396C102.538 167.334 101.527 167.803 100.192 167.803C99.428 167.803 98.7258 167.61 98.0856 167.225Z" fill="white"/>
<path d="M115.592 164.706V167.541H106.843V152.274H115.382V155.109H109.442V158.425H114.688V161.173H109.442V164.706H115.592V164.706Z" fill="white"/>
<path d="M119.926 166.789C118.995 166.113 118.263 165.175 117.731 163.975C117.198 162.776 116.932 161.42 116.932 159.908C116.932 158.396 117.198 157.04 117.731 155.84C118.264 154.641 118.995 153.703 119.926 153.027C120.857 152.351 121.904 152.013 123.066 152.013C124.045 152.013 124.93 152.246 125.721 152.711C126.512 153.176 127.177 153.845 127.715 154.717L126.036 156.811C125.272 155.619 124.325 155.022 123.195 155.022C122.495 155.022 121.871 155.23 121.322 155.644C120.774 156.058 120.346 156.636 120.039 157.378C119.732 158.119 119.579 158.963 119.579 159.908C119.579 160.853 119.732 161.696 120.039 162.438C120.346 163.179 120.774 163.757 121.322 164.172C121.871 164.586 122.495 164.793 123.195 164.793C124.325 164.793 125.272 164.19 126.036 162.983L127.715 165.077C127.177 165.964 126.509 166.64 125.713 167.105C124.917 167.57 124.029 167.803 123.05 167.803C121.898 167.803 120.857 167.465 119.926 166.789Z" fill="white"/>
<path d="M131.703 155.153H128.087V152.274H137.934V155.153H134.318V167.541H131.703V155.153Z" fill="white"/>
<path d="M148.087 164.706V167.541H139.338V152.274H147.877V155.109H141.937V158.425H147.183V161.173H141.937V164.706H148.087V164.706Z" fill="white"/>
<path d="M150.169 152.274H155.302C156.529 152.274 157.613 152.59 158.555 153.223C159.497 153.855 160.228 154.746 160.75 155.895C161.272 157.043 161.533 158.381 161.533 159.908C161.533 161.434 161.272 162.772 160.75 163.92C160.228 165.069 159.497 165.96 158.555 166.592C157.613 167.225 156.529 167.541 155.302 167.541H150.169V152.274ZM155.173 164.64C156.303 164.64 157.204 164.215 157.877 163.364C158.549 162.514 158.886 161.362 158.886 159.908C158.886 158.454 158.549 157.301 157.877 156.451C157.204 155.6 156.303 155.175 155.173 155.175H152.784V164.64H155.173Z" fill="white"/>
<path d="M124.875 123.388L118.391 114.321L111.687 123.388H102.346L113.72 108.497L102.731 93.825H112.347L118.611 102.452L125.04 93.825H134.161L123.172 108.277L134.601 123.388H124.875Z" fill="white"/>
<path fill-rule="evenodd" clip-rule="evenodd" d="M250.235 283.339C249.452 284.359 248.692 285.38 247.909 286.377C246.841 289.772 241.879 293.974 244.751 296.585C248.146 297.559 255.506 297.44 259.47 295.968C260.895 293.238 257.761 288.087 256.431 284.597L250.235 283.339Z" fill="#153663"/>
<path fill-rule="evenodd" clip-rule="evenodd" d="M245.772 273.581L254.984 274.294C255.458 277.736 255.957 281.154 256.432 284.597C255.957 287.042 251.446 286.923 247.909 286.377L245.772 273.581Z" fill="#FFCDAD"/>
<path fill-rule="evenodd" clip-rule="evenodd" d="M219.231 278.899L213.771 285.428C209.141 294.734 194.874 288.561 200.998 298.034L224.026 297.321C225 292.051 223.457 290.508 222.365 285.428L219.231 278.899Z" fill="#153663"/>
<path fill-rule="evenodd" clip-rule="evenodd" d="M222.365 272.394L213.438 275.006C213.51 278.472 213.605 281.938 213.7 285.428C216.572 285.428 217.261 289.891 222.365 285.428V272.394Z" fill="#FFCDAD"/>
<path fill-rule="evenodd" clip-rule="evenodd" d="M241.096 188.213L247.173 187.785L256.456 280.632L246.295 281.724L231.719 208.653L223.481 281.985L212.038 281.439L215.646 187.572L241.096 188.213Z" fill="#153663"/>
<path fill-rule="evenodd" clip-rule="evenodd" d="M206.625 114.096L212.109 118.678L215.48 115.188C217.617 115.378 220.727 116.565 221.89 115.782C223.813 114.096 218.732 114.262 218.4 112.411C219.967 109.538 223.884 109.182 225.831 106.974C229.558 101.538 222.65 101.016 218.353 102.915C215.813 103.746 213.439 106.784 211.373 110.013L206.625 114.096Z" fill="#FFCDAD"/>
<path fill-rule="evenodd" clip-rule="evenodd" d="M221.202 139.735L215.931 136.792L195.016 140.519L215.979 118.084L208.572 111.461L185.853 133.848C176.594 141.611 177.401 148.733 185.853 152.959L224.881 160.864L221.202 139.735Z" fill="#0196CE"/>
<path fill-rule="evenodd" clip-rule="evenodd" d="M255.387 113.147L249.689 117.443L246.484 113.811C244.348 113.906 241.19 114.927 240.075 114.096C238.199 112.316 243.279 112.719 243.707 110.891C242.282 107.947 238.389 107.425 236.537 105.099C233.071 99.496 239.98 99.3299 244.205 101.395C246.698 102.345 248.906 105.502 250.829 108.826L255.387 113.147Z" fill="#FFCDAD"/>
<path fill-rule="evenodd" clip-rule="evenodd" d="M241.38 137.314L246.65 134.37L267.565 138.121L246.65 117.277L253.511 109.894L276.729 131.45C285.988 139.189 285.18 146.335 276.729 150.561L237.677 158.466L241.38 137.314Z" fill="#0196CE"/>
<path fill-rule="evenodd" clip-rule="evenodd" d="M238.081 132.542C234.876 132.495 231.695 132.424 228.49 132.376C222.127 134.584 221.581 134.892 214.341 137.076L215.813 187.714C224.407 194.622 241.357 194.266 247.339 188.094L252.989 137.907C249.808 134.062 243.565 133.349 238.081 132.542Z" fill="#0196CE"/>
<path fill-rule="evenodd" clip-rule="evenodd" d="M239.505 113.835L227.753 125.705C227.587 127.865 227.421 130.026 227.279 132.186C226.827 139.355 234.638 134.489 237.866 133.421L239.505 113.835Z" fill="#F9BC9B"/>
<path fill-rule="evenodd" clip-rule="evenodd" d="M243.469 109.467L222.032 105.146C221.534 112.933 213.106 130.501 228.418 129.361C239.695 128.673 241.404 117.847 243.469 109.467Z" fill="#FFCDAD"/>
<path fill-rule="evenodd" clip-rule="evenodd" d="M238.722 111.224C233.808 107.069 223.647 112.411 221.202 110.013C218.923 106.927 207.979 108.707 210.044 105.027C211.943 102.63 214.507 102.511 216.739 101.253C216.003 99.8045 214.246 98.7838 212.252 98.0953C217.807 94.1545 221.819 96.6708 225.974 99.401C234.663 96.3148 240.336 97.9292 244.8 102.416C248.978 106.475 244.135 113.313 242.829 118.156C243.399 119.39 245.274 118.322 246.343 118.963C245.868 120.126 245.108 120.696 244.301 121.052C244.301 122.286 245.203 121.764 245.797 122.761C243.66 123.996 240.526 123.996 238.793 123.45C239.672 118.749 240.764 113.906 238.722 111.224Z" fill="#060352"/>
<path d="M223.148 121.076C221.676 120.316 220.964 123.236 221.724 124.494C222.127 125.112 224.382 126.631 225.427 125.943C226.875 124.945 230.436 128.127 231.386 126.489C231.765 125.871 232.976 125.42 232.501 123.426C232.193 122.192 229.558 121.076 228.086 121.361C227.35 121.503 223.385 121.218 223.148 121.076Z" fill="white"/>
<path fill-rule="evenodd" clip-rule="evenodd" d="M81.5425 271.091C82.8149 266.655 88.6341 265.295 90.9886 262.583C92.2332 260.809 87.9375 259.977 88.7687 259.369C90.5986 258.175 96.0831 260.117 98.4099 258.315C101.707 255.988 91.7177 254.59 94.8757 251.376C96.125 249.965 103.537 254.962 106.806 252.496C109.05 250.81 103.583 248.901 103.95 247.954C104.368 246.625 114.177 250.448 116.364 246.625C117.112 243.05 111.404 245.102 110.935 243.412C110.74 241.805 119.824 242.218 117.859 235.763C115.226 230.473 105.116 242.246 103.231 241.196C101.183 239.339 108.799 235.572 102.65 233.965C96.3061 233.329 97.7458 243.635 95.9159 243.412C93.617 243.713 94.6435 238.284 91.1511 240.086C88.0209 241.61 92.1217 247.981 89.1587 249.259C86.9992 249.449 89.7671 243.662 85.6663 243.964C81.4867 244.466 85.5828 254.13 82.6198 255.38C81.2637 256.239 81.705 249.644 79.0764 250.944C76.2202 252.774 77.5949 260.256 76.8564 264.909C78.5934 267.199 79.8103 268.801 81.5425 271.091Z" fill="#65B646"/>
<path fill-rule="evenodd" clip-rule="evenodd" d="M83.6651 270.324C81.9235 266.052 85.6574 261.389 85.8292 257.799C85.7132 255.635 81.826 257.637 82.1 256.643C82.8012 254.576 88.3139 252.709 89.029 249.853C90.1808 245.989 81.4684 251.065 81.9607 246.583C82.0675 244.703 90.9843 244.052 92.0291 240.096C92.749 237.379 87.2735 239.26 86.9809 238.284C86.484 236.984 96.5571 233.928 95.9162 229.567C94.2953 226.298 91.0724 231.434 89.6605 230.399C88.5134 229.256 95.9114 223.967 90.3756 220.107C85.0396 217.576 84.3661 233.078 82.2344 233.417C79.4759 233.227 83.1353 225.555 77.307 228.095C71.9291 231.513 79.4293 238.726 77.8549 239.682C76.2389 241.34 73.6845 236.441 72.0545 240.012C70.5359 243.147 77.6971 245.618 76.1552 248.455C74.5762 249.941 73.1736 243.676 70.141 246.454C67.1595 249.43 76.3595 254.497 74.7992 257.307C74.2651 258.821 70.5359 253.364 69.2726 256.016C68.158 259.215 73.8656 264.245 76.1599 268.36C78.9421 269.089 80.8832 269.595 83.6651 270.324Z" fill="#65B646"/>
<path fill-rule="evenodd" clip-rule="evenodd" d="M75.2826 271.852C75.1339 267.241 69.8258 264.5 68.205 261.296C67.4294 259.271 71.7948 259.513 71.1401 258.719C69.654 257.116 63.8627 257.66 62.0469 255.342C59.4184 252.282 69.4451 253.369 67.1647 249.481C66.3009 247.805 57.895 250.842 55.3268 247.652C53.5621 245.469 59.3301 244.953 59.2047 243.946C59.1258 242.552 48.6811 243.867 47.4922 239.627C47.6409 235.976 52.6704 239.357 53.5434 237.834C54.124 236.325 45.2073 234.509 48.6903 228.727C52.5357 224.241 59.4692 238.127 61.5499 237.565C63.9927 236.264 57.5233 230.752 63.8812 230.696C70.188 231.625 66.273 241.271 68.1027 241.498C70.2575 242.358 70.5874 236.84 73.5363 239.441C76.1973 241.679 70.6662 246.858 73.2297 248.818C75.2779 249.533 74.0053 243.245 77.9064 244.54C81.8401 246.045 75.5055 254.418 78.0782 256.35C79.1836 257.516 80.3632 251.014 82.5971 252.918C84.9191 255.389 81.7564 262.309 81.3384 266.999C79.0955 268.796 77.5257 270.055 75.2826 271.852Z" fill="#65B646"/>
<path fill-rule="evenodd" clip-rule="evenodd" d="M95.0251 249.389C87.887 255.152 82.2027 261.459 78.6035 267.213L81.5432 271.091C82.8157 266.655 88.6348 265.295 90.9893 262.583C92.2339 260.809 87.9382 259.977 88.7694 259.369C90.5993 258.175 96.0838 260.117 98.4106 258.315C101.708 255.988 91.7184 254.59 94.8764 251.376C96.1257 249.965 103.538 254.962 106.807 252.496C109.05 250.81 103.584 248.901 103.951 247.954C104.369 246.626 114.177 250.448 116.365 246.626C117.112 243.05 111.405 245.102 110.936 243.412C110.745 241.856 119.225 242.195 118.018 236.39C111.187 238.475 102.967 242.975 95.0251 249.389Z" fill="#97CB69"/>
<path fill-rule="evenodd" clip-rule="evenodd" d="M80.8462 244.93C78.7981 253.875 78.2316 262.346 78.9561 269.094L83.6653 270.324C81.9237 266.052 85.6577 261.389 85.8295 257.799C85.7135 255.635 81.8263 257.637 82.1003 256.643C82.8015 254.576 88.3141 252.709 89.0293 249.853C90.1811 245.989 81.4687 251.065 81.961 246.584C82.0678 244.703 90.9845 244.053 92.0294 240.096C92.7493 237.379 87.2737 239.26 86.9811 238.285C86.4842 236.984 96.5574 233.928 95.9164 229.568C94.2956 226.298 91.0727 231.435 89.6607 230.399C88.5508 229.294 95.4241 224.315 90.8913 220.502C86.8047 226.363 83.1264 234.983 80.8462 244.93Z" fill="#97CB69"/>
<path fill-rule="evenodd" clip-rule="evenodd" d="M67.5084 247.512C73.0256 254.845 76.9963 262.35 79.0816 268.806L75.2826 271.852C75.134 267.241 69.8258 264.5 68.205 261.296C67.4294 259.271 71.7948 259.513 71.1401 258.719C69.654 257.116 63.8627 257.66 62.0469 255.342C59.4184 252.282 69.4451 253.369 67.1647 249.481C66.3009 247.805 57.895 250.842 55.3268 247.652C53.5621 245.469 59.3301 244.953 59.2047 243.946C59.1258 242.552 48.6811 243.867 47.4922 239.627C47.6409 235.976 52.6704 239.357 53.5434 237.834C54.1007 236.376 45.797 234.63 48.3838 229.298C54.5049 232.986 61.3735 239.357 67.5084 247.512Z" fill="#97CB69"/>
<path fill-rule="evenodd" clip-rule="evenodd" d="M87.4087 289.825L94.203 267.236H79.9037H65.6045L72.3988 289.825H80.3542H87.4087Z" fill="url(#paint0_linear_3601_1364)"/>
<path fill-rule="evenodd" clip-rule="evenodd" d="M65.3949 265.309H94.4114C94.8991 265.309 95.2983 265.708 95.2983 266.196V267.241C95.2983 267.733 94.8989 268.128 94.4114 268.128H65.3949C64.9026 268.128 64.5078 267.733 64.5078 267.241V266.196C64.508 265.708 64.9026 265.309 65.3949 265.309Z" fill="url(#paint1_linear_3601_1364)"/>
<defs>
<linearGradient id="paint0_linear_3601_1364" x1="65.6045" y1="278.531" x2="94.203" y2="278.531" gradientUnits="userSpaceOnUse">
<stop stop-color="#0643A3"/>
<stop offset="1" stop-color="#2C7EFE"/>
</linearGradient>
<linearGradient id="paint1_linear_3601_1364" x1="64.508" y1="266.718" x2="95.2985" y2="266.718" gradientUnits="userSpaceOnUse">
<stop stop-color="#2C7EFE"/>
<stop offset="1" stop-color="#84B2FE"/>
</linearGradient>
</defs>
</svg>
