<svg width="154" height="154" viewBox="0 0 154 154" fill="none" xmlns="http://www.w3.org/2000/svg">
<path d="M143.121 112.868C147.966 103.049 150.692 91.9975 150.692 80.308C150.692 39.609 117.699 6.61599 77.0001 6.61599C36.3011 6.61599 3.30811 39.609 3.30811 80.308C3.30811 91.9975 6.03439 103.049 10.8788 112.868H143.121Z" fill="#0196CE"/>
<path d="M76.9922 0C61.421 0 48.6812 12.7399 48.6812 28.311V41.506H105.303V28.311C105.303 12.7399 92.5633 0 76.9922 0Z" fill="#56415E"/>
<path d="M48.6812 28.311V41.506H72.5211C75.0308 32.953 76.8767 22.6672 73.461 17.408C66.9807 7.4299 76.9922 0 76.9922 0C61.421 0 48.6812 12.7399 48.6812 28.311Z" fill="#45304C"/>
<path d="M66.2796 100.391C73.0475 103.84 81.0594 103.786 87.7205 100.391C92.45 97.9813 97.8996 94.7284 102.783 89.5721C100.816 88.9152 98.8052 88.3461 96.7361 87.8687C93.6826 84.8152 92.9084 79.0261 92.7691 74.9757C91.1756 76.8319 89.5032 78.3845 87.9052 79.6255C84.7915 82.0432 80.9493 83.3567 76.9922 83.3567C73.0352 83.3567 69.193 82.0435 66.0793 79.6255C64.4813 78.3845 62.8086 76.8319 61.2151 74.9757C61.0755 79.0261 60.3016 84.8152 57.2478 87.8687C55.1829 88.3452 53.1767 88.913 51.2129 89.5681C56.0979 94.7268 61.5489 97.9807 66.2796 100.391Z" fill="#FFAA7B"/>
<path d="M69.431 95.2192C73.9142 92.1627 75.071 86.5197 75.3555 83.2788C71.9847 82.9687 68.7615 81.7081 66.0797 79.6252C64.4817 78.3842 62.809 76.8316 61.2155 74.9757C61.1177 77.8169 60.7039 81.5108 59.4138 84.5186C62.1368 91.0654 65.9053 97.6228 69.431 95.2192Z" fill="#FC9460"/>
<path d="M82.2037 97.2715L78.551 103.02L85.1769 101.242L82.2037 97.2715Z" fill="#D3DCFB"/>
<path d="M71.7809 97.2715L75.4333 103.02L68.8074 101.242L71.7809 97.2715Z" fill="#D3DCFB"/>
<path d="M106.847 40.3041C105.612 39.1731 102.853 39.7464 101.79 40.4388C102.023 41.8889 102.036 43.3724 101.835 44.8372L100.581 53.9725C100.581 54.7088 100.558 55.4313 100.515 56.1411C103.574 57.0636 105.394 54.3178 105.65 52.4334C105.76 51.6222 105.94 50.8227 106.19 50.0425C107.004 47.5021 109.939 43.1377 106.847 40.3041Z" fill="#FFAA7B"/>
<path d="M47.1378 40.3041C48.3719 39.1731 51.131 39.7464 52.194 40.4388C51.9612 41.8889 51.9479 43.3724 52.1491 44.8372L53.4034 53.9725C53.4034 54.7088 53.4266 55.4313 53.4693 56.1411C50.4106 57.0636 48.5906 54.3178 48.3346 52.4334C48.2246 51.6222 48.0444 50.8227 47.7944 50.0425C46.9808 47.5021 44.0458 43.1377 47.1378 40.3041Z" fill="#FC9460"/>
<path d="M101.337 37.6166C101.054 36.88 100.698 36.1341 100.25 35.4305C99.4905 34.2388 99.1563 32.8294 99.258 31.4241C99.5509 27.3822 99.3939 19.4768 94.0876 17.0892C89.5794 15.0607 84.0499 16.2353 80.5235 17.4077C78.2334 18.1693 75.7513 18.1693 73.4612 17.4077C73.2786 17.347 73.0894 17.2865 72.8963 17.226C68.6009 20.2047 68.4935 27.387 68.7717 31.1736C68.8758 32.5893 68.5272 34.0057 67.762 35.2061C67.321 35.8979 66.9682 36.6303 66.6861 37.3552C65.7708 39.7067 65.504 42.2568 65.8469 44.7538L67.1207 54.0302C67.1207 67.3663 74.2399 76.4309 80.2952 81.1333C81.3149 81.925 82.4148 82.5924 83.5674 83.1438C85.1141 82.5305 86.5765 81.7018 87.9053 80.6698C93.8701 76.0381 100.883 67.1091 100.883 53.9728L102.137 44.8375C102.471 42.402 102.217 39.9146 101.337 37.6166Z" fill="#FFC7AB"/>
<path d="M80.3527 80.6695C74.3879 76.0378 67.3758 67.1088 67.3758 53.9725L66.1212 44.8351C65.7834 42.3756 66.0463 39.8634 66.948 37.5474C67.226 36.8334 67.5734 36.1121 68.008 35.4305C68.7618 34.2479 69.1049 32.8528 69.0024 31.4584C68.7187 27.5982 68.8409 20.1544 73.5231 17.4267C73.5027 17.42 73.4819 17.4143 73.4615 17.4074C69.9348 16.235 64.4052 15.0604 59.8974 17.0889C54.576 19.4834 54.4334 27.427 54.7297 31.4584C54.832 32.8528 54.4888 34.2479 53.735 35.4305C53.3007 36.1121 52.9533 36.8334 52.6754 37.5474C51.7736 39.8634 51.511 42.3756 51.8485 44.8351L53.1031 53.9725C53.1031 67.1088 60.1155 76.0375 66.08 80.6695C69.1934 83.0872 73.0356 84.4004 76.9926 84.4004C79.4663 84.4004 81.8951 83.8873 84.129 82.9119C82.7893 82.3271 81.5197 81.5761 80.3527 80.6695Z" fill="#FFAA7B"/>
<path d="M100.712 57.467C99.7205 59.915 97.6586 62.8603 93.8796 64.4995C93.1821 60.3403 90.1812 56.1757 86.1748 55.2674L80.0512 53.4684C78.9867 53.1556 77.9207 53.7018 77.4921 54.6291C77.4139 54.7984 77.1772 54.7984 77.099 54.6291C76.6704 53.7018 75.6044 53.1559 74.54 53.4684L68.4164 55.2674C64.3309 56.1938 61.2891 60.5061 60.6709 64.7459C56.491 63.1695 54.3151 60.0429 53.2717 57.467V57.4682C53.2717 58.6331 53.3803 59.7974 53.5942 60.9425C56.1953 74.8846 64.3035 80.3047 70.4325 83.4283C74.5361 85.5196 79.4033 85.5211 83.5075 83.4316C89.6359 80.3116 97.7831 74.8906 100.389 60.9461C100.604 59.7992 100.712 58.6334 100.712 57.467ZM84.1147 73.2288C81.4847 74.1582 78.6147 72.5039 78.2778 69.7662C78.2736 69.7307 78.2694 69.6952 78.2654 69.6591C78.2101 69.1484 77.7827 68.7562 77.2626 68.7562C76.7423 68.7562 76.3149 69.1487 76.2595 69.6591C76.2556 69.6952 76.2514 69.7307 76.2472 69.7662C75.9103 72.5039 73.0403 74.1582 70.4102 73.2288C66.7915 71.9502 65.235 69.5286 64.5658 67.7531C66.5263 65.0713 69.4132 63.1469 72.7359 62.4136L73.8298 62.1721C75.424 61.8202 76.6569 60.2639 77.1089 58.6057C77.1607 58.4153 77.4314 58.4153 77.4834 58.6057C77.9355 60.2639 79.1681 61.8202 80.7625 62.1721L81.8565 62.4136C85.0002 63.1075 87.7548 64.8668 89.7033 67.3254C89.2993 69.1186 88.0345 71.8437 84.1147 73.2288Z" fill="#56415E"/>
<path d="M73.1312 73.3154C72.2727 73.5567 71.3277 73.553 70.4097 73.2285C66.791 71.9499 65.2345 69.5283 64.5652 67.7528C65.676 66.2335 67.0843 64.9582 68.7001 64.0038C64.1504 61.0204 66.9002 56.3529 67.4067 55.5732C63.8358 56.9219 61.2368 60.8631 60.6707 64.7453C56.4907 63.1692 54.3149 60.0423 53.2715 57.4664V57.4676C53.2715 58.6325 53.3801 59.7968 53.5939 60.9419C56.1951 74.884 64.3032 80.3041 70.4323 83.4277C73.4689 84.9752 76.9234 85.3753 80.1779 84.6335C71.6026 82.3154 72.7922 74.841 73.1312 73.3154Z" fill="#45304C"/>
<path d="M142.235 110.882C139.976 106.343 136.558 102.295 131.414 99.8681C130.382 99.3811 129.276 98.9639 128.1 98.6168L108.748 91.8769C106.447 90.8606 104.105 89.9715 101.696 89.2138C96.9976 94.2883 91.7087 97.4483 87.1338 99.7797C80.8376 102.988 73.2639 103.04 66.8666 99.7797C64.4212 98.5335 61.7716 97.0465 59.1175 95.1609C56.8785 96.7791 54.9842 99.3754 54.8642 103.545C53.6078 103.641 49.796 104.046 45.9286 105.575C39.7138 108.032 36.4287 112.231 36.4287 117.72V141.832C48.0641 149.522 62.0086 154 77.0002 154C106.01 154 131.1 137.235 143.122 112.868C142.849 112.197 142.558 111.532 142.235 110.882Z" fill="#49B1F7"/>
<path d="M36.8794 142.125C36.8794 136.469 36.8794 126.415 36.8794 117.72C36.8794 104.786 55.3086 103.968 55.3086 103.968C55.3086 99.6479 57.2257 97.0212 59.4882 95.4235C57.054 93.7276 54.608 91.7019 52.3044 89.2135C49.8948 89.9712 47.5529 90.8603 45.2519 91.8766L25.9003 98.6168C24.7245 98.9639 23.6186 99.3814 22.5863 99.8681C17.4417 102.295 14.0239 106.343 11.7654 110.882C11.4417 111.532 11.1515 112.197 10.8787 112.868C16.7677 124.804 25.7941 134.915 36.8794 142.125Z" fill="#1FA2EA"/>
<path d="M91.2654 97.2125C89.8493 98.0556 88.4615 98.8024 87.1338 99.4789C80.8376 102.688 73.2639 102.739 66.8666 99.4789C65.5341 98.7997 64.1409 98.0499 62.7197 97.2032V104.983C63.133 105.2 63.5433 105.413 63.9484 105.619C72.1886 109.818 81.9433 109.752 90.0529 105.619C90.4527 105.415 90.8575 105.205 91.2654 104.991V97.2125Z" fill="#73C3F9"/>
<path d="M118.748 124.395H37.4597C36.2403 124.395 35.252 125.384 35.252 126.603V141.036C36.6963 142.031 38.1783 142.975 39.6945 143.867H114.305C115.822 142.975 117.303 142.031 118.748 141.036V124.395H118.748Z" fill="#73C3F9"/>
<path d="M94.5011 80.8894C94.1549 80.6984 93.7245 80.8981 93.6454 81.2855C93.1307 83.8061 90.8977 91.7464 82.6055 96.459C81.7889 96.9231 81.5934 98.0126 82.2112 98.7203L90.5903 108.317C92.3301 110.321 95.5331 109.961 96.7888 107.623C98.9118 103.671 101.869 97.6549 104.058 91.1876C104.45 90.0295 104.172 88.7491 103.346 87.848C100.797 85.0679 97.8106 82.7163 94.5011 80.8894Z" fill="#DEEEFF"/>
<path d="M71.3791 96.459C69.347 95.304 67.6807 93.9547 66.3121 92.5396C64.3224 92.7444 55.4271 94.1683 54.8896 103.114C55.7105 104.8 56.4985 106.325 57.1957 107.623C58.4515 109.961 61.6548 110.321 63.3942 108.317L71.7734 98.7203C72.3912 98.0129 72.1957 96.9232 71.3791 96.459Z" fill="#DEEEFF"/>
<path d="M66.7251 92.9574L66.7254 92.9567C62.1851 88.5028 60.7401 83.2496 60.3392 81.2855C60.2601 80.8981 59.8297 80.6981 59.4838 80.8894C56.1743 82.7164 53.1878 85.0679 50.6393 87.848C49.8133 88.7491 49.5345 90.0295 49.9264 91.1876C51.52 95.8954 53.5196 100.359 55.3089 103.967C55.3098 93.4248 66.7251 92.9574 66.7251 92.9574Z" fill="#D3DCFB"/>
<path d="M123.802 23.3845C118.457 27.0375 114.411 32.6312 115.82 41.0404C119.511 63.0735 102.511 74.3143 129.079 86.1272C138.525 90.3273 144.475 95.2409 148.179 99.4419C149.817 93.3402 150.692 86.9264 150.692 80.3077C150.692 57.3809 140.221 36.9001 123.802 23.3845Z" fill="#0196CE"/>
<path d="M30.1986 23.3845C35.5437 27.0375 39.5889 32.6312 38.1804 41.0404C34.4898 63.0735 51.4893 74.3143 24.921 86.1272C15.475 90.3273 9.52555 95.2409 5.82083 99.4419C4.18338 93.3402 3.30811 86.9264 3.30811 80.3077C3.30811 57.3809 13.7789 36.9001 30.1986 23.3845Z" fill="#0196CE"/>
<path d="M130.86 130.596C129.384 124.635 125.695 121.182 122.706 119.292C120.825 118.103 118.374 119.441 118.374 121.666V141.293C122.927 138.198 127.115 134.607 130.86 130.596Z" fill="#1FA2EA"/>
</svg>
