<svg width="63" height="63" viewBox="0 0 63 63" fill="none" xmlns="http://www.w3.org/2000/svg">
<g clip-path="url(#clip0_500_494)">
<path d="M41.8809 20.1959C53.3842 20.0202 62.7732 29.0741 62.9959 40.5766C63.0286 42.2654 62.8598 43.9092 62.5121 45.4859C61.9232 48.1556 61.5731 50.8724 61.5731 53.6064V58.891C61.5731 59.7006 60.9168 60.3569 60.1071 60.3569H54.8225C52.0886 60.3569 49.3718 60.707 46.7021 61.2959C45.1255 61.6436 43.4817 61.8125 41.7929 61.7797C30.2905 61.5571 21.2366 52.1684 21.4121 40.6653C21.5832 29.4373 30.653 20.3674 41.8809 20.1959Z" fill="url(#paint0_linear_500_494)"/>
<path d="M41.8809 20.1959C53.3842 20.0202 62.7732 29.0741 62.9959 40.5766C63.0286 42.2654 62.8598 43.9092 62.5121 45.4859C61.9232 48.1556 61.5731 50.8724 61.5731 53.6064V58.891C61.5731 59.7006 60.9168 60.3569 60.1071 60.3569H54.8225C52.0886 60.3569 49.3718 60.707 46.7021 61.2959C45.1255 61.6436 43.4817 61.8125 41.7929 61.7797C30.2905 61.5571 21.2366 52.1684 21.4121 40.6653C21.5832 29.4373 30.653 20.3674 41.8809 20.1959Z" fill="url(#paint1_linear_500_494)"/>
<path d="M25.7289 1.21889C11.7146 1.00478 0.276284 12.0348 0.00484303 26.0481C-0.034901 28.1053 0.17071 30.1081 0.594483 32.0289C1.31184 35.2813 1.73832 38.5911 1.73832 41.9219V48.3599C1.73832 49.3462 2.53788 50.1459 3.52435 50.1459H9.96239C13.293 50.1459 16.6028 50.5724 19.8553 51.2898C21.7761 51.7134 23.7788 51.9191 25.836 51.8793C39.8491 51.608 50.8791 40.17 50.6655 26.156C50.4568 12.4773 39.4075 1.4277 25.7289 1.21889Z" fill="url(#paint2_linear_500_494)"/>
<path d="M16.2659 25.1921C15.5503 24.4316 14.5374 23.9541 13.4105 23.9541C11.2433 23.9541 9.48645 25.711 9.48645 27.8782C9.48645 29.0049 9.96387 30.0178 10.7244 30.7336L19.1893 39.1985C19.9051 39.9589 20.918 40.4364 22.0447 40.4364C24.2119 40.4364 25.9688 38.6796 25.9688 36.5124C25.9688 35.3856 25.4912 34.3727 24.7308 33.6569L16.2659 25.1921Z" fill="url(#paint3_linear_500_494)"/>
<path d="M13.4104 31.8023C15.5776 31.8023 17.3345 30.0454 17.3345 27.8782C17.3345 25.711 15.5776 23.9541 13.4104 23.9541C11.2432 23.9541 9.48633 25.711 9.48633 27.8782C9.48633 30.0454 11.2432 31.8023 13.4104 31.8023Z" fill="white"/>
<path d="M27.3635 25.1921C26.6478 24.4316 25.6349 23.9541 24.5081 23.9541C22.3408 23.9541 20.584 25.711 20.584 27.8782C20.584 29.0049 21.0614 30.0178 21.822 30.7336L30.2868 39.1985C31.0026 39.9589 32.0155 40.4364 33.1422 40.4364C35.3095 40.4364 37.0663 38.6796 37.0663 36.5124C37.0663 35.3856 36.5888 34.3727 35.8284 33.6569L27.3635 25.1921Z" fill="url(#paint4_linear_500_494)"/>
<path d="M24.5082 31.8023C26.6754 31.8023 28.4323 30.0454 28.4323 27.8782C28.4323 25.711 26.6754 23.9541 24.5082 23.9541C22.341 23.9541 20.5841 25.711 20.5841 27.8782C20.5841 30.0454 22.341 31.8023 24.5082 31.8023Z" fill="white"/>
<path d="M38.4609 25.1921C37.7453 24.4316 36.7323 23.9541 35.6055 23.9541C33.4383 23.9541 31.6814 25.711 31.6814 27.8782C31.6814 29.0049 32.1589 30.0178 32.9194 30.7336L41.3842 39.1985C42.1 39.9589 43.1129 40.4364 44.2397 40.4364C46.4069 40.4364 48.1637 38.6796 48.1637 36.5124C48.1637 35.3856 47.6862 34.3727 46.9258 33.6569L38.4609 25.1921Z" fill="url(#paint5_linear_500_494)"/>
<path d="M35.6061 31.8023C37.7733 31.8023 39.5302 30.0454 39.5302 27.8782C39.5302 25.711 37.7733 23.9541 35.6061 23.9541C33.4389 23.9541 31.682 25.711 31.682 27.8782C31.682 30.0454 33.4389 31.8023 35.6061 31.8023Z" fill="white"/>
</g>
<defs>
<linearGradient id="paint0_linear_500_494" x1="38.0069" y1="36.7921" x2="68.5377" y2="67.3229" gradientUnits="userSpaceOnUse">
<stop stop-color="#A7F3CE"/>
<stop offset="1" stop-color="#61DB99"/>
</linearGradient>
<linearGradient id="paint1_linear_500_494" x1="48.0011" y1="46.7857" x2="35.0333" y2="33.8191" gradientUnits="userSpaceOnUse">
<stop stop-color="#FCB704"/>
<stop offset="1" stop-color="#FCB704"/>
</linearGradient>
<linearGradient id="paint2_linear_500_494" x1="16.0784" y1="22.4543" x2="48.3127" y2="54.6885" gradientUnits="userSpaceOnUse">
<stop stop-color="#62E1FB"/>
<stop offset="1" stop-color="#00A2F3"/>
</linearGradient>
<linearGradient id="paint3_linear_500_494" x1="22.1397" y1="36.6081" x2="5.16788" y2="19.6368" gradientUnits="userSpaceOnUse">
<stop stop-color="#00A2F3" stop-opacity="0"/>
<stop offset="1" stop-color="#0075CD"/>
</linearGradient>
<linearGradient id="paint4_linear_500_494" x1="33.2365" y1="36.6077" x2="16.2652" y2="19.6364" gradientUnits="userSpaceOnUse">
<stop stop-color="#00A2F3" stop-opacity="0"/>
<stop offset="1" stop-color="#0075CD"/>
</linearGradient>
<linearGradient id="paint5_linear_500_494" x1="44.3339" y1="36.6079" x2="27.3626" y2="19.6366" gradientUnits="userSpaceOnUse">
<stop stop-color="#00A2F3" stop-opacity="0"/>
<stop offset="1" stop-color="#0075CD"/>
</linearGradient>
<clipPath id="clip0_500_494">
<rect width="63" height="63" fill="white"/>
</clipPath>
</defs>
</svg>
