<svg width="64" height="64" viewBox="0 0 64 64" fill="none" xmlns="http://www.w3.org/2000/svg">
<g clip-path="url(#clip0_500_535)">
<path d="M30.1975 38.2777C30.133 40.1435 28.6713 41.6559 26.7947 41.7941C25.0473 41.9217 23.2828 41.9878 21.5523 41.9878C19.8219 41.9878 18.0589 41.9216 16.3114 41.7941C14.4348 41.6559 12.9717 40.1434 12.9086 38.2777C12.6288 30.1105 12.6288 21.8372 12.9071 13.6883C12.9716 11.821 14.4333 10.3101 16.3099 10.1719C18.0574 10.0443 19.8217 9.97825 21.5523 9.97825C23.2829 9.97825 25.0473 10.0444 26.7964 10.1719C28.6715 10.3101 30.1345 11.821 30.1992 13.6883C30.2407 14.8933 30.2744 16.0998 30.3037 17.3094H37.3351C37.3058 16.0185 37.2689 14.732 37.2244 13.4471C37.0384 7.98477 32.7766 3.56153 27.3113 3.16038C25.3917 3.019 23.4551 2.94824 21.5524 2.94824C19.6512 2.94824 17.7132 3.019 15.7951 3.16038C10.3298 3.56153 6.06785 7.98477 5.88046 13.4471C5.59607 21.7556 5.59607 30.1904 5.88196 38.5174C6.06797 43.9812 10.3298 48.403 15.7951 48.8056C17.7132 48.947 19.6512 49.0178 21.5524 49.0178C23.4552 49.0178 25.3917 48.947 27.3113 48.8056C32.7751 48.403 37.0369 43.9812 37.2244 38.5174C37.2474 37.8304 37.2691 37.1419 37.2889 36.4518H30.2544C30.2375 37.0619 30.2192 37.6705 30.1975 38.2777Z" fill="#665E66"/>
<path d="M26.7962 10.1722C25.6421 10.0876 24.4801 10.0339 23.3259 10.0046C23.9192 9.98927 24.5125 9.97852 25.0995 9.97852C26.8301 9.97852 28.5945 10.0446 30.3419 10.1722C32.2185 10.3104 33.6801 11.8212 33.7447 13.6886C33.7862 14.8935 33.82 16.1001 33.8493 17.3097H30.3036C30.2743 16.1001 30.2406 14.8937 30.1991 13.6886C30.1344 11.8214 28.6728 10.3105 26.7962 10.1722Z" fill="#544F57"/>
<path d="M19.3412 48.8058C13.8767 48.4036 9.61494 43.981 9.42793 38.5183C9.14304 30.1915 9.14267 21.7565 9.42693 13.4478C9.61407 7.98477 13.8761 3.56228 19.3409 3.16075C20.6665 3.06337 22.0006 3.0015 23.3262 2.97112C22.733 2.95749 22.1413 2.94824 21.5533 2.94824C19.6515 2.94824 17.714 3.01975 15.7952 3.16075C10.3304 3.5624 6.06825 7.98477 5.88124 13.4478C5.59685 21.7564 5.59722 30.1914 5.88224 38.5183C6.06913 43.981 10.331 48.4036 15.7955 48.8058C17.7141 48.9469 19.6514 49.0185 21.5535 49.0185C22.1414 49.0185 22.7333 49.0093 23.3264 48.9956C22.0006 48.9651 20.6668 48.9033 19.3412 48.8058Z" fill="#544F57"/>
<path d="M21.5528 57.4744C16.8997 57.4744 12.2074 57.3394 7.52277 57.0716C4.15596 56.8792 1.46393 54.2005 1.25092 50.8349C0.832024 44.2165 0.831274 37.5756 1.24942 30.9686C1.46243 27.6033 4.15446 24.9246 7.52114 24.7324C12.2015 24.465 16.9 24.3301 21.5528 24.3301C26.2055 24.3301 30.904 24.4651 35.5844 24.7324C38.951 24.9246 41.6431 27.6033 41.8561 30.9686C42.2743 37.5756 42.2735 44.2165 41.8546 50.8349C41.6416 54.2005 38.9496 56.8791 35.5828 57.0716C30.8982 57.3394 26.2059 57.4744 21.5528 57.4744Z" fill="#F4DD45"/>
<path d="M9.11866 57.156C8.58613 57.1314 8.05347 57.1015 7.5227 57.0716C4.15676 56.88 1.46399 54.2013 1.25123 50.8353C0.832954 44.2158 0.831204 37.5753 1.24948 30.9682C1.46211 27.604 4.15489 24.9252 7.52095 24.7318C8.05347 24.702 8.58438 24.6721 9.11691 24.6475C7.13955 25.8075 5.7756 27.8974 5.62259 30.3248C5.17619 37.3608 5.17794 44.4319 5.62434 51.4786C5.77735 53.9061 7.1413 55.9959 9.11866 57.156Z" fill="#ECC32E"/>
<path d="M58.5222 60.7053C46.1312 61.1686 33.7404 61.1686 21.3495 60.7053C19.288 60.6282 17.5787 59.1 17.2429 57.0646C16.6616 53.541 16.6616 50.0176 17.2429 46.494C17.5787 44.4585 19.288 42.9303 21.3495 42.8533C33.7404 42.39 46.1312 42.39 58.5222 42.8533C60.5837 42.9304 62.293 44.4587 62.6288 46.4941C63.2099 50.0176 63.2099 53.5412 62.6288 57.0646C62.2931 59.1 60.5838 60.6282 58.5222 60.7053Z" fill="#F9F6F9"/>
<path d="M63.5536 46.3416C63.1467 43.8699 61.0453 42.0089 58.5571 41.9169C53.4274 41.7249 48.2678 41.6139 43.1031 41.5813C43.1196 38.0282 43.0161 34.4431 42.7918 30.9094C42.5496 27.0733 39.4741 24.0153 35.6378 23.7959C30.9397 23.5286 26.2008 23.3931 21.5525 23.3931C18.9385 23.3931 16.2954 23.4375 13.647 23.5226C13.6601 21.5137 13.6895 19.479 13.7369 17.4569C13.749 16.9393 13.3392 16.5098 12.8216 16.4976C12.2999 16.4844 11.8744 16.8953 11.8623 17.4129C11.814 19.4722 11.7843 21.5445 11.7714 23.5899C10.3358 23.6468 8.9001 23.7144 7.46827 23.7959C7.17851 23.8125 6.89362 23.8472 6.61335 23.8953C6.63373 20.4156 6.70086 16.9183 6.81861 13.4792C6.9885 8.4957 10.8768 4.4616 15.8634 4.09558C17.7462 3.95707 19.6603 3.88682 21.5524 3.88682C23.4454 3.88682 25.3599 3.95707 27.2429 4.09558C32.2293 4.46173 36.1176 8.49595 36.2876 13.4801C36.3205 14.4195 36.3496 15.3888 36.3745 16.3725H31.2186C31.1947 15.466 31.1671 14.5557 31.1362 13.656C31.0546 11.3111 29.2186 9.41137 26.8647 9.23711C25.1016 9.10861 23.3144 9.04335 21.5524 9.04335C19.7913 9.04335 18.0045 9.10848 16.2404 9.23711C13.8875 9.41125 12.0515 11.311 11.9699 13.6559C11.9519 14.1734 12.3568 14.6074 12.8742 14.6255C13.3912 14.6438 13.8259 14.2386 13.8439 13.7212C13.8921 12.3344 14.9819 11.2106 16.3778 11.1072C18.0956 10.982 19.8366 10.9185 21.5524 10.9185C23.269 10.9185 25.0105 10.982 26.7272 11.1071C28.124 11.2105 29.2138 12.3343 29.2621 13.7206C29.3031 14.9167 29.3383 16.1319 29.3668 17.3323C29.379 17.8412 29.795 18.2476 30.3041 18.2476H37.3345C37.5868 18.2476 37.8284 18.146 38.0048 17.9656C38.1812 17.7853 38.2775 17.5414 38.2718 17.2892C38.2425 15.9692 38.2053 14.6657 38.1616 13.4153C37.9588 7.47252 33.3239 2.662 27.3804 2.22548C25.4519 2.0836 23.4911 2.01172 21.5524 2.01172C19.6147 2.01172 17.6542 2.0836 15.726 2.22548C9.78227 2.66188 5.14727 7.47252 4.94463 13.4152C4.8195 17.0665 4.75025 20.7839 4.73437 24.4759C2.25686 25.6148 0.495141 28.0448 0.313131 30.9095C-0.105392 37.5313 -0.104517 44.255 0.315631 50.8939C0.557769 54.73 3.63331 57.788 7.46915 58.0074C10.5199 58.1824 13.6015 58.2993 16.6426 58.3603C17.4138 60.2424 19.2279 61.5647 21.3149 61.6431C27.4889 61.8737 33.7155 61.9894 39.9359 61.9894C44.3652 61.9894 48.7915 61.9307 53.1928 61.8136C53.7104 61.7999 54.1188 61.369 54.1051 60.8514C54.0912 60.3338 53.6545 59.9269 53.1429 59.9391C42.6001 60.22 31.915 60.1629 21.385 59.7695C19.7838 59.7093 18.4311 58.5078 18.1685 56.9123C17.6067 53.5065 17.6067 50.0527 18.1685 46.6467C18.4311 45.0513 19.7836 43.8503 21.3848 43.791C33.6945 43.3302 46.1773 43.3302 58.4872 43.791C60.088 43.8503 61.4406 45.0513 61.7032 46.6469C62.265 50.0527 62.265 53.5065 61.7032 56.9126C61.4406 58.5078 60.0879 59.7093 58.4871 59.7695C57.949 59.7895 57.411 59.8083 56.8729 59.8269C56.3553 59.8449 55.9504 60.279 55.9684 60.7964C55.9865 61.314 56.4213 61.7192 56.938 61.7009C57.4775 61.6821 58.017 61.6634 58.5569 61.6432C61.0452 61.5496 63.1464 59.6883 63.5532 57.2175C64.1488 53.6089 64.1488 49.9497 63.5536 46.3416ZM21.3153 41.9169C18.8268 42.009 16.7253 43.8699 16.3185 46.3414C15.764 49.7026 15.7266 53.1078 16.2051 56.4747C13.3415 56.4117 10.4457 56.2998 7.57653 56.1352C4.6865 55.9699 2.36962 53.6658 2.18711 50.7754C1.77196 44.215 1.77109 37.5709 2.18461 31.0279C2.36824 28.1374 4.68574 25.833 7.57503 25.6679C12.2378 25.4026 16.9405 25.2681 21.5525 25.2681C26.1654 25.2681 30.8684 25.4026 35.5311 25.6679C38.4211 25.8331 40.738 28.1373 40.9205 31.0278C41.1421 34.5196 41.2444 38.0622 41.228 41.573C34.576 41.5559 27.9208 41.6696 21.3153 41.9169Z" fill="black"/>
<path d="M28.7256 49.1746C28.4667 48.7261 27.8933 48.5725 27.4449 48.8314L25.1522 50.1551V47.5079C25.1522 46.9901 24.7325 46.5703 24.2147 46.5703C23.6969 46.5703 23.2771 46.9901 23.2771 47.5079V50.1553L20.9845 48.8316C20.536 48.5725 19.9626 48.7263 19.7038 49.1747C19.4449 49.6231 19.5986 50.1965 20.047 50.4554L22.3396 51.7791L20.047 53.1028C19.5986 53.3617 19.4449 53.9351 19.7038 54.3835C19.8775 54.6843 20.1926 54.8524 20.5166 54.8524C20.6756 54.8524 20.8369 54.8119 20.9845 54.7266L23.2771 53.4029V56.0503C23.2771 56.5681 23.6969 56.9879 24.2147 56.9879C24.7325 56.9879 25.1522 56.5681 25.1522 56.0503V53.4031L27.4449 54.7268C27.5925 54.812 27.7538 54.8525 27.9128 54.8525C28.2368 54.8525 28.5519 54.6843 28.7256 54.3836C28.9845 53.9352 28.8308 53.3618 28.3824 53.1029L26.0898 51.7792L28.3824 50.4555C28.8309 50.1965 28.9846 49.6231 28.7256 49.1746Z" fill="black"/>
<path d="M39.0426 49.1747C38.7838 48.7262 38.2102 48.5727 37.762 48.8316L35.4693 50.1553V47.5079C35.4693 46.9901 35.0496 46.5703 34.5318 46.5703C34.014 46.5703 33.5942 46.9901 33.5942 47.5079V50.1553L31.3016 48.8316C30.8532 48.5725 30.2798 48.7263 30.0209 49.1747C29.762 49.6231 29.9156 50.1965 30.364 50.4554L32.6567 51.7791L30.364 53.1028C29.9156 53.3617 29.762 53.9351 30.0209 54.3835C30.1945 54.6843 30.5097 54.8524 30.8337 54.8524C30.9927 54.8524 31.154 54.8119 31.3016 54.7266L33.5942 53.4029V56.0503C33.5942 56.5681 34.014 56.9879 34.5318 56.9879C35.0496 56.9879 35.4693 56.5681 35.4693 56.0503V53.4029L37.762 54.7266C37.9096 54.8119 38.0708 54.8524 38.2299 54.8524C38.5539 54.8524 38.869 54.6841 39.0426 54.3835C39.3015 53.9351 39.1479 53.3617 38.6995 53.1028L36.4069 51.7791L38.6995 50.4554C39.1479 50.1966 39.3015 49.6232 39.0426 49.1747Z" fill="black"/>
<path d="M49.3595 49.1747C49.1007 48.7262 48.5271 48.5727 48.0788 48.8316L45.7862 50.1553V47.5079C45.7862 46.9901 45.3664 46.5703 44.8487 46.5703C44.3309 46.5703 43.9111 46.9901 43.9111 47.5079V50.1553L41.6185 48.8316C41.1701 48.5725 40.5967 48.7263 40.3378 49.1747C40.0789 49.6231 40.2325 50.1965 40.6809 50.4554L42.9736 51.7791L40.6809 53.1028C40.2325 53.3617 40.0789 53.9351 40.3378 54.3835C40.5114 54.6843 40.8266 54.8524 41.1506 54.8524C41.3096 54.8524 41.4709 54.8119 41.6185 54.7266L43.9111 53.4029V56.0503C43.9111 56.5681 44.3309 56.9879 44.8487 56.9879C45.3664 56.9879 45.7862 56.5681 45.7862 56.0503V53.4029L48.0788 54.7266C48.2265 54.8119 48.3877 54.8524 48.5467 54.8524C48.8708 54.8524 49.1859 54.6841 49.3595 54.3835C49.6184 53.9351 49.4648 53.3617 49.0164 53.1028L46.7238 51.7791L49.0164 50.4554C49.4648 50.1966 49.6184 49.6232 49.3595 49.1747Z" fill="black"/>
<path d="M56.1032 53.4029L58.3958 54.7266C58.5434 54.8119 58.7047 54.8524 58.8637 54.8524C59.1877 54.8524 59.5029 54.6841 59.6765 54.3835C59.9354 53.9351 59.7818 53.3617 59.3334 53.1028L57.0406 51.779L59.3332 50.4553C59.7816 50.1964 59.9353 49.623 59.6764 49.1746C59.4175 48.7261 58.8441 48.5725 58.3957 48.8314L56.1031 50.1551V47.5079C56.1031 46.9901 55.6833 46.5703 55.1655 46.5703C54.6477 46.5703 54.228 46.9901 54.228 47.5079V50.1553L51.9353 48.8316C51.4869 48.5725 50.9135 48.7263 50.6546 49.1747C50.3957 49.6231 50.5494 50.1965 50.9978 50.4554L53.2904 51.7791L50.9978 53.1028C50.5494 53.3617 50.3957 53.9351 50.6546 54.3835C50.8283 54.6843 51.1434 54.8524 51.4674 54.8524C51.6264 54.8524 51.7877 54.8119 51.9353 54.7266L54.228 53.4029V56.0503C54.228 56.5681 54.6477 56.9879 55.1655 56.9879C55.6833 56.9879 56.1031 56.5681 56.1031 56.0503V53.4029H56.1032Z" fill="black"/>
<path d="M40.2627 19.1645C40.3922 19.2257 40.5286 19.2547 40.663 19.2547C41.0143 19.2547 41.3509 19.0564 41.5112 18.7178L43.3196 14.8945C43.541 14.4263 43.341 13.8674 42.873 13.646C42.4046 13.4244 41.8459 13.6245 41.6245 14.0927L39.8161 17.916C39.5947 18.384 39.7947 18.9431 40.2627 19.1645Z" fill="black"/>
<path d="M42.889 22.5689C42.4209 22.3472 41.8619 22.5474 41.6406 23.0155C41.4193 23.4836 41.6193 24.0425 42.0873 24.2638L45.9106 26.0722C46.0401 26.1334 46.1765 26.1625 46.3109 26.1625C46.6622 26.1625 46.9989 25.9641 47.1591 25.6255C47.3805 25.1575 47.1804 24.5986 46.7124 24.3772L42.889 22.5689Z" fill="black"/>
<path d="M41.7493 20.8044C41.8864 21.1876 42.2472 21.4265 42.6321 21.4265C42.7369 21.4265 42.8435 21.4087 42.9479 21.3715L46.9301 19.9466C47.4176 19.7721 47.6715 19.2356 47.497 18.7481C47.3226 18.2605 46.7858 18.0064 46.2984 18.1812L42.3162 19.606C41.8287 19.7803 41.5748 20.3169 41.7493 20.8044Z" fill="black"/>
</g>
<defs>
<clipPath id="clip0_500_535">
<rect width="64" height="64" fill="white"/>
</clipPath>
</defs>
</svg>
