<svg width="24" height="24" viewBox="0 0 24 24" fill="none" xmlns="http://www.w3.org/2000/svg">
<path d="M12 20.5H7C4 20.5 2 19 2 15.5V8.5C2 5 4 3.5 7 3.5H17C20 3.5 22 5 22 8.5V11.5" stroke="white" stroke-width="1.5" stroke-miterlimit="10" stroke-linecap="round" stroke-linejoin="round"/>
<path opacity="0.4" d="M17 9L13.87 11.5C12.84 12.32 11.15 12.32 10.12 11.5L7 9" stroke="white" stroke-width="1.5" stroke-miterlimit="10" stroke-linecap="round" stroke-linejoin="round"/>
<g opacity="0.4">
<path d="M19.21 14.7703L15.67 18.3103C15.53 18.4503 15.4 18.7103 15.37 18.9003L15.18 20.2503C15.11 20.7403 15.45 21.0803 15.94 21.0103L17.29 20.8203C17.48 20.7903 17.75 20.6603 17.88 20.5203L21.42 16.9803C22.03 16.3703 22.32 15.6603 21.42 14.7603C20.53 13.8703 19.82 14.1603 19.21 14.7703Z" stroke="white" stroke-width="1.5" stroke-miterlimit="10" stroke-linecap="round" stroke-linejoin="round"/>
<path d="M18.7 15.2803C19 16.3603 19.84 17.2003 20.92 17.5003" stroke="white" stroke-width="1.5" stroke-miterlimit="10" stroke-linecap="round" stroke-linejoin="round"/>
</g>
</svg>
