<svg width="60" height="60" viewBox="0 0 60 60" fill="none" xmlns="http://www.w3.org/2000/svg">
<rect width="60" height="60" rx="8" fill="#0196CE"/>
<path d="M33.75 43.4375H26.25C19.4625 43.4375 16.5625 40.5375 16.5625 33.75V26.25C16.5625 19.4625 19.4625 16.5625 26.25 16.5625H33.75C40.5375 16.5625 43.4375 19.4625 43.4375 26.25V33.75C43.4375 40.5375 40.5375 43.4375 33.75 43.4375ZM26.25 18.4375C20.4875 18.4375 18.4375 20.4875 18.4375 26.25V33.75C18.4375 39.5125 20.4875 41.5625 26.25 41.5625H33.75C39.5125 41.5625 41.5625 39.5125 41.5625 33.75V26.25C41.5625 20.4875 39.5125 18.4375 33.75 18.4375H26.25Z" fill="white"/>
<path d="M26.25 28.4375C24.35 28.4375 22.8125 26.9 22.8125 25C22.8125 23.1 24.35 21.5625 26.25 21.5625C28.15 21.5625 29.6875 23.1 29.6875 25C29.6875 26.9 28.15 28.4375 26.25 28.4375ZM26.25 23.4375C25.3875 23.4375 24.6875 24.1375 24.6875 25C24.6875 25.8625 25.3875 26.5625 26.25 26.5625C27.1125 26.5625 27.8125 25.8625 27.8125 25C27.8125 24.1375 27.1125 23.4375 26.25 23.4375Z" fill="white"/>
<path d="M18.3375 39.625C18.0375 39.625 17.7375 39.475 17.5625 39.2125C17.275 38.7875 17.3875 38.1999 17.825 37.9124L23.9875 33.775C25.3375 32.8625 27.2 32.975 28.425 34.0125L28.8375 34.3749C29.4625 34.9125 30.525 34.9125 31.1375 34.3749L36.3375 29.9125C37.6625 28.775 39.75 28.775 41.0875 29.9125L43.125 31.6625C43.5125 32 43.5625 32.5875 43.225 32.9875C42.8875 33.375 42.3 33.425 41.9 33.0875L39.8625 31.3375C39.2375 30.8 38.175 30.8 37.55 31.3375L32.35 35.7999C31.025 36.9374 28.9375 36.9374 27.6 35.7999L27.1875 35.4375C26.6125 34.95 25.6625 34.9 25.025 35.3375L18.8625 39.4749C18.7 39.5749 18.5125 39.625 18.3375 39.625Z" fill="white"/>
</svg>
