<svg width="8" height="6" viewBox="0 0 8 6" fill="none" xmlns="http://www.w3.org/2000/svg">
<path d="M7.3312 5.33125C7.15384 5.33125 6.98374 5.26079 6.85832 5.13538C6.73291 5.00996 6.66245 4.83986 6.66245 4.6625V3.33125C6.66245 2.80082 6.45174 2.29211 6.07666 1.91704C5.70159 1.54196 5.19288 1.33125 4.66245 1.33125H3.3312C2.80077 1.33125 2.29206 1.54196 1.91699 1.91704C1.54191 2.29211 1.3312 2.80082 1.3312 3.33125V4.6625C1.34021 4.75533 1.3297 4.84902 1.30034 4.93755C1.27099 5.02607 1.22344 5.10748 1.16076 5.17654C1.09807 5.2456 1.02164 5.30079 0.936357 5.33855C0.851078 5.37631 0.758843 5.39582 0.665576 5.39582C0.572309 5.39582 0.480074 5.37631 0.394794 5.33855C0.309515 5.30079 0.233078 5.2456 0.170394 5.17654C0.107709 5.10748 0.060163 5.02607 0.0308098 4.93755C0.00145651 4.84902 -0.00905464 4.75533 -4.87464e-05 4.6625V3.33125C0.00160326 2.44825 0.353104 1.6019 0.977476 0.977524C1.60185 0.353152 2.44821 0.00165201 3.3312 0H4.66245C5.54595 0 6.39327 0.35097 7.018 0.9757C7.64273 1.60043 7.9937 2.44775 7.9937 3.33125V4.6625C7.99371 4.83878 7.92411 5.00794 7.80004 5.13318C7.67598 5.25842 7.50748 5.3296 7.3312 5.33125Z" fill="#2A51B1"/>
</svg>
