<svg width="20" height="20" viewBox="0 0 20 20" fill="none" xmlns="http://www.w3.org/2000/svg">
<path d="M8.95742 2.04166C9.54076 1.55 10.4824 1.55 11.0491 2.04166L12.3658 3.16666C12.6158 3.375 13.0908 3.55 13.4241 3.55H14.8408C15.7241 3.55 16.4491 4.275 16.4491 5.15833V6.575C16.4491 6.90833 16.6241 7.375 16.8324 7.625L17.9574 8.94166C18.4491 9.525 18.4491 10.4667 17.9574 11.0333L16.8324 12.35C16.6241 12.6 16.4491 13.0667 16.4491 13.4V14.8167C16.4491 15.7 15.7241 16.425 14.8408 16.425H13.4241C13.0908 16.425 12.6241 16.6 12.3741 16.8083L11.0574 17.9333C10.4741 18.425 9.53242 18.425 8.96576 17.9333L7.64909 16.8083C7.39909 16.6 6.92409 16.425 6.59909 16.425H5.14076C4.25742 16.425 3.53242 15.7 3.53242 14.8167V13.3917C3.53242 13.0667 3.36576 12.5917 3.15742 12.35L2.03242 11.025C1.54909 10.45 1.54909 9.51666 2.03242 8.94166L3.15742 7.61666C3.36576 7.36666 3.53242 6.9 3.53242 6.575V5.16666C3.53242 4.28333 4.25742 3.55833 5.14076 3.55833H6.58242C6.91576 3.55833 7.38242 3.38333 7.63242 3.175L8.95742 2.04166Z" stroke="#1E1E1E" stroke-width="1.5" stroke-linecap="round" stroke-linejoin="round"/>
<path d="M10 6.77502V10.8" stroke="#1E1E1E" stroke-width="1.5" stroke-linecap="round" stroke-linejoin="round"/>
<path d="M9.99609 13.3333H10.0036" stroke="#1E1E1E" stroke-width="2" stroke-linecap="round" stroke-linejoin="round"/>
</svg>
