<svg width="20" height="20" viewBox="0 0 20 20" fill="none" xmlns="http://www.w3.org/2000/svg">
<path d="M1.66699 14.2167H10.0003" stroke="black" stroke-width="1.5" stroke-miterlimit="10" stroke-linecap="round" stroke-linejoin="round"/>
<path d="M3.51697 11.25H8.15035C9.63368 11.25 10.0003 11.6167 10.0003 13.0833V16.5083C10.0003 17.975 9.63368 18.3417 8.15035 18.3417H3.51697C2.03363 18.3417 1.66699 17.975 1.66699 16.5083V13.0833C1.66699 11.6167 2.03363 11.25 3.51697 11.25Z" stroke="black" stroke-width="1.5" stroke-linecap="round" stroke-linejoin="round"/>
<path d="M18.3333 12.5C18.3333 15.725 15.725 18.3333 12.5 18.3333L13.375 16.875" stroke="black" stroke-width="1.5" stroke-linecap="round" stroke-linejoin="round"/>
<path d="M1.66699 7.50002C1.66699 4.27502 4.27533 1.66669 7.50033 1.66669L6.62534 3.12502" stroke="black" stroke-width="1.5" stroke-linecap="round" stroke-linejoin="round"/>
<path d="M15.417 9.16669C17.4881 9.16669 19.167 7.48776 19.167 5.41669C19.167 3.34562 17.4881 1.66669 15.417 1.66669C13.3459 1.66669 11.667 3.34562 11.667 5.41669C11.667 7.48776 13.3459 9.16669 15.417 9.16669Z" stroke="black" stroke-width="1.5" stroke-linecap="round" stroke-linejoin="round"/>
</svg>
