<svg width="20" height="20" viewBox="0 0 20 20" fill="none" xmlns="http://www.w3.org/2000/svg">
<path d="M10 4.63379H18.3333" stroke="#595858" stroke-width="1.5" stroke-miterlimit="10" stroke-linecap="round" stroke-linejoin="round"/>
<path d="M11.85 1.66699H16.4833C17.9667 1.66699 18.3333 2.03366 18.3333 3.50033V6.92533C18.3333 8.39199 17.9667 8.75866 16.4833 8.75866H11.85C10.3667 8.75866 10 8.39199 10 6.92533V3.50033C10 2.03366 10.3667 1.66699 11.85 1.66699Z" stroke="#595858" stroke-width="1.5" stroke-linecap="round" stroke-linejoin="round"/>
<path d="M1.66675 14.2168H10.0001" stroke="#595858" stroke-width="1.5" stroke-miterlimit="10" stroke-linecap="round" stroke-linejoin="round"/>
<path d="M3.51675 11.25H8.15008C9.63341 11.25 10.0001 11.6167 10.0001 13.0833V16.5083C10.0001 17.975 9.63341 18.3417 8.15008 18.3417H3.51675C2.03342 18.3417 1.66675 17.975 1.66675 16.5083V13.0833C1.66675 11.6167 2.03342 11.25 3.51675 11.25Z" stroke="#595858" stroke-width="1.5" stroke-linecap="round" stroke-linejoin="round"/>
<path d="M18.3333 12.5C18.3333 15.725 15.725 18.3333 12.5 18.3333L13.375 16.875" stroke="#595858" stroke-width="1.5" stroke-linecap="round" stroke-linejoin="round"/>
<path d="M1.66675 7.50033C1.66675 4.27533 4.27508 1.66699 7.50008 1.66699L6.62509 3.12533" stroke="#595858" stroke-width="1.5" stroke-linecap="round" stroke-linejoin="round"/>
</svg>
