<svg width="37" height="37" viewBox="0 0 37 37" fill="none" xmlns="http://www.w3.org/2000/svg">
    <circle cx="18.5" cy="18.5" r="18.5" fill="#0196CE"/>
    <path d="M20 20.1699C17.87 20.1699 16.13 18.4399 16.13 16.2999C16.13 14.1599 17.87 12.4399 20 12.4399C22.13 12.4399 23.87 14.1699 23.87 16.3099C23.87 18.4499 22.13 20.1699 20 20.1699ZM20 13.9399C18.7 13.9399 17.63 14.9999 17.63 16.3099C17.63 17.6199 18.69 18.6799 20 18.6799C21.31 18.6799 22.37 17.6199 22.37 16.3099C22.37 14.9999 21.3 13.9399 20 13.9399Z" fill="white"/>
    <path d="M20 28.76C18.52 28.76 17.03 28.2 15.87 27.09C12.92 24.25 9.66 19.72 10.89 14.33C12 9.44 16.27 7.25 20 7.25C20 7.25 20 7.25 20.01 7.25C23.74 7.25 28.01 9.44 29.12 14.34C30.34 19.73 27.08 24.25 24.13 27.09C22.97 28.2 21.48 28.76 20 28.76ZM20 8.75C17.09 8.75 13.35 10.3 12.36 14.66C11.28 19.37 14.24 23.43 16.92 26C18.65 27.67 21.36 27.67 23.09 26C25.76 23.43 28.72 19.37 27.66 14.66C26.66 10.3 22.91 8.75 20 8.75Z" fill="white"/>
</svg>
