<svg width="37" height="37" viewBox="0 0 37 37" fill="none" xmlns="http://www.w3.org/2000/svg">
<circle cx="18.5" cy="18.5" r="18.5" fill="#0196CE"/>
<path d="M26 13V23C26 27 25 28 21 28H15C11 28 10 27 10 23V13C10 9 11 8 15 8H21C25 8 26 9 26 13Z" stroke="white" stroke-width="1.5" stroke-linecap="round" stroke-linejoin="round"/>
<path d="M20 11.5H16" stroke="white" stroke-width="1.5" stroke-linecap="round" stroke-linejoin="round"/>
<path d="M18 25.1C18.856 25.1 19.55 24.406 19.55 23.55C19.55 22.694 18.856 22 18 22C17.144 22 16.45 22.694 16.45 23.55C16.45 24.406 17.144 25.1 18 25.1Z" stroke="white" stroke-width="1.5" stroke-linecap="round" stroke-linejoin="round"/>
</svg>
