<svg width="24" height="22" viewBox="0 0 24 22" fill="none" xmlns="http://www.w3.org/2000/svg">
<path d="M15 20.8542H9C3.57 20.8542 1.25 18.7275 1.25 13.75V8.25004C1.25 3.27254 3.57 1.14587 9 1.14587H15C20.43 1.14587 22.75 3.27254 22.75 8.25004V13.75C22.75 18.7275 20.43 20.8542 15 20.8542ZM9 2.52087C4.39 2.52087 2.75 4.02421 2.75 8.25004V13.75C2.75 17.9759 4.39 19.4792 9 19.4792H15C19.61 19.4792 21.25 17.9759 21.25 13.75V8.25004C21.25 4.02421 19.61 2.52087 15 2.52087H9Z" fill="#0196CE"/>
<path d="M10.5799 14.2816C10.3799 14.2816 10.1899 14.2083 10.0499 14.08L7.21994 11.4858C6.92994 11.22 6.92994 10.78 7.21994 10.5141C7.50994 10.2483 7.98994 10.2483 8.27994 10.5141L10.5799 12.6225L15.7199 7.9108C16.0099 7.64497 16.4899 7.64497 16.7799 7.9108C17.0699 8.17663 17.0699 8.61663 16.7799 8.88247L11.1099 14.08C10.9699 14.2083 10.7799 14.2816 10.5799 14.2816Z" fill="#0196CE"/>
</svg>
