<svg width="19" height="24" viewBox="0 0 19 24" fill="none" xmlns="http://www.w3.org/2000/svg">
<path d="M9.50112 24C14.739 24 19 19.9662 19 15.0078C19 11.2013 16.4084 7.37095 12.3978 5.25043C12.2928 5.19508 12.2501 5.07092 12.2973 4.96171L13.4128 2.38343C13.7134 1.68931 13.5388 0.884484 12.9788 0.381095C12.4818 -0.0639521 11.7718 -0.123042 11.2103 0.235987L10.897 0.437193C10.8025 0.497031 10.7028 0.497779 10.6099 0.437941L10.2875 0.232247C9.80173 -0.0774157 9.19826 -0.0774157 8.71399 0.232247L8.39013 0.437941C8.29718 0.497031 8.19822 0.497031 8.10677 0.438689L7.78891 0.234491C7.22892 -0.12379 6.51825 -0.0654481 6.02123 0.380347C5.46124 0.883736 5.28731 1.68856 5.58718 2.38268L6.70341 4.96246C6.75064 5.07017 6.70716 5.19359 6.60221 5.24894C2.59156 7.3702 0 11.1999 0 15.0063C0 19.9662 4.26254 24 9.50112 24ZM6.68767 1.90921C6.58946 1.68258 6.64269 1.432 6.82261 1.26969C6.87583 1.22257 6.93805 1.19789 7.00028 1.19789C7.04825 1.19789 7.09623 1.2121 7.14046 1.24052L7.46056 1.44622C7.94784 1.75513 8.55131 1.75438 9.03484 1.44547L9.35869 1.23977C9.4509 1.18068 9.5491 1.18068 9.64206 1.23977L9.96441 1.44547C10.4487 1.75438 11.0522 1.75513 11.5424 1.44397L11.858 1.24127C11.9615 1.1747 12.0837 1.18592 12.1766 1.26894C12.3573 1.43126 12.4105 1.68258 12.3123 1.90847L11.1968 4.486C11.1241 4.6528 11.0866 4.82558 11.0791 4.99612C10.6871 5.07989 10.2553 5.12402 9.80473 5.12402C9.17277 5.12402 8.55131 5.03352 8.05504 4.87046C8.00481 4.854 7.95384 4.84503 7.90361 4.84204C7.88637 4.72161 7.85338 4.60268 7.80316 4.48675L6.68767 1.90921ZM7.1637 6.30658C7.32862 6.21906 7.47031 6.10238 7.58426 5.96625C7.61424 5.98196 7.64498 5.99617 7.67871 6.00739C8.30168 6.21308 9.03709 6.32154 9.80473 6.32154C10.4239 6.32154 11.0214 6.24973 11.5574 6.1136C11.6406 6.1869 11.7328 6.25272 11.8356 6.30733C15.4594 8.22365 17.8006 11.6389 17.8006 15.0086C17.8006 19.3072 14.077 22.8047 9.50037 22.8047C4.92223 22.8047 1.19795 19.3072 1.19795 15.0086C1.1987 11.6382 3.53987 8.2229 7.1637 6.30658ZM6.53999 16.5823L11.5252 11.6082C11.7591 11.3749 12.1384 11.3749 12.3723 11.6082C12.6062 11.8416 12.6062 12.2201 12.3723 12.4535L7.3871 17.4275C7.27015 17.5442 7.11647 17.6025 6.96354 17.6025C6.81061 17.6025 6.65693 17.5442 6.53999 17.4275C6.30609 17.1941 6.30609 16.8157 6.53999 16.5823ZM7.44557 14.2224C7.88412 14.2224 8.32342 14.0564 8.65776 13.7243C8.98161 13.4012 9.16003 12.9718 9.16003 12.5148C9.16003 12.0578 8.98161 11.6284 8.65776 11.3053C7.98907 10.6389 6.90207 10.6381 6.23338 11.3053C5.56844 11.9718 5.56769 13.0563 6.23488 13.725C6.56922 14.0564 7.00702 14.2224 7.44557 14.2224ZM7.08199 12.1498C7.17944 12.0533 7.30838 11.9994 7.44557 11.9994C7.58351 11.9994 7.71245 12.0533 7.8099 12.1505C7.90736 12.2478 7.96133 12.3772 7.96133 12.514C7.96133 12.6517 7.90736 12.7803 7.8114 12.8768C7.60974 13.0773 7.2814 13.0773 7.08199 12.8791C6.88183 12.6779 6.88183 12.351 7.08199 12.1498ZM10.3415 15.4035C10.0169 15.7274 9.83847 16.1574 9.83922 16.6145C9.83997 17.0707 10.0184 17.4993 10.3415 17.8202C10.6653 18.1433 11.0956 18.3214 11.5537 18.3214C12.0117 18.3214 12.442 18.1433 12.7659 17.8202C13.4323 17.1553 13.4323 16.0722 12.7659 15.4035C12.442 15.0804 12.0117 14.9023 11.5537 14.9023C11.0956 14.9023 10.6653 15.0804 10.3415 15.4035ZM11.9188 16.975C11.8213 17.0722 11.6916 17.1261 11.5544 17.1261C11.4172 17.1261 11.2876 17.0722 11.1886 16.9742C11.0919 16.8785 11.0387 16.7506 11.0387 16.6137C11.0387 16.4761 11.0919 16.3467 11.1901 16.2495C11.2875 16.1522 11.4172 16.0984 11.5544 16.0984C11.6916 16.0984 11.8213 16.1522 11.918 16.248C12.1182 16.4492 12.1182 16.7753 11.9188 16.975Z" fill="#595858"/>
</svg>
