<svg width="10" height="10" viewBox="0 0 40 40" fill="none" xmlns="http://www.w3.org/2000/svg">
<path d="M14.9999 36.6667H24.9999C33.3333 36.6667 36.6666 33.3334 36.6666 25V15C36.6666 6.66671 33.3333 3.33337 24.9999 3.33337H14.9999C6.66659 3.33337 3.33325 6.66671 3.33325 15V25C3.33325 33.3334 6.66659 36.6667 14.9999 36.6667Z" stroke="#0196CE" stroke-width="1.5" stroke-linecap="round" stroke-linejoin="round"/>
<path d="M15.0001 16.6667C16.841 16.6667 18.3334 15.1743 18.3334 13.3333C18.3334 11.4924 16.841 10 15.0001 10C13.1591 10 11.6667 11.4924 11.6667 13.3333C11.6667 15.1743 13.1591 16.6667 15.0001 16.6667Z" stroke="#0196CE" stroke-width="1.5" stroke-linecap="round" stroke-linejoin="round"/>
<path d="M4.44995 31.5834L12.6666 26.0667C13.9833 25.1834 15.8833 25.2833 17.0666 26.3L17.6166 26.7833C18.9166 27.9 21.0166 27.9 22.3166 26.7833L29.25 20.8333C30.55 19.7167 32.65 19.7167 33.95 20.8333L36.6666 23.1667" stroke="#0196CE" stroke-width="1.5" stroke-linecap="round" stroke-linejoin="round"/>
</svg>
